<?xml version="1.0" encoding="utf-8"?>
<!-- Generator: Adobe Illustrator 23.0.3, SVG Export Plug-In . SVG Version: 6.00 Build 0)  -->
<svg version="1.1" id="Layer_1" xmlns="http://www.w3.org/2000/svg" xmlns:xlink="http://www.w3.org/1999/xlink" x="0px" y="0px"
	 viewBox="0 0 500 500" style="enable-background:new 0 0 500 500;" xml:space="preserve">
<style type="text/css">
	.st0{fill:#0B3475;}
	.st1{fill:url(#SVGID_1_);}
	.st2{fill:url(#SVGID_2_);}
	.st3{fill:url(#SVGID_3_);}
	.st4{fill:url(#SVGID_4_);}
	.st5{fill:url(#SVGID_5_);}
	.st6{fill:url(#SVGID_6_);}
	.st7{fill:url(#SVGID_7_);}
	.st8{fill:url(#SVGID_8_);}
	.st9{fill:url(#SVGID_9_);}
	.st10{fill:url(#SVGID_10_);}
	.st11{fill:url(#SVGID_11_);}
	.st12{fill:url(#SVGID_12_);}
	.st13{fill:url(#SVGID_13_);}
</style>
<rect class="st0" width="500" height="500"/>
<linearGradient id="SVGID_1_" gradientUnits="userSpaceOnUse" x1="368.2209" y1="379.9931" x2="598.1984" y2="610.988" gradientTransform="matrix(1.1062 -0.1037 -0.1037 1.1062 -86.5147 -141.4737)">
	<stop  offset="0" style="stop-color:#082651"/>
	<stop  offset="1" style="stop-color:#0B3475"/>
</linearGradient>
<polygon class="st1" points="500,251 500,500 331,500 159,326 238,279 354,117 "/>
<g id="plane">
	<linearGradient id="SVGID_2_" gradientUnits="userSpaceOnUse" x1="235.4458" y1="285.9824" x2="345.4888" y2="365.3051">
		<stop  offset="0" style="stop-color:#0068FF"/>
		<stop  offset="1" style="stop-color:#00B6FF"/>
	</linearGradient>
	<polygon class="st2" points="251.07,307.01 262.68,335.18 245.92,345.11 234.32,316.94 271.28,260.24 277.48,266.51 	"/>
	<linearGradient id="SVGID_3_" gradientUnits="userSpaceOnUse" x1="301.1667" y1="147.5797" x2="403.8363" y2="263.4121">
		<stop  offset="0" style="stop-color:#0068FF"/>
		<stop  offset="0.0624" style="stop-color:#006BFF"/>
		<stop  offset="0.1059" style="stop-color:#0074FF"/>
		<stop  offset="0.1436" style="stop-color:#0083FF"/>
		<stop  offset="0.1779" style="stop-color:#0099FF"/>
		<stop  offset="0.2098" style="stop-color:#00B5FF"/>
		<stop  offset="0.2108" style="stop-color:#00B6FF"/>
		<stop  offset="0.231" style="stop-color:#00B3FF"/>
		<stop  offset="0.4423" style="stop-color:#0092FF"/>
		<stop  offset="0.6457" style="stop-color:#007BFF"/>
		<stop  offset="0.836" style="stop-color:#006DFF"/>
		<stop  offset="1" style="stop-color:#0068FF"/>
	</linearGradient>
	<path class="st3" d="M382,299.63l-16.76,9.92l-60.96-99.92l35.92-55.09c6.56-10.06,3.58-23.56-6.62-29.91
		c-3.95-2.46-8.38-3.48-12.69-3.2h-0.01c-2.89,0.19-5.71,0.95-8.3,2.25l14.73-8.75l1.58-0.94c6.53-3.48,14.7-3.48,21.45,0.72
		c10.19,6.35,13.19,19.85,6.62,29.91l-35.92,55.09L382,299.63z"/>
	<linearGradient id="SVGID_4_" gradientUnits="userSpaceOnUse" x1="290.4258" y1="195.8546" x2="202.3914" y2="174.5338">
		<stop  offset="0" style="stop-color:#0068FF"/>
		<stop  offset="1" style="stop-color:#00B6FF"/>
	</linearGradient>
	<polygon class="st4" points="276.65,177.52 270.18,188.4 163.62,178.63 153.62,177.72 170.37,167.79 	"/>
	<linearGradient id="SVGID_5_" gradientUnits="userSpaceOnUse" x1="229.0653" y1="310.383" x2="188.7162" y2="293.4181">
		<stop  offset="0" style="stop-color:#0068FF"/>
		<stop  offset="1" style="stop-color:#00B6FF"/>
	</linearGradient>
	<polygon class="st5" points="210.16,289.31 204.7,298.49 185.32,299.76 174.31,300.49 191.06,290.56 	"/>
	<linearGradient id="SVGID_6_" gradientUnits="userSpaceOnUse" x1="136.1658" y1="245.8949" x2="365.239" y2="245.8949">
		<stop  offset="0" style="stop-color:#0068FF"/>
		<stop  offset="1" style="stop-color:#00B6FF"/>
	</linearGradient>
	<path class="st6" d="M365.24,309.55l-7.18,11.52l-10.26,16.48l-70.32-71.05l-6.2-6.27l-36.96,56.7l11.61,28.17l-4.35,6.97
		l-11.43,18.33l-25.07-39.54l-46.54-5.07l15.77-25.31l11.02-0.73l19.37-1.27l5.46-9.18l29.14-48.99l-103.13-34.59l17.45-28l10,0.92
		l106.56,9.76l6.47-10.87l27.15-45.65c2.15-3.61,5.18-6.35,8.66-8.14l0.11-0.05c2.6-1.3,5.42-2.06,8.3-2.25h0.01
		c4.31-0.27,8.74,0.74,12.69,3.2c10.2,6.35,13.19,19.85,6.62,29.91l-35.92,55.09L365.24,309.55z"/>
	<linearGradient id="SVGID_7_" gradientUnits="userSpaceOnUse" x1="274.8716" y1="387.3949" x2="234.5225" y2="338.3341">
		<stop  offset="0" style="stop-color:#0068FF"/>
		<stop  offset="1" style="stop-color:#00B6FF"/>
	</linearGradient>
	<polygon class="st7" points="262.68,335.18 246.91,360.49 230.15,370.41 241.58,352.08 245.92,345.11 	"/>
	<linearGradient id="SVGID_8_" gradientUnits="userSpaceOnUse" x1="347.7974" y1="318.5959" x2="382" y2="318.5959">
		<stop  offset="0" style="stop-color:#0068FF"/>
		<stop  offset="1" style="stop-color:#00B6FF"/>
	</linearGradient>
	<polygon class="st8" points="382,299.63 364.55,327.63 347.8,337.56 358.06,321.08 365.24,309.55 	"/>
	<linearGradient id="SVGID_9_" gradientUnits="userSpaceOnUse" x1="312.3788" y1="123.7569" x2="312.4605" y2="123.7569">
		<stop  offset="0" style="stop-color:#0068FF"/>
		<stop  offset="1" style="stop-color:#00B6FF"/>
	</linearGradient>
	<line class="st9" x1="312.46" y1="123.73" x2="312.38" y2="123.78"/>
	<g>
		<linearGradient id="SVGID_10_" gradientUnits="userSpaceOnUse" x1="98.7903" y1="244.751" x2="142.3268" y2="244.751">
			<stop  offset="0.1499" style="stop-color:#FF9800"/>
			<stop  offset="1" style="stop-color:#FFC107"/>
		</linearGradient>
		<path class="st10" d="M107.91,275.34l-9.12-5.65l0.5-0.81l9.12,5.65L107.91,275.34z M114.06,265.41l-9.12-5.65l5.65-9.12
			l9.12,5.65L114.06,265.41z M125.37,247.17l-9.12-5.65l5.65-9.12l9.12,5.65L125.37,247.17z M136.67,228.94l-9.12-5.65l5.65-9.12
			l9.12,5.65L136.67,228.94z"/>
	</g>
	<g>
		<linearGradient id="SVGID_11_" gradientUnits="userSpaceOnUse" x1="302.4687" y1="358.219" x2="339.725" y2="358.219">
			<stop  offset="0.1499" style="stop-color:#FF9800"/>
			<stop  offset="1" style="stop-color:#FFC107"/>
		</linearGradient>
		<path class="st11" d="M311.6,383.87l-9.14-5.62l5.62-9.14l9.14,5.62L311.6,383.87z M322.85,365.6l-9.14-5.62l5.62-9.14l9.14,5.62
			L322.85,365.6z M334.1,347.33l-9.14-5.62l5.62-9.14l9.14,5.62L334.1,347.33z"/>
	</g>
	<g>
		<linearGradient id="SVGID_12_" gradientUnits="userSpaceOnUse" x1="280.4327" y1="320.7918" x2="306.5108" y2="320.7918">
			<stop  offset="0.1499" style="stop-color:#FF9800"/>
			<stop  offset="1" style="stop-color:#FFC107"/>
		</linearGradient>
		<path class="st12" d="M289.55,337.3l-9.12-5.65l5.65-9.12l9.12,5.65L289.55,337.3z M300.86,319.06l-9.12-5.65l5.65-9.12l9.12,5.65
			L300.86,319.06z"/>
	</g>
	<g>
		<linearGradient id="SVGID_13_" gradientUnits="userSpaceOnUse" x1="155.0872" y1="250.9531" x2="188.4072" y2="250.9531">
			<stop  offset="0.1499" style="stop-color:#FF9800"/>
			<stop  offset="1" style="stop-color:#FFC107"/>
		</linearGradient>
		<path class="st13" d="M164.21,273.3l-9.12-5.65l1.59-2.56l9.12,5.65L164.21,273.3z M171.45,261.62l-9.12-5.65l5.65-9.12l9.12,5.65
			L171.45,261.62z M182.75,243.38l-9.12-5.65l5.65-9.12l9.12,5.65L182.75,243.38z"/>
	</g>
</g>
</svg>
