<?xml version="1.0" encoding="utf-8"?>
<!-- Generator: Adobe Illustrator 23.0.3, SVG Export Plug-In . SVG Version: 6.00 Build 0)  -->
<svg version="1.1" id="Layer_1" xmlns="http://www.w3.org/2000/svg" xmlns:xlink="http://www.w3.org/1999/xlink" x="0px" y="0px"
	 viewBox="0 0 500 500" style="enable-background:new 0 0 500 500;" xml:space="preserve">
<style type="text/css">
	.st0{fill:#0B3475;}
	.st1{fill:url(#SVGID_1_);}
	.st2{fill:url(#SVGID_2_);}
	.st3{fill:url(#SVGID_3_);}
	.st4{fill:url(#SVGID_4_);}
	.st5{fill:url(#SVGID_5_);}
	.st6{fill:url(#SVGID_6_);}
	.st7{fill:url(#SVGID_7_);}
	.st8{fill:url(#SVGID_8_);}
	.st9{fill:url(#SVGID_9_);}
	.st10{fill:url(#SVGID_10_);}
	.st11{fill:url(#SVGID_11_);}
	.st12{fill:url(#SVGID_12_);}
	.st13{fill:url(#SVGID_13_);}
	.st14{fill:url(#SVGID_14_);}
	.st15{fill:url(#SVGID_15_);}
	.st16{fill:url(#SVGID_16_);}
	.st17{fill:url(#SVGID_17_);}
	.st18{fill:url(#SVGID_18_);}
	.st19{fill:url(#SVGID_19_);}
	.st20{fill:url(#SVGID_20_);}
	.st21{fill:url(#SVGID_21_);}
	.st22{fill:url(#SVGID_22_);}
	.st23{fill:url(#SVGID_23_);}
</style>
<rect class="st0" width="500" height="500"/>
<linearGradient id="SVGID_1_" gradientUnits="userSpaceOnUse" x1="361.5731" y1="398.0936" x2="585.9995" y2="623.5129" gradientTransform="matrix(1.1062 -0.1037 -0.1037 1.1062 -86.5147 -141.4737)">
	<stop  offset="0" style="stop-color:#082651"/>
	<stop  offset="1" style="stop-color:#0B3475"/>
</linearGradient>
<polygon class="st1" points="500,290 500,500 331,500 147,336 377,179 "/>
<g id="retail">
	<g>
		<linearGradient id="SVGID_2_" gradientUnits="userSpaceOnUse" x1="372.0621" y1="212.6078" x2="101.1723" y2="212.6078">
			<stop  offset="0" style="stop-color:#0068FF"/>
			<stop  offset="1" style="stop-color:#00B6FF"/>
		</linearGradient>
		<path class="st2" d="M309.39,211.66c-1.92-2.04-4.71-2.78-8.75-0.97c-14.4,6.45-13.89,15.92-13.89,15.92v16.61L226,279.45
			c-3.33,1.98-7.5,1.89-10.73-0.23l-89.26-58.68c-2.59-1.7-4.07-4.28-4.45-6.99l-0.1-1.07c-0.13-3.57,1.59-7.19,5.12-9.18
			l47.37-26.82v-15.54c0,0,0.37-11.13,14.9-15.92c1.49-0.49,2.9-0.69,4.24-0.68v8.95c-2.22,0.43-3.96,1.24-5.31,2.27
			c-5.19,3.93-4.86,10.93-4.86,10.93v4.91l9.63,4.68l-9.63,5.46l-37.54,21.25c-5.58,3.16-5.84,11.09-0.49,14.61l30.31,19.92
			l45.33,29.8c2.74,1.81,6.28,1.88,9.09,0.2l48.16-28.72v-17.55c0,0,0.06-1.8,1.08-4.27c1.49-3.6,5.03-8.63,13.45-11.51
			c0.12-0.04,0.25-0.09,0.38-0.13C300.78,202.47,306.74,208.3,309.39,211.66z"/>
		<linearGradient id="SVGID_3_" gradientUnits="userSpaceOnUse" x1="212.2185" y1="153.3305" x2="243.9485" y2="153.3305">
			<stop  offset="0" style="stop-color:#0068FF"/>
			<stop  offset="1" style="stop-color:#00B6FF"/>
		</linearGradient>
		<polygon class="st3" points="243.95,146.98 212.22,164.95 212.22,154.81 235.35,141.71 		"/>
		<linearGradient id="SVGID_4_" gradientUnits="userSpaceOnUse" x1="259.3884" y1="173.1413" x2="378.0779" y2="173.1413">
			<stop  offset="0" style="stop-color:#0068FF"/>
			<stop  offset="1" style="stop-color:#00B6FF"/>
		</linearGradient>
		<path class="st4" d="M378.07,183.46c-0.14,3.21-1.78,6.37-4.92,8.24l-59.56,35.52c-0.1-2.77-0.39-6.19-1.17-9.28l12.62-7.52
			l29.28-17.46c5.56-3.32,5.57-11.38,0.01-14.71l-76.22-45.63c-2.65-1.58-5.94-1.62-8.62-0.1l-1.75,0.99l-8.35-5.41l13.65-7.73
			c3.16-1.79,7.05-1.74,10.17,0.13l89.95,53.84C376.58,176.39,378.22,179.96,378.07,183.46z"/>
		<linearGradient id="SVGID_5_" gradientUnits="userSpaceOnUse" x1="309.3984" y1="212.7055" x2="310.8484" y2="212.7055">
			<stop  offset="0" style="stop-color:#0068FF"/>
			<stop  offset="1" style="stop-color:#00B6FF"/>
		</linearGradient>
		<path class="st5" d="M310.85,213.73c-0.17-0.27-0.66-1.05-1.45-2.05C309.96,212.27,310.44,212.96,310.85,213.73z"/>
		<linearGradient id="SVGID_6_" gradientUnits="userSpaceOnUse" x1="210.0616" y1="225.3909" x2="312.6416" y2="225.3909">
			<stop  offset="0" style="stop-color:#0068FF"/>
			<stop  offset="1" style="stop-color:#00B6FF"/>
		</linearGradient>
		<path class="st6" d="M277.78,232.68v5.92l-48.16,28.72c-2.81,1.68-6.35,1.61-9.09-0.2l-45.33-29.8l94.81-55.07v45.31
			L277.78,232.68z"/>
		<linearGradient id="SVGID_7_" gradientUnits="userSpaceOnUse" x1="141.0298" y1="192.1505" x2="270.0085" y2="192.1505">
			<stop  offset="0" style="stop-color:#0068FF"/>
			<stop  offset="1" style="stop-color:#00B6FF"/>
		</linearGradient>
		<path class="st7" d="M270.01,162.95v19.3l-94.81,55.07l-30.31-19.92c-5.35-3.52-5.09-11.45,0.49-14.61l37.54-21.25l9.63-5.46
			l0.54,1.05v1.92l8.9,5.31l10.23-5.69v-13.72l31.73-17.97L270.01,162.95z"/>
		<linearGradient id="SVGID_8_" gradientUnits="userSpaceOnUse" x1="299.0648" y1="170.914" x2="389.8197" y2="170.914">
			<stop  offset="0" style="stop-color:#0068FF"/>
			<stop  offset="1" style="stop-color:#00B6FF"/>
		</linearGradient>
		<path class="st8" d="M354.32,192.96l-29.28,17.46l-32.73-20.82v-40.17l-24.57-15.92l1.75-0.99c2.68-1.52,5.97-1.48,8.62,0.1
			l76.22,45.63C359.89,181.58,359.88,189.64,354.32,192.96z"/>
		<linearGradient id="SVGID_9_" gradientUnits="userSpaceOnUse" x1="292.3084" y1="203.7705" x2="325.0384" y2="203.7705">
			<stop  offset="0" style="stop-color:#0068FF"/>
			<stop  offset="1" style="stop-color:#00B6FF"/>
		</linearGradient>
		<path class="st9" d="M325.04,210.42l-12.62,7.52c-0.38-1.48-0.87-2.88-1.51-4.1c0,0-0.02-0.04-0.06-0.11
			c-0.41-0.77-0.89-1.46-1.45-2.05c0,0,0-0.01-0.01-0.02c-2.65-3.36-8.61-9.19-16.7-6.52c-0.13,0.04-0.26,0.09-0.38,0.13V189.6
			L325.04,210.42z"/>
		<linearGradient id="SVGID_10_" gradientUnits="userSpaceOnUse" x1="309.3984" y1="212.7055" x2="310.8484" y2="212.7055">
			<stop  offset="0" style="stop-color:#0068FF"/>
			<stop  offset="1" style="stop-color:#00B6FF"/>
		</linearGradient>
		<path class="st10" d="M310.85,213.73c-0.17-0.27-0.66-1.05-1.45-2.05C309.96,212.27,310.44,212.96,310.85,213.73z"/>
		<linearGradient id="SVGID_11_" gradientUnits="userSpaceOnUse" x1="187.7784" y1="155.6705" x2="193.0883" y2="155.6705">
			<stop  offset="0" style="stop-color:#0068FF"/>
			<stop  offset="1" style="stop-color:#00B6FF"/>
		</linearGradient>
		<path class="st11" d="M193.09,153.29v4.76l-5.31-2.49C189.13,154.53,190.87,153.72,193.09,153.29z"/>
		<linearGradient id="SVGID_12_" gradientUnits="userSpaceOnUse" x1="182.9142" y1="168.8255" x2="278.8584" y2="168.8255">
			<stop  offset="0.1499" style="stop-color:#FF9800"/>
			<stop  offset="1" style="stop-color:#FFC107"/>
		</linearGradient>
		<path class="st12" d="M278.86,216.78c-1.02,2.47-1.08,4.27-1.08,4.27v11.63l-7.77-5.12v-64.61l-26.06-15.97l-8.6-5.27
			l-23.13-14.18l-10.23-6.27v63.1l-8.9-5.31v-1.92l-0.54-1.05l-9.63-4.68v-4.91c0,0-0.33-7,4.86-10.93l5.31,2.49v-53.08l52.05,31.2
			l8.7,5.21l24.82,14.87l0.08,24.72L278.86,216.78z"/>
		<linearGradient id="SVGID_13_" gradientUnits="userSpaceOnUse" x1="201.9885" y1="152.8105" x2="212.2185" y2="152.8105">
			<stop  offset="0.1499" style="stop-color:#FF9800"/>
			<stop  offset="1" style="stop-color:#FFC107"/>
		</linearGradient>
		<polygon class="st13" points="212.22,127.53 212.22,178.67 201.99,184.36 201.99,121.26 		"/>
		<linearGradient id="SVGID_14_" gradientUnits="userSpaceOnUse" x1="193.0883" y1="156.5805" x2="292.3084" y2="156.5805">
			<stop  offset="0.1499" style="stop-color:#FF9800"/>
			<stop  offset="1" style="stop-color:#FFC107"/>
		</linearGradient>
		<path class="st14" d="M292.31,149.43v55.84c-8.42,2.88-11.96,7.91-13.45,11.51l-0.12-35.81l-0.08-24.72l-24.82-14.87l-8.7-5.21
			l-52.05-31.2l17.36-8.59l48.94,31.72l8.35,5.41L292.31,149.43z"/>
		<linearGradient id="SVGID_15_" gradientUnits="userSpaceOnUse" x1="216.0426" y1="258.0905" x2="322.3698" y2="258.0905">
			<stop  offset="0" style="stop-color:#0068FF"/>
			<stop  offset="0.0539" style="stop-color:#007AFF"/>
			<stop  offset="0.1418" style="stop-color:#0090FF"/>
			<stop  offset="0.245" style="stop-color:#00A1FF"/>
			<stop  offset="0.3713" style="stop-color:#00ADFF"/>
			<stop  offset="0.5457" style="stop-color:#00B4FF"/>
			<stop  offset="1" style="stop-color:#00B6FF"/>
		</linearGradient>
		<path class="st15" d="M378.07,183.46l-0.25,55.28l-12.4,7.54l-133.56,81.18l-8.65,5.26l-85.81-53.89l-10.58-6.17l-5.26-59.11
			c0.38,2.71,1.86,5.29,4.45,6.99l89.26,58.68c3.23,2.12,7.4,2.21,10.73,0.23l60.75-36.23v-16.61c0,0-0.51-9.47,13.89-15.92
			c4.04-1.81,6.83-1.07,8.75,0.97c0.01,0.01,0.01,0.02,0.01,0.02c0.79,1,1.28,1.78,1.45,2.05c0.04,0.07,0.06,0.11,0.06,0.11
			c0.64,1.22,1.13,2.62,1.51,4.1c0.78,3.09,1.07,6.51,1.17,9.28l59.56-35.52C376.29,189.83,377.93,186.67,378.07,183.46z"/>
		<linearGradient id="SVGID_16_" gradientUnits="userSpaceOnUse" x1="121.4484" y1="212.9455" x2="121.5584" y2="212.9455">
			<stop  offset="0" style="stop-color:#0068FF"/>
			<stop  offset="1" style="stop-color:#00B6FF"/>
		</linearGradient>
		<polyline class="st16" points="121.56,213.55 121.46,212.48 121.45,212.34 		"/>
		<linearGradient id="SVGID_17_" gradientUnits="userSpaceOnUse" x1="177.7952" y1="319.7656" x2="311.3553" y2="319.7656">
			<stop  offset="0" style="stop-color:#0068FF"/>
			<stop  offset="1" style="stop-color:#00B6FF"/>
		</linearGradient>
		<polygon class="st17" points="365.42,246.28 354.71,328.55 246.13,393.25 231.86,327.46 		"/>
		<linearGradient id="SVGID_18_" gradientUnits="userSpaceOnUse" x1="113.651" y1="336.0905" x2="222.381" y2="336.0905">
			<stop  offset="0" style="stop-color:#0068FF"/>
			<stop  offset="1" style="stop-color:#00B6FF"/>
		</linearGradient>
		<polygon class="st18" points="246.13,393.25 245.95,393.35 146.66,335.75 137.4,278.83 223.21,332.72 231.86,327.46 		"/>
	</g>
	<linearGradient id="SVGID_19_" gradientUnits="userSpaceOnUse" x1="293.1895" y1="229.546" x2="307.4632" y2="229.546">
		<stop  offset="0.1499" style="stop-color:#FF9800"/>
		<stop  offset="1" style="stop-color:#FFC107"/>
	</linearGradient>
	<path class="st19" d="M307.46,231.16l-14.27,9.35v-10.79c0-3.74,1.92-7.21,5.09-9.2l1.89-1.18c3.17-1.99,7.3,0.29,7.3,4.04V231.16z
		"/>
	<linearGradient id="SVGID_20_" gradientUnits="userSpaceOnUse" x1="182.9184" y1="171.4005" x2="182.9184" y2="171.4005">
		<stop  offset="0" style="stop-color:#0068FF"/>
		<stop  offset="1" style="stop-color:#00B6FF"/>
	</linearGradient>
	<path class="st20" d="M182.92,171.4"/>
	<linearGradient id="SVGID_21_" gradientUnits="userSpaceOnUse" x1="266.0316" y1="329.7348" x2="282.4526" y2="329.7348">
		<stop  offset="0" style="stop-color:#00B6FF"/>
		<stop  offset="1" style="stop-color:#FFFFFF"/>
	</linearGradient>
	<path class="st21" d="M278.88,358.3l-6.23,3.97c-2.87,1.82-6.61-0.23-6.61-3.63v-51.65l16.42-10.45v55.26
		C282.45,354.42,281.1,356.88,278.88,358.3z"/>
	<linearGradient id="SVGID_22_" gradientUnits="userSpaceOnUse" x1="300.0105" y1="308.3874" x2="316.4316" y2="308.3874">
		<stop  offset="0" style="stop-color:#00B6FF"/>
		<stop  offset="1" style="stop-color:#FFFFFF"/>
	</linearGradient>
	<path class="st22" d="M312.86,336.95l-6.23,3.97c-2.87,1.82-6.61-0.23-6.61-3.63v-51.65l16.42-10.45v55.26
		C316.43,333.08,315.08,335.53,312.86,336.95z"/>
	<linearGradient id="SVGID_23_" gradientUnits="userSpaceOnUse" x1="328.9368" y1="290.0716" x2="345.3579" y2="290.0716">
		<stop  offset="0" style="stop-color:#00B6FF"/>
		<stop  offset="1" style="stop-color:#FFFFFF"/>
	</linearGradient>
	<path class="st23" d="M341.78,318.63l-6.23,3.97c-2.87,1.82-6.61-0.23-6.61-3.63v-51.65l16.42-10.45v55.26
		C345.36,314.76,344.01,317.22,341.78,318.63z"/>
</g>
</svg>
