<?xml version="1.0" encoding="utf-8"?>
<!-- Generator: Adobe Illustrator 23.0.3, SVG Export Plug-In . SVG Version: 6.00 Build 0)  -->
<svg version="1.1" id="Layer_1" xmlns="http://www.w3.org/2000/svg" xmlns:xlink="http://www.w3.org/1999/xlink" x="0px" y="0px"
	 viewBox="0 0 500 500" style="enable-background:new 0 0 500 500;" xml:space="preserve">
<style type="text/css">
	.st0{fill:#0B3475;}
	.st1{fill:none;stroke:#FFFFFF;stroke-miterlimit:10;}
	.st2{fill:url(#SVGID_1_);}
	.st3{fill:url(#SVGID_2_);}
	.st4{fill:url(#SVGID_3_);}
	.st5{fill:url(#SVGID_4_);}
	.st6{fill:url(#SVGID_5_);}
	.st7{fill:#8BD5E8;}
	.st8{fill:url(#SVGID_6_);}
	.st9{fill:url(#SVGID_7_);}
	.st10{fill:url(#SVGID_8_);}
	.st11{fill:url(#SVGID_9_);}
</style>
<rect class="st0" width="500" height="500"/>
<g>
	<polygon class="st1" points="378.03,196.87 122.86,112.89 122.86,112.88 	"/>
	<linearGradient id="SVGID_1_" gradientUnits="userSpaceOnUse" x1="419.2332" y1="328.2527" x2="212.8853" y2="149.8622">
		<stop  offset="0.3984" style="stop-color:#0068FF"/>
		<stop  offset="0.4311" style="stop-color:#007BFF"/>
		<stop  offset="0.4811" style="stop-color:#0091FF"/>
		<stop  offset="0.5401" style="stop-color:#00A2FF"/>
		<stop  offset="0.6131" style="stop-color:#00ADFF"/>
		<stop  offset="0.7156" style="stop-color:#00B4FF"/>
		<stop  offset="1" style="stop-color:#00B6FF"/>
	</linearGradient>
	<path class="st2" d="M390.02,405.12c3.1-1.24,5.14-4.24,5.14-7.58V190.52c0-6.67-4.3-12.57-10.65-14.61l-245.7-78.96
		c-3.44-1.11-7.2-0.59-10.22,1.4c-13.25,8.77-20.13,12.01-20.13,12.01l-3.38,9.54l17.37-7.02l243.75,80.23
		c6.81,2.24,11.42,8.61,11.42,15.78v191.44c0,7.47-4.88,11.67-4.88,11.67L390.02,405.12z"/>
	<linearGradient id="SVGID_2_" gradientUnits="userSpaceOnUse" x1="104.9162" y1="261.2183" x2="377.6203" y2="261.2183">
		<stop  offset="0" style="stop-color:#0068FF"/>
		<stop  offset="1" style="stop-color:#00B6FF"/>
	</linearGradient>
	<path class="st3" d="M122.67,112.89l-0.14-0.01l-8.99-2.95c-4.25-1.39-8.62,1.77-8.62,6.25v200.78c0,5.62,3.61,10.6,8.94,12.36
		l252.39,83.07c5.6,1.84,11.37-2.33,11.37-8.23v-196.2c0-6.62-4.25-12.5-10.54-14.57L122.67,112.89z M189.81,148.18
		c5.56,1.83,10.06,7.81,10.06,13.37c0,5.55-4.5,8.58-10.06,6.74c-5.55-1.82-10.06-7.8-10.06-13.36
		C179.75,149.38,184.25,146.36,189.81,148.18z M161.64,138.92c5.56,1.82,10.06,7.81,10.06,13.36c0,5.56-4.5,8.58-10.06,6.75
		c-5.55-1.83-10.06-7.81-10.06-13.37C151.58,140.12,156.09,137.09,161.64,138.92z M133.48,129.66c5.55,1.82,10.06,7.81,10.06,13.36
		c0,5.56-4.51,8.58-10.06,6.75c-5.56-1.83-10.06-7.81-10.06-13.37C123.43,130.85,127.93,127.82,133.48,129.66z M360.08,391
		l-237.63-78.1V156.79l237.63,78.11V391z"/>
	<linearGradient id="SVGID_3_" gradientUnits="userSpaceOnUse" x1="123.4267" y1="139.7114" x2="143.5419" y2="139.7114">
		<stop  offset="0.1499" style="stop-color:#FF9800"/>
		<stop  offset="1" style="stop-color:#FFC107"/>
	</linearGradient>
	<path class="st4" d="M143.54,143.02c0,5.56-4.51,8.58-10.06,6.75c-5.56-1.83-10.06-7.81-10.06-13.37c0-5.55,4.5-8.58,10.06-6.74
		C139.03,131.48,143.54,137.47,143.54,143.02z"/>
	<linearGradient id="SVGID_4_" gradientUnits="userSpaceOnUse" x1="151.5827" y1="148.9799" x2="171.698" y2="148.9799">
		<stop  offset="0.1499" style="stop-color:#FF9800"/>
		<stop  offset="1" style="stop-color:#FFC107"/>
	</linearGradient>
	<path class="st5" d="M171.7,152.29c0,5.56-4.5,8.58-10.06,6.75c-5.55-1.83-10.06-7.81-10.06-13.37c0-5.55,4.51-8.58,10.06-6.74
		C167.2,140.75,171.7,146.74,171.7,152.29z"/>
	<linearGradient id="SVGID_5_" gradientUnits="userSpaceOnUse" x1="179.7476" y1="158.2429" x2="199.8628" y2="158.2429">
		<stop  offset="0.1499" style="stop-color:#FF9800"/>
		<stop  offset="1" style="stop-color:#FFC107"/>
	</linearGradient>
	<path class="st6" d="M199.86,161.56c0,5.55-4.5,8.58-10.06,6.74c-5.55-1.82-10.06-7.8-10.06-13.36c0-5.56,4.51-8.58,10.06-6.75
		C195.36,150.02,199.86,156,199.86,161.56z"/>
	<path class="st7" d="M122.36,156.79v156.11l238,78.1V234.9L122.36,156.79z"/>
	<g>
		<linearGradient id="SVGID_6_" gradientUnits="userSpaceOnUse" x1="159.3625" y1="273.5181" x2="213.3625" y2="273.5181">
			<stop  offset="0.1499" style="stop-color:#FF9800"/>
			<stop  offset="1" style="stop-color:#FFC107"/>
		</linearGradient>
		<path class="st8" d="M213.36,255.25v-12.09l-54,7.43v9.81l54,43.47v-12.1l-41-31.78v-0.23L213.36,255.25z"/>
		<linearGradient id="SVGID_7_" gradientUnits="userSpaceOnUse" x1="222.2621" y1="275.7628" x2="258.2134" y2="275.7628">
			<stop  offset="0.1499" style="stop-color:#FF9800"/>
			<stop  offset="1" style="stop-color:#FFC107"/>
		</linearGradient>
		<path class="st9" d="M246.68,236.51l-24.42,74.7l11.53,3.8l24.42-74.7L246.68,236.51z"/>
		<linearGradient id="SVGID_8_" gradientUnits="userSpaceOnUse" x1="265.3625" y1="290.3012" x2="319.3625" y2="290.3012">
			<stop  offset="0.1499" style="stop-color:#FF9800"/>
			<stop  offset="1" style="stop-color:#FFC107"/>
		</linearGradient>
		<path class="st10" d="M265.36,259.94v12.1l42,32.08v0.23l-42,4.22v12.09l54-7.09v-10.5L265.36,259.94z"/>
	</g>
	<linearGradient id="SVGID_9_" gradientUnits="userSpaceOnUse" x1="385.6582" y1="416.8074" x2="385.6582" y2="416.8074">
		<stop  offset="0.3984" style="stop-color:#0068FF"/>
		<stop  offset="0.4311" style="stop-color:#007BFF"/>
		<stop  offset="0.4811" style="stop-color:#0091FF"/>
		<stop  offset="0.5401" style="stop-color:#00A2FF"/>
		<stop  offset="0.6131" style="stop-color:#00ADFF"/>
		<stop  offset="0.7156" style="stop-color:#00B4FF"/>
		<stop  offset="1" style="stop-color:#00B6FF"/>
	</linearGradient>
	<path class="st11" d="M385.66,416.81"/>
</g>
</svg>
