<?xml version="1.0" encoding="utf-8"?>
<!-- Generator: Adobe Illustrator 23.0.6, SVG Export Plug-In . SVG Version: 6.00 Build 0)  -->
<svg version="1.1" id="Layer_1" xmlns="http://www.w3.org/2000/svg" xmlns:xlink="http://www.w3.org/1999/xlink" x="0px" y="0px"
	 viewBox="0 0 500 500" style="enable-background:new 0 0 500 500;" xml:space="preserve">
<style type="text/css">
	.st0{fill:#0B3475;}
	.st1{fill:url(#SVGID_1_);}
	.st2{fill:none;}
	.st3{fill:url(#SVGID_2_);}
	.st4{fill:url(#SVGID_3_);}
	.st5{fill:url(#SVGID_4_);}
	.st6{fill:url(#SVGID_5_);}
	.st7{enable-background:new    ;}
	.st8{fill:url(#SVGID_6_);}
	.st9{fill:url(#SVGID_7_);}
	.st10{fill:url(#SVGID_8_);}
	.st11{fill:url(#SVGID_9_);}
	.st12{fill:url(#SVGID_10_);}
	.st13{clip-path:url(#SVGID_12_);enable-background:new    ;}
	.st14{fill:#1896FF;}
	.st15{clip-path:url(#SVGID_14_);enable-background:new    ;}
	.st16{fill:url(#SVGID_15_);}
	.st17{fill:url(#SVGID_16_);}
	.st18{fill:none;stroke:#FFFFFF;stroke-miterlimit:10;}
	.st19{fill:url(#SVGID_17_);}
	.st20{fill:url(#SVGID_18_);}
	.st21{fill:url(#SVGID_19_);}
	.st22{fill:url(#SVGID_20_);}
	.st23{fill:url(#SVGID_21_);}
	.st24{fill:#8BD5E8;}
	.st25{fill:url(#SVGID_22_);}
	.st26{fill:url(#SVGID_23_);}
	.st27{fill:url(#SVGID_24_);}
	.st28{fill:url(#SVGID_25_);}
	.st29{clip-path:url(#SVGID_27_);}
	.st30{clip-path:url(#SVGID_29_);}
	.st31{fill:url(#SVGID_30_);}
	.st32{clip-path:url(#SVGID_32_);}
	.st33{fill:url(#SVGID_33_);}
	.st34{clip-path:url(#SVGID_35_);}
	.st35{fill:url(#SVGID_36_);}
	.st36{clip-path:url(#SVGID_38_);}
	.st37{fill:url(#SVGID_39_);}
	.st38{clip-path:url(#SVGID_41_);}
	.st39{fill:url(#SVGID_42_);}
	.st40{clip-path:url(#SVGID_44_);}
	.st41{fill:url(#SVGID_45_);}
	.st42{clip-path:url(#SVGID_47_);}
	.st43{fill:url(#SVGID_48_);}
	.st44{clip-path:url(#SVGID_50_);}
	.st45{fill:url(#SVGID_51_);}
	.st46{clip-path:url(#SVGID_53_);}
	.st47{fill:url(#SVGID_54_);}
	.st48{clip-path:url(#SVGID_56_);}
	.st49{fill:url(#SVGID_57_);}
	.st50{clip-path:url(#SVGID_59_);}
	.st51{fill:url(#SVGID_60_);}
	.st52{fill:url(#SVGID_61_);}
	.st53{clip-path:url(#SVGID_63_);}
	.st54{fill:url(#SVGID_64_);}
	.st55{clip-path:url(#SVGID_66_);}
	.st56{fill:url(#SVGID_67_);}
	.st57{fill:url(#SVGID_68_);}
	.st58{clip-path:url(#SVGID_70_);}
	.st59{fill:url(#SVGID_71_);}
	.st60{fill:url(#SVGID_72_);}
	.st61{fill:url(#SVGID_73_);}
	.st62{clip-path:url(#SVGID_75_);}
	.st63{fill:url(#SVGID_76_);}
	.st64{clip-path:url(#SVGID_78_);enable-background:new    ;}
	.st65{fill:url(#SVGID_79_);}
	.st66{fill:url(#SVGID_80_);}
	.st67{fill:#945812;}
	.st68{fill:url(#SVGID_81_);}
	.st69{clip-path:url(#SVGID_83_);}
	.st70{fill:url(#SVGID_84_);}
	.st71{clip-path:url(#SVGID_86_);enable-background:new    ;}
	.st72{fill:url(#SVGID_87_);}
	.st73{fill:url(#SVGID_88_);}
	.st74{fill:url(#SVGID_89_);}
	.st75{fill:url(#SVGID_90_);}
	.st76{clip-path:url(#SVGID_92_);enable-background:new    ;}
	.st77{fill:url(#SVGID_93_);}
	.st78{fill:url(#SVGID_94_);}
	.st79{fill:url(#SVGID_95_);}
	.st80{clip-path:url(#SVGID_97_);}
	.st81{fill:url(#SVGID_98_);}
	.st82{clip-path:url(#SVGID_100_);fill:url(#SVGID_101_);}
	.st83{fill:url(#SVGID_102_);}
	.st84{clip-path:url(#SVGID_104_);enable-background:new    ;}
	.st85{fill:#1E5E26;}
	.st86{fill:url(#SVGID_105_);}
	.st87{clip-path:url(#SVGID_107_);}
	.st88{fill:url(#SVGID_108_);}
	.st89{clip-path:url(#SVGID_110_);}
	.st90{fill:url(#SVGID_111_);}
	.st91{clip-path:url(#SVGID_113_);fill:url(#SVGID_114_);}
	.st92{fill:url(#SVGID_115_);}
	.st93{clip-path:url(#SVGID_117_);enable-background:new    ;}
	.st94{fill:url(#SVGID_118_);}
	.st95{clip-path:url(#SVGID_120_);}
	.st96{fill:url(#SVGID_121_);}
	.st97{clip-path:url(#SVGID_123_);}
	.st98{fill:url(#SVGID_124_);}
	.st99{clip-path:url(#SVGID_126_);fill:url(#SVGID_127_);}
	.st100{fill:url(#SVGID_128_);}
	.st101{clip-path:url(#SVGID_130_);enable-background:new    ;}
	.st102{fill:url(#SVGID_131_);}
	.st103{clip-path:url(#SVGID_133_);}
	.st104{fill:url(#SVGID_134_);}
	.st105{clip-path:url(#SVGID_136_);}
	.st106{fill:url(#SVGID_137_);}
	.st107{clip-path:url(#SVGID_139_);fill:url(#SVGID_140_);}
	.st108{fill:url(#SVGID_141_);}
	.st109{clip-path:url(#SVGID_143_);}
	.st110{fill:url(#SVGID_144_);}
	.st111{clip-path:url(#SVGID_146_);}
	.st112{fill:url(#SVGID_147_);}
	.st113{fill:url(#SVGID_148_);}
	.st114{clip-path:url(#SVGID_150_);}
	.st115{fill:url(#SVGID_151_);}
	.st116{clip-path:url(#SVGID_153_);}
	.st117{fill:url(#SVGID_154_);}
	.st118{clip-path:url(#SVGID_156_);}
	.st119{fill:url(#SVGID_157_);}
	.st120{clip-path:url(#SVGID_159_);}
	.st121{fill:url(#SVGID_160_);}
	.st122{clip-path:url(#SVGID_162_);}
	.st123{fill:url(#SVGID_163_);}
	.st124{fill:url(#SVGID_164_);}
	.st125{clip-path:url(#SVGID_166_);}
	.st126{fill:url(#SVGID_167_);}
	.st127{fill:url(#SVGID_168_);}
	.st128{fill:url(#SVGID_169_);}
	.st129{fill:url(#SVGID_170_);}
	.st130{clip-path:url(#SVGID_172_);}
	.st131{fill:url(#SVGID_173_);}
	.st132{fill:url(#SVGID_174_);}
	.st133{clip-path:url(#SVGID_176_);}
	.st134{fill:url(#SVGID_177_);}
	.st135{fill:url(#SVGID_178_);}
	.st136{fill:url(#SVGID_179_);}
	.st137{clip-path:url(#SVGID_181_);}
	.st138{fill:url(#SVGID_182_);}
	.st139{clip-path:url(#SVGID_184_);}
	.st140{fill:url(#SVGID_185_);}
	.st141{fill:url(#SVGID_188_);}
	.st142{fill:#3B322C;}
	.st143{clip-path:url(#SVGID_190_);}
	.st144{fill:url(#SVGID_191_);}
	.st145{fill:url(#SVGID_192_);}
	.st146{fill:url(#SVGID_193_);}
	.st147{fill:url(#SVGID_194_);}
	.st148{clip-path:url(#SVGID_196_);}
	.st149{fill:url(#SVGID_197_);}
	.st150{fill:url(#SVGID_200_);}
	.st151{fill:#004A23;}
	.st152{clip-path:url(#SVGID_202_);}
	.st153{fill:url(#SVGID_203_);}
	.st154{fill:url(#SVGID_204_);}
</style>
<g>
	<rect x="-16.8" y="-24.8" class="st0" width="533.8" height="533.8"/>
	<g>
		<polygon class="st18" points="382.67,203.23 127.5,119.25 127.5,119.24 		"/>
		<linearGradient id="SVGID_1_" gradientUnits="userSpaceOnUse" x1="423.8706" y1="334.6118" x2="217.5228" y2="156.2213">
			<stop  offset="0.3984" style="stop-color:#0068FF"/>
			<stop  offset="0.4311" style="stop-color:#007BFF"/>
			<stop  offset="0.4811" style="stop-color:#0091FF"/>
			<stop  offset="0.5401" style="stop-color:#00A2FF"/>
			<stop  offset="0.6131" style="stop-color:#00ADFF"/>
			<stop  offset="0.7156" style="stop-color:#00B4FF"/>
			<stop  offset="1" style="stop-color:#00B6FF"/>
		</linearGradient>
		<path class="st1" d="M394.65,411.48c3.1-1.24,5.14-4.24,5.14-7.58V196.88c0-6.67-4.3-12.57-10.65-14.61l-245.7-78.96
			c-3.44-1.11-7.2-0.59-10.22,1.4c-13.25,8.77-20.13,12.01-20.13,12.01l-3.38,9.54l17.37-7.02l243.75,80.23
			c6.81,2.24,11.42,8.61,11.42,15.78v191.44c0,7.47-4.88,11.67-4.88,11.67L394.65,411.48z"/>
		<linearGradient id="SVGID_2_" gradientUnits="userSpaceOnUse" x1="109.5537" y1="267.5775" x2="382.2578" y2="267.5775">
			<stop  offset="0" style="stop-color:#0068FF"/>
			<stop  offset="1" style="stop-color:#00B6FF"/>
		</linearGradient>
		<path class="st3" d="M127.31,119.25l-0.14-0.01l-8.99-2.95c-4.25-1.39-8.62,1.77-8.62,6.25v200.78c0,5.62,3.61,10.6,8.94,12.36
			l252.39,83.07c5.6,1.84,11.37-2.33,11.37-8.23v-196.2c0-6.62-4.25-12.5-10.54-14.57L127.31,119.25z M194.44,154.54
			c5.56,1.83,10.06,7.81,10.06,13.37c0,5.55-4.5,8.58-10.06,6.74c-5.55-1.82-10.06-7.8-10.06-13.36
			C184.39,155.74,188.89,152.72,194.44,154.54z M166.28,145.28c5.56,1.82,10.06,7.81,10.06,13.36c0,5.56-4.5,8.58-10.06,6.75
			c-5.55-1.83-10.06-7.81-10.06-13.37C156.22,146.48,160.73,143.45,166.28,145.28z M138.12,136.01c5.55,1.82,10.06,7.81,10.06,13.36
			c0,5.56-4.51,8.58-10.06,6.75c-5.56-1.83-10.06-7.81-10.06-13.37C128.06,137.21,132.56,134.18,138.12,136.01z M364.72,397.35
			l-237.63-78.1V163.14l237.63,78.11V397.35z"/>
		<linearGradient id="SVGID_3_" gradientUnits="userSpaceOnUse" x1="128.0642" y1="146.0706" x2="148.1794" y2="146.0706">
			<stop  offset="0.1499" style="stop-color:#FF9800"/>
			<stop  offset="1" style="stop-color:#FFC107"/>
		</linearGradient>
		<path class="st4" d="M148.18,149.38c0,5.56-4.51,8.58-10.06,6.75c-5.56-1.83-10.06-7.81-10.06-13.37c0-5.55,4.5-8.58,10.06-6.74
			C143.67,137.84,148.18,143.83,148.18,149.38z"/>
		<linearGradient id="SVGID_4_" gradientUnits="userSpaceOnUse" x1="156.2202" y1="155.339" x2="176.3354" y2="155.339">
			<stop  offset="0.1499" style="stop-color:#FF9800"/>
			<stop  offset="1" style="stop-color:#FFC107"/>
		</linearGradient>
		<path class="st5" d="M176.34,158.65c0,5.56-4.5,8.58-10.06,6.75c-5.55-1.83-10.06-7.81-10.06-13.37c0-5.55,4.51-8.58,10.06-6.74
			C171.84,147.11,176.34,153.1,176.34,158.65z"/>
		<linearGradient id="SVGID_5_" gradientUnits="userSpaceOnUse" x1="184.3851" y1="164.6021" x2="204.5003" y2="164.6021">
			<stop  offset="0.1499" style="stop-color:#FF9800"/>
			<stop  offset="1" style="stop-color:#FFC107"/>
		</linearGradient>
		<path class="st6" d="M204.5,167.91c0,5.55-4.5,8.58-10.06,6.74c-5.55-1.82-10.06-7.8-10.06-13.36c0-5.56,4.51-8.58,10.06-6.75
			C200,156.38,204.5,162.36,204.5,167.91z"/>
		<path class="st24" d="M127,163.14v156.11l238,78.1v-156.1L127,163.14z"/>
		<g>
			<linearGradient id="SVGID_6_" gradientUnits="userSpaceOnUse" x1="164" y1="279.8772" x2="218" y2="279.8772">
				<stop  offset="0.1499" style="stop-color:#FF9800"/>
				<stop  offset="1" style="stop-color:#FFC107"/>
			</linearGradient>
			<path class="st8" d="M218,261.61v-12.09l-54,7.43v9.81l54,43.47v-12.1l-41-31.78v-0.23L218,261.61z"/>
			<linearGradient id="SVGID_7_" gradientUnits="userSpaceOnUse" x1="226.8996" y1="282.1219" x2="262.8509" y2="282.1219">
				<stop  offset="0.1499" style="stop-color:#FF9800"/>
				<stop  offset="1" style="stop-color:#FFC107"/>
			</linearGradient>
			<path class="st9" d="M251.32,242.87l-24.42,74.7l11.53,3.8l24.42-74.7L251.32,242.87z"/>
			<linearGradient id="SVGID_8_" gradientUnits="userSpaceOnUse" x1="270" y1="296.6603" x2="324" y2="296.6603">
				<stop  offset="0.1499" style="stop-color:#FF9800"/>
				<stop  offset="1" style="stop-color:#FFC107"/>
			</linearGradient>
			<path class="st10" d="M270,266.3v12.1l42,32.08v0.23l-42,4.22v12.09l54-7.09v-10.5L270,266.3z"/>
		</g>
	</g>
</g>
</svg>
