<?xml version="1.0" encoding="utf-8"?>
<!-- Generator: Adobe Illustrator 23.0.6, SVG Export Plug-In . SVG Version: 6.00 Build 0)  -->
<svg version="1.1" id="Layer_1" xmlns="http://www.w3.org/2000/svg" xmlns:xlink="http://www.w3.org/1999/xlink" x="0px" y="0px"
	 viewBox="0 0 500 500" style="enable-background:new 0 0 500 500;" xml:space="preserve">
<style type="text/css">
	.st0{fill:#0B3475;}
	.st1{fill:url(#SVGID_1_);}
	.st2{fill:none;}
	.st3{fill:url(#SVGID_2_);}
	.st4{fill:url(#SVGID_3_);}
	.st5{fill:url(#SVGID_4_);}
	.st6{fill:url(#SVGID_5_);}
	.st7{enable-background:new    ;}
	.st8{fill:url(#SVGID_6_);}
	.st9{fill:url(#SVGID_7_);}
	.st10{fill:url(#SVGID_8_);}
	.st11{fill:url(#SVGID_9_);}
	.st12{fill:url(#SVGID_10_);}
	.st13{clip-path:url(#SVGID_12_);enable-background:new    ;}
	.st14{fill:#1896FF;}
	.st15{clip-path:url(#SVGID_14_);enable-background:new    ;}
	.st16{fill:url(#SVGID_15_);}
	.st17{fill:url(#SVGID_16_);}
	.st18{fill:none;stroke:#FFFFFF;stroke-miterlimit:10;}
	.st19{fill:url(#SVGID_17_);}
	.st20{fill:url(#SVGID_18_);}
	.st21{fill:url(#SVGID_19_);}
	.st22{fill:url(#SVGID_20_);}
	.st23{fill:url(#SVGID_21_);}
	.st24{fill:#8BD5E8;}
	.st25{fill:url(#SVGID_22_);}
	.st26{fill:url(#SVGID_23_);}
	.st27{fill:url(#SVGID_24_);}
	.st28{fill:url(#SVGID_25_);}
	.st29{clip-path:url(#SVGID_27_);}
	.st30{clip-path:url(#SVGID_29_);}
	.st31{fill:url(#SVGID_30_);}
	.st32{clip-path:url(#SVGID_32_);}
	.st33{fill:url(#SVGID_33_);}
	.st34{clip-path:url(#SVGID_35_);}
	.st35{fill:url(#SVGID_36_);}
	.st36{clip-path:url(#SVGID_38_);}
	.st37{fill:url(#SVGID_39_);}
	.st38{clip-path:url(#SVGID_41_);}
	.st39{fill:url(#SVGID_42_);}
	.st40{clip-path:url(#SVGID_44_);}
	.st41{fill:url(#SVGID_45_);}
	.st42{clip-path:url(#SVGID_47_);}
	.st43{fill:url(#SVGID_48_);}
	.st44{clip-path:url(#SVGID_50_);}
	.st45{fill:url(#SVGID_51_);}
	.st46{clip-path:url(#SVGID_53_);}
	.st47{fill:url(#SVGID_54_);}
	.st48{clip-path:url(#SVGID_56_);}
	.st49{fill:url(#SVGID_57_);}
	.st50{clip-path:url(#SVGID_59_);}
	.st51{fill:url(#SVGID_60_);}
	.st52{fill:url(#SVGID_61_);}
	.st53{clip-path:url(#SVGID_63_);}
	.st54{fill:url(#SVGID_64_);}
	.st55{clip-path:url(#SVGID_66_);}
	.st56{fill:url(#SVGID_67_);}
	.st57{fill:url(#SVGID_68_);}
	.st58{clip-path:url(#SVGID_70_);}
	.st59{fill:url(#SVGID_71_);}
	.st60{fill:url(#SVGID_72_);}
	.st61{fill:url(#SVGID_73_);}
	.st62{clip-path:url(#SVGID_75_);}
	.st63{fill:url(#SVGID_76_);}
	.st64{clip-path:url(#SVGID_78_);enable-background:new    ;}
	.st65{fill:url(#SVGID_79_);}
	.st66{fill:url(#SVGID_80_);}
	.st67{fill:#945812;}
	.st68{fill:url(#SVGID_81_);}
	.st69{clip-path:url(#SVGID_83_);}
	.st70{fill:url(#SVGID_84_);}
	.st71{clip-path:url(#SVGID_86_);enable-background:new    ;}
	.st72{fill:url(#SVGID_87_);}
	.st73{fill:url(#SVGID_88_);}
	.st74{fill:url(#SVGID_89_);}
	.st75{fill:url(#SVGID_90_);}
	.st76{clip-path:url(#SVGID_92_);enable-background:new    ;}
	.st77{fill:url(#SVGID_93_);}
	.st78{fill:url(#SVGID_94_);}
	.st79{fill:url(#SVGID_95_);}
	.st80{clip-path:url(#SVGID_97_);}
	.st81{fill:url(#SVGID_98_);}
	.st82{clip-path:url(#SVGID_100_);fill:url(#SVGID_101_);}
	.st83{fill:url(#SVGID_102_);}
	.st84{clip-path:url(#SVGID_104_);enable-background:new    ;}
	.st85{fill:#1E5E26;}
	.st86{fill:url(#SVGID_105_);}
	.st87{clip-path:url(#SVGID_107_);}
	.st88{fill:url(#SVGID_108_);}
	.st89{clip-path:url(#SVGID_110_);}
	.st90{fill:url(#SVGID_111_);}
	.st91{clip-path:url(#SVGID_113_);fill:url(#SVGID_114_);}
	.st92{fill:url(#SVGID_115_);}
	.st93{clip-path:url(#SVGID_117_);enable-background:new    ;}
	.st94{fill:url(#SVGID_118_);}
	.st95{clip-path:url(#SVGID_120_);}
	.st96{fill:url(#SVGID_121_);}
	.st97{clip-path:url(#SVGID_123_);}
	.st98{fill:url(#SVGID_124_);}
	.st99{clip-path:url(#SVGID_126_);fill:url(#SVGID_127_);}
	.st100{fill:url(#SVGID_128_);}
	.st101{clip-path:url(#SVGID_130_);enable-background:new    ;}
	.st102{fill:url(#SVGID_131_);}
	.st103{clip-path:url(#SVGID_133_);}
	.st104{fill:url(#SVGID_134_);}
	.st105{clip-path:url(#SVGID_136_);}
	.st106{fill:url(#SVGID_137_);}
	.st107{clip-path:url(#SVGID_139_);fill:url(#SVGID_140_);}
	.st108{fill:url(#SVGID_141_);}
	.st109{clip-path:url(#SVGID_143_);}
	.st110{fill:url(#SVGID_144_);}
	.st111{clip-path:url(#SVGID_146_);}
	.st112{fill:url(#SVGID_147_);}
	.st113{fill:url(#SVGID_148_);}
	.st114{clip-path:url(#SVGID_150_);}
	.st115{fill:url(#SVGID_151_);}
	.st116{clip-path:url(#SVGID_153_);}
	.st117{fill:url(#SVGID_154_);}
	.st118{clip-path:url(#SVGID_156_);}
	.st119{fill:url(#SVGID_157_);}
	.st120{clip-path:url(#SVGID_159_);}
	.st121{fill:url(#SVGID_160_);}
	.st122{clip-path:url(#SVGID_162_);}
	.st123{fill:url(#SVGID_163_);}
	.st124{fill:url(#SVGID_164_);}
	.st125{clip-path:url(#SVGID_166_);}
	.st126{fill:url(#SVGID_167_);}
	.st127{fill:url(#SVGID_168_);}
	.st128{fill:url(#SVGID_169_);}
	.st129{fill:url(#SVGID_170_);}
	.st130{clip-path:url(#SVGID_172_);}
	.st131{fill:url(#SVGID_173_);}
	.st132{fill:url(#SVGID_174_);}
	.st133{clip-path:url(#SVGID_176_);}
	.st134{fill:url(#SVGID_177_);}
	.st135{fill:url(#SVGID_178_);}
	.st136{fill:url(#SVGID_179_);}
	.st137{clip-path:url(#SVGID_181_);}
	.st138{fill:url(#SVGID_182_);}
	.st139{clip-path:url(#SVGID_184_);}
	.st140{fill:url(#SVGID_185_);}
	.st141{fill:url(#SVGID_188_);}
	.st142{fill:#3B322C;}
	.st143{clip-path:url(#SVGID_190_);}
	.st144{fill:url(#SVGID_191_);}
	.st145{fill:url(#SVGID_192_);}
	.st146{fill:url(#SVGID_193_);}
	.st147{fill:url(#SVGID_194_);}
	.st148{clip-path:url(#SVGID_196_);}
	.st149{fill:url(#SVGID_197_);}
	.st150{fill:url(#SVGID_200_);}
	.st151{fill:#004A23;}
	.st152{clip-path:url(#SVGID_202_);}
	.st153{fill:url(#SVGID_203_);}
	.st154{fill:url(#SVGID_204_);}
</style>
<g>
	<rect x="-14.26" y="-24.2" class="st0" width="533.8" height="533.8"/>
	<g>
		<g class="st7">
			<g class="st7">
				<defs>
					<path id="SVGID_142_" class="st7" d="M176.1,329.14l17.41-8.35c-3.08,1.48-5.87,3.49-8.19,6c-0.64,0.69-1.37,1.23-2.16,1.61
						l-17.41,8.35c0.79-0.38,1.53-0.92,2.16-1.61C170.22,332.63,173.02,330.61,176.1,329.14z"/>
				</defs>
				<clipPath id="SVGID_1_">
					<use xlink:href="#SVGID_142_"  style="overflow:visible;"/>
				</clipPath>
				<g style="clip-path:url(#SVGID_1_);">
					<linearGradient id="SVGID_2_" gradientUnits="userSpaceOnUse" x1="165.7466" y1="328.7692" x2="193.5095" y2="328.7692">
						<stop  offset="0" style="stop-color:#0068FF"/>
						<stop  offset="1" style="stop-color:#00B6FF"/>
					</linearGradient>
					<path class="st3" d="M176.1,329.14l17.41-8.35c-3.08,1.48-5.87,3.49-8.19,6c-0.64,0.69-1.37,1.23-2.16,1.61l-17.41,8.35
						c0.79-0.38,1.53-0.92,2.16-1.61C170.22,332.63,173.02,330.61,176.1,329.14"/>
				</g>
			</g>
			<g class="st7">
				<defs>
					<path id="SVGID_145_" class="st7" d="M110.55,194.56l17.41-8.35c1.09-0.52,2.37-0.77,3.78-0.67
						c6.13,0.43,11.87-0.67,16.79-3.02l-17.41,8.35c-4.92,2.36-10.66,3.46-16.79,3.02C112.92,193.79,111.64,194.03,110.55,194.56z"
						/>
				</defs>
				<clipPath id="SVGID_3_">
					<use xlink:href="#SVGID_145_"  style="overflow:visible;"/>
				</clipPath>
				<g style="clip-path:url(#SVGID_3_);">
					<linearGradient id="SVGID_4_" gradientUnits="userSpaceOnUse" x1="110.5486" y1="188.5364" x2="148.5263" y2="188.5364">
						<stop  offset="0" style="stop-color:#0068FF"/>
						<stop  offset="1" style="stop-color:#00B6FF"/>
					</linearGradient>
					<path class="st5" d="M110.55,194.56l17.41-8.35c1.09-0.52,2.37-0.77,3.78-0.67c6.13,0.43,11.87-0.67,16.79-3.02l-17.41,8.35
						c-4.92,2.36-10.66,3.46-16.79,3.02C112.92,193.79,111.64,194.03,110.55,194.56"/>
				</g>
			</g>
			<g>
				<linearGradient id="SVGID_5_" gradientUnits="userSpaceOnUse" x1="220.4543" y1="301.0136" x2="201.1209" y2="301.347">
					<stop  offset="0" style="stop-color:#0068FF"/>
					<stop  offset="1" style="stop-color:#00B6FF"/>
				</linearGradient>
				<polygon class="st6" points="202.86,281.06 220.27,272.72 220.11,321.27 202.7,329.62 				"/>
			</g>
			<g class="st7">
				<defs>
					<path id="SVGID_149_" class="st7" d="M213.74,162.06l17.41-8.35c-21.77,10.44-36.74,33.28-36.84,60.74
						c-0.08,22.93,10.07,44.07,25.96,58.26l-17.41,8.35c-15.89-14.19-26.04-35.33-25.96-58.26
						C177,195.34,191.97,172.5,213.74,162.06z"/>
				</defs>
				<clipPath id="SVGID_6_">
					<use xlink:href="#SVGID_149_"  style="overflow:visible;"/>
				</clipPath>
				<g style="clip-path:url(#SVGID_6_);">
					<linearGradient id="SVGID_7_" gradientUnits="userSpaceOnUse" x1="199.2188" y1="217.1144" x2="177.5521" y2="216.7811">
						<stop  offset="0" style="stop-color:#0068FF"/>
						<stop  offset="1" style="stop-color:#00B6FF"/>
					</linearGradient>
					<path class="st9" d="M213.74,162.06l17.41-8.35c-21.77,10.44-36.74,33.28-36.84,60.74c-0.08,22.93,10.07,44.07,25.96,58.26
						l-17.41,8.35c-15.89-14.19-26.04-35.33-25.96-58.26C177,195.34,191.97,172.5,213.74,162.06"/>
				</g>
			</g>
			<g class="st7">
				<defs>
					<path id="SVGID_152_" class="st7" d="M160.4,105.48l17.41-8.35c1.13-0.54,2.36-0.76,3.59-0.67c2.11,0.15,4.22,1.2,5.74,3.07
						c5.77,7.09,14.73,11.49,23.51,12.1c3.79,0.26,7.54-0.18,10.98-1.41c0.89-0.32,1.75-0.68,2.59-1.08l-17.41,8.35
						c-0.84,0.4-1.7,0.76-2.59,1.08c-3.44,1.23-7.2,1.67-10.98,1.41c-8.77-0.61-17.74-5.01-23.51-12.1
						c-1.52-1.87-3.62-2.92-5.74-3.07C162.77,104.72,161.53,104.94,160.4,105.48z"/>
				</defs>
				<clipPath id="SVGID_8_">
					<use xlink:href="#SVGID_152_"  style="overflow:visible;"/>
				</clipPath>
				<g style="clip-path:url(#SVGID_8_);">
					<linearGradient id="SVGID_9_" gradientUnits="userSpaceOnUse" x1="160.4035" y1="108.2465" x2="224.2323" y2="108.2465">
						<stop  offset="0" style="stop-color:#0068FF"/>
						<stop  offset="1" style="stop-color:#00B6FF"/>
					</linearGradient>
					<path class="st11" d="M160.4,105.48l17.41-8.35c1.13-0.54,2.36-0.76,3.59-0.67c2.11,0.15,4.22,1.2,5.74,3.07
						c5.77,7.09,14.73,11.49,23.51,12.1c3.79,0.26,7.54-0.18,10.98-1.41c0.89-0.32,1.75-0.68,2.59-1.08l-17.41,8.35
						c-0.84,0.4-1.7,0.76-2.59,1.08c-3.44,1.23-7.2,1.67-10.98,1.41c-8.77-0.61-17.74-5.01-23.51-12.1
						c-1.52-1.87-3.62-2.92-5.74-3.07C162.77,104.72,161.53,104.94,160.4,105.48"/>
				</g>
			</g>
			<g class="st7">
				<defs>
					<path id="SVGID_155_" class="st7" d="M227.55,81.64l17.41-8.35c0.85-0.41,1.79-0.65,2.8-0.7c5.21-0.24,10.43,0.06,15.64,0.42
						L246,81.36c-5.21-0.36-10.44-0.66-15.64-0.42C229.35,80.99,228.4,81.23,227.55,81.64z"/>
				</defs>
				<clipPath id="SVGID_10_">
					<use xlink:href="#SVGID_155_"  style="overflow:visible;"/>
				</clipPath>
				<g style="clip-path:url(#SVGID_10_);">
					<linearGradient id="SVGID_12_" gradientUnits="userSpaceOnUse" x1="196.7515" y1="67.895" x2="243.2515" y2="76.895">
						<stop  offset="0" style="stop-color:#0068FF"/>
						<stop  offset="1" style="stop-color:#00B6FF"/>
					</linearGradient>
					<path style="fill:url(#SVGID_12_);" d="M227.55,81.64l17.41-8.35c0.85-0.41,1.79-0.65,2.8-0.7c5.21-0.24,10.43,0.06,15.64,0.42
						L246,81.36c-5.21-0.36-10.44-0.66-15.64-0.42C229.35,80.99,228.4,81.23,227.55,81.64"/>
				</g>
			</g>
			<g class="st7">
				<defs>
					<path id="SVGID_158_" class="st7" d="M359.22,263.14l17.41-8.35c-6.29,3.01-11.45,8.3-14.26,15.11
						c-5.09,12.26-1.99,27.15,7.69,37.05c3.03,3.11,3.37,8,0.79,11.18c-6.66,8.2-14.27,15.55-22.64,21.83
						c-0.37,0.28-0.76,0.51-1.17,0.7l-17.41,8.35c0.4-0.19,0.8-0.43,1.17-0.7c8.37-6.28,15.98-13.63,22.64-21.83
						c2.58-3.18,2.24-8.07-0.79-11.18c-9.68-9.9-12.78-24.8-7.69-37.05C347.77,271.44,352.93,266.15,359.22,263.14z"/>
				</defs>
				<clipPath id="SVGID_14_">
					<use xlink:href="#SVGID_158_"  style="overflow:visible;"/>
				</clipPath>
				<g style="clip-path:url(#SVGID_14_);">
					<linearGradient id="SVGID_15_" gradientUnits="userSpaceOnUse" x1="329.6201" y1="301.9017" x2="376.6295" y2="301.9017">
						<stop  offset="0" style="stop-color:#0068FF"/>
						<stop  offset="1" style="stop-color:#00B6FF"/>
					</linearGradient>
					<path class="st16" d="M359.22,263.14l17.41-8.35c-6.29,3.01-11.45,8.3-14.26,15.11c-5.09,12.26-1.99,27.15,7.69,37.05
						c3.03,3.11,3.37,8,0.79,11.18c-6.66,8.2-14.27,15.55-22.64,21.83c-0.37,0.28-0.76,0.51-1.17,0.7l-17.41,8.35
						c0.4-0.19,0.8-0.43,1.17-0.7c8.37-6.28,15.98-13.63,22.64-21.83c2.58-3.18,2.24-8.07-0.79-11.18
						c-9.68-9.9-12.78-24.8-7.69-37.05C347.77,271.44,352.93,266.15,359.22,263.14"/>
				</g>
			</g>
			<g class="st7">
				<defs>
					<path id="SVGID_161_" class="st7" d="M331.38,116.95l-17.41,8.35c-4.71,2.26-10.11,3.27-15.44,2.9
						c-3.88-0.27-7.73-1.28-11.25-3.07c-11.99-6.14-19.52-19.44-18.73-33.09c0.26-4.29-2.72-8.03-6.81-8.81
						c-5.19-0.99-10.42-1.49-15.73-1.86l17.41-8.35c5.32,0.37,10.54,0.87,15.73,1.86c4.09,0.78,7.07,4.52,6.81,8.81
						c-0.79,13.65,6.74,26.95,18.73,33.09c3.53,1.79,7.37,2.8,11.25,3.07C321.28,120.22,326.67,119.21,331.38,116.95z"/>
				</defs>
				<clipPath id="SVGID_16_">
					<use xlink:href="#SVGID_161_"  style="overflow:visible;"/>
				</clipPath>
				<g style="clip-path:url(#SVGID_16_);">
					<linearGradient id="SVGID_17_" gradientUnits="userSpaceOnUse" x1="310.2336" y1="123.2658" x2="276.7336" y2="88.5158">
						<stop  offset="0" style="stop-color:#0068FF"/>
						<stop  offset="1" style="stop-color:#00B6FF"/>
					</linearGradient>
					<path class="st19" d="M246,81.36l17.41-8.35c5.32,0.37,10.54,0.87,15.73,1.86c4.09,0.78,7.07,4.52,6.81,8.81
						c-0.79,13.65,6.74,26.95,18.73,33.09c3.53,1.79,7.37,2.8,11.25,3.07c5.33,0.37,10.73-0.64,15.44-2.9l-17.41,8.35
						c-4.71,2.26-10.11,3.27-15.44,2.9c-3.88-0.27-7.73-1.28-11.25-3.07c-11.99-6.14-19.52-19.44-18.73-33.09
						c0.26-4.29-2.72-8.03-6.81-8.81C256.54,82.23,251.32,81.73,246,81.36"/>
				</g>
			</g>
			<g>
				<linearGradient id="SVGID_18_" gradientUnits="userSpaceOnUse" x1="113.5" y1="215.2844" x2="380.7265" y2="215.2844">
					<stop  offset="0" style="stop-color:#0068FF"/>
					<stop  offset="1" style="stop-color:#00B6FF"/>
				</linearGradient>
				<path class="st20" d="M246,81.36c5.32,0.37,10.54,0.87,15.73,1.86c4.09,0.78,7.07,4.52,6.81,8.81
					c-0.79,13.65,6.74,26.95,18.73,33.09c3.53,1.79,7.37,2.8,11.25,3.07c8.79,0.61,17.76-2.54,23.55-8.84
					c1.53-1.67,3.65-2.43,5.77-2.28c1.71,0.12,3.42,0.83,4.83,2.12c8.09,7.39,15.5,15.79,22.02,24.96c2.5,3.51,2.11,8.31-0.89,10.97
					c-9.56,8.51-12.74,22.83-7.92,35.64c4.72,12.52,16.03,21.18,28.8,22.07c3.96,0.28,8.51,3.69,8.94,7.83
					c1.14,11.17,1.09,22.36-0.18,33.28c-0.47,4.05-3.84,6.94-7.61,6.67l-2.29-0.24c-12.33-0.86-23.82,6.31-28.59,17.85
					c-5.09,12.26-1.99,27.15,7.69,37.05c3.03,3.11,3.37,8,0.79,11.18c-6.66,8.2-14.27,15.55-22.64,21.83
					c-1.42,1.05-3.11,1.5-4.79,1.39c-2.11-0.15-4.2-1.19-5.73-3.05c-5.76-7.06-14.68-11.44-23.43-12.05
					c-3.34-0.23-6.67,0.08-9.78,1.01l0.17-49.08c15.05-12.05,25.92-31.51,26-54.19c0.14-39.4-30.35-73.58-67.89-76.21
					c-37.53-2.62-68.3,27.27-68.44,66.68c-0.08,22.93,10.07,44.07,25.96,58.26l-0.17,48.56c-3.76-2.06-7.59-3.07-11.44-3.34
					c-8.7-0.61-17.54,2.56-23.35,8.86c-1.54,1.67-3.65,2.43-5.76,2.28c-1.71-0.12-3.43-0.83-4.85-2.14
					c-8.12-7.45-15.53-15.85-21.97-24.96c-2.51-3.52-2.11-8.3,0.88-10.96c9.56-8.52,12.75-22.83,7.92-35.65
					c-4.76-12.59-16.02-21.19-27.91-22.02c-4.71-0.32-9.4-3.71-9.83-7.88c-0.56-5.57-0.83-11.14-0.81-16.68
					c0.02-5.64,0.36-11.15,0.99-16.59c0.48-4.09,3.51-6.95,7.77-6.65c13.93,0.98,25.86-5.94,30.71-17.63
					c5.09-12.26,2.01-27.15-7.67-37.06c-3.01-3.1-3.37-7.99-0.79-11.18c6.63-8.18,14.26-15.52,22.64-21.82
					c1.41-1.06,3.1-1.51,4.78-1.39c2.11,0.15,4.22,1.2,5.74,3.07c5.77,7.09,14.73,11.49,23.51,12.1c3.79,0.26,7.54-0.18,10.98-1.41
					c11.9-4.29,19.61-16.24,19.2-29.84c-0.12-4.26,2.9-7.6,6.93-7.79C235.57,80.7,240.79,81,246,81.36z"/>
			</g>
			<g class="st7">
				<defs>
					<path id="SVGID_165_" class="st7" d="M324.24,117.76l17.41-8.35c1.13-0.54,2.37-0.77,3.62-0.68c1.71,0.12,3.42,0.83,4.83,2.12
						c8.09,7.39,15.5,15.79,22.02,24.96c2.5,3.51,2.11,8.31-0.89,10.97c-9.56,8.51-12.74,22.83-7.92,35.64
						c4.72,12.52,16.03,21.18,28.8,22.07c3.96,0.28,8.51,3.69,8.94,7.83c1.14,11.17,1.09,22.36-0.18,33.28
						c-0.32,2.75-1.97,4.96-4.18,6.02l-17.41,8.35c2.21-1.06,3.86-3.27,4.18-6.02c1.27-10.92,1.32-22.11,0.18-33.28
						c-0.43-4.14-4.99-7.56-8.94-7.83c-12.77-0.89-24.08-9.56-28.8-22.07c-4.82-12.82-1.64-27.13,7.92-35.64
						c3-2.66,3.39-7.46,0.89-10.97c-6.52-9.18-13.92-17.57-22.02-24.96c-1.41-1.29-3.12-2-4.83-2.12
						C326.61,116.99,325.36,117.22,324.24,117.76z"/>
				</defs>
				<clipPath id="SVGID_19_">
					<use xlink:href="#SVGID_165_"  style="overflow:visible;"/>
				</clipPath>
				<g style="clip-path:url(#SVGID_19_);">
					<linearGradient id="SVGID_20_" gradientUnits="userSpaceOnUse" x1="324.2358" y1="184.3476" x2="401.8586" y2="184.3476">
						<stop  offset="0" style="stop-color:#0068FF"/>
						<stop  offset="1" style="stop-color:#00B6FF"/>
					</linearGradient>
					<path class="st22" d="M324.24,117.76l17.41-8.35c1.13-0.54,2.37-0.77,3.62-0.68c1.71,0.12,3.42,0.83,4.83,2.12
						c8.09,7.39,15.5,15.79,22.02,24.96c2.5,3.51,2.11,8.31-0.89,10.97c-9.56,8.51-12.74,22.83-7.92,35.64
						c4.72,12.52,16.03,21.18,28.8,22.07c3.96,0.28,8.51,3.69,8.94,7.83c1.14,11.17,1.09,22.36-0.18,33.28
						c-0.32,2.75-1.97,4.96-4.18,6.02l-17.41,8.35c2.21-1.06,3.86-3.27,4.18-6.02c1.27-10.92,1.32-22.11,0.18-33.28
						c-0.43-4.14-4.99-7.56-8.94-7.83c-12.77-0.89-24.08-9.56-28.8-22.07c-4.82-12.82-1.64-27.13,7.92-35.64
						c3-2.66,3.39-7.46,0.89-10.97c-6.52-9.18-13.92-17.57-22.02-24.96c-1.41-1.29-3.12-2-4.83-2.12
						C326.61,116.99,325.36,117.22,324.24,117.76"/>
				</g>
			</g>
		</g>
	</g>
	<g>
		<g class="st7">
			<path class="st2" d="M273.42,433.01l-17.41,8.35c7.34-3.52,12.36-11.22,12.39-20.51l17.41-8.35
				C285.78,421.79,280.76,429.49,273.42,433.01z"/>
			<g>
				<linearGradient id="SVGID_21_" gradientUnits="userSpaceOnUse" x1="252.5085" y1="195.5007" x2="219.5085" y2="200.8341">
					<stop  offset="0.1499" style="stop-color:#FF9800"/>
					<stop  offset="1" style="stop-color:#FFC107"/>
				</linearGradient>
				<polygon class="st23" points="223.28,181.02 240.69,172.68 240.54,216.64 223.13,224.98 				"/>
			</g>
			<linearGradient id="SVGID_22_" gradientUnits="userSpaceOnUse" x1="266" y1="352.9955" x2="290.5204" y2="352.9955">
				<stop  offset="0.1499" style="stop-color:#FF9800"/>
				<stop  offset="1" style="stop-color:#FFC107"/>
			</linearGradient>
			<path class="st25" d="M268.91,272.98l-0.51,147.87c-0.03,9.28-5.06,16.99-12.39,20.51l17.41-8.35
				c7.34-3.52,12.36-11.22,12.39-20.51l0.51-147.87L268.91,272.98z"/>
			<g>
				<linearGradient id="SVGID_23_" gradientUnits="userSpaceOnUse" x1="265.2521" y1="213.9256" x2="243.9187" y2="231.259">
					<stop  offset="0.1499" style="stop-color:#FF9800"/>
					<stop  offset="1" style="stop-color:#FFC107"/>
				</linearGradient>
				<polygon class="st26" points="223.13,224.98 240.54,216.64 286.48,219.85 269.06,228.2 				"/>
			</g>
			<g class="st7">
				<defs>
					<path id="SVGID_171_" class="st7" d="M269.22,184.24l17.41-8.35c14.96,9.63,25.06,26.96,25,46.05
						c-0.07,19.21-10.27,35.21-25.3,42.7l-17.41,8.35c15.03-7.49,25.24-23.48,25.3-42.7C294.28,211.19,284.18,193.86,269.22,184.24z
						"/>
				</defs>
				<clipPath id="SVGID_24_">
					<use xlink:href="#SVGID_171_"  style="overflow:visible;"/>
				</clipPath>
				<g style="clip-path:url(#SVGID_24_);">
					<linearGradient id="SVGID_25_" gradientUnits="userSpaceOnUse" x1="294.9099" y1="223.7487" x2="328.2433" y2="222.4154">
						<stop  offset="0.1499" style="stop-color:#FF9800"/>
						<stop  offset="1" style="stop-color:#FFC107"/>
					</linearGradient>
					<path class="st28" d="M269.22,184.24l17.41-8.35c14.96,9.63,25.06,26.96,25,46.05c-0.07,19.21-10.27,35.21-25.3,42.7
						l-17.41,8.35c15.03-7.49,25.24-23.48,25.3-42.7C294.28,211.19,284.18,193.86,269.22,184.24"/>
				</g>
			</g>
			<g>
				<linearGradient id="SVGID_27_" gradientUnits="userSpaceOnUse" x1="198.1281" y1="312.2162" x2="294.2136" y2="312.2162">
					<stop  offset="0.1499" style="stop-color:#FF9800"/>
					<stop  offset="1" style="stop-color:#FFC107"/>
				</linearGradient>
				<path style="fill:url(#SVGID_27_);" d="M269.22,184.24c14.96,9.63,25.06,26.96,25,46.05c-0.07,19.21-10.27,35.21-25.3,42.7
					l-0.51,147.87c-0.05,13.32-10.37,23.39-23.06,22.5c-12.68-0.89-22.93-12.4-22.88-25.72l0.51-148.03
					c-14.87-9.63-24.91-26.95-24.85-46.05c0.07-19.09,10.22-35,25.15-42.54l-0.15,43.96l45.94,3.21L269.22,184.24z"/>
			</g>
		</g>
	</g>
</g>
</svg>
