<?xml version="1.0" encoding="utf-8"?>
<!-- Generator: Adobe Illustrator 23.0.6, SVG Export Plug-In . SVG Version: 6.00 Build 0)  -->
<svg version="1.1" id="Layer_1" xmlns="http://www.w3.org/2000/svg" xmlns:xlink="http://www.w3.org/1999/xlink" x="0px" y="0px"
	 viewBox="0 0 500 500" style="enable-background:new 0 0 500 500;" xml:space="preserve">
<style type="text/css">
	.st0{fill:#0B3475;}
	.st1{fill:url(#SVGID_1_);}
	.st2{fill:none;}
	.st3{fill:url(#SVGID_2_);}
	.st4{fill:url(#SVGID_3_);}
	.st5{fill:url(#SVGID_4_);}
	.st6{fill:url(#SVGID_5_);}
	.st7{enable-background:new    ;}
	.st8{fill:url(#SVGID_6_);}
	.st9{fill:url(#SVGID_7_);}
	.st10{fill:url(#SVGID_8_);}
	.st11{fill:url(#SVGID_9_);}
	.st12{fill:url(#SVGID_10_);}
	.st13{clip-path:url(#SVGID_12_);enable-background:new    ;}
	.st14{fill:#1896FF;}
	.st15{clip-path:url(#SVGID_14_);enable-background:new    ;}
	.st16{fill:url(#SVGID_15_);}
	.st17{fill:url(#SVGID_16_);}
	.st18{fill:none;stroke:#FFFFFF;stroke-miterlimit:10;}
	.st19{fill:url(#SVGID_17_);}
	.st20{fill:url(#SVGID_18_);}
	.st21{fill:url(#SVGID_19_);}
	.st22{fill:url(#SVGID_20_);}
	.st23{fill:url(#SVGID_21_);}
	.st24{fill:#8BD5E8;}
	.st25{fill:url(#SVGID_22_);}
	.st26{fill:url(#SVGID_23_);}
	.st27{fill:url(#SVGID_24_);}
	.st28{fill:url(#SVGID_25_);}
	.st29{clip-path:url(#SVGID_27_);}
	.st30{clip-path:url(#SVGID_29_);}
	.st31{fill:url(#SVGID_30_);}
	.st32{clip-path:url(#SVGID_32_);}
	.st33{fill:url(#SVGID_33_);}
	.st34{clip-path:url(#SVGID_35_);}
	.st35{fill:url(#SVGID_36_);}
	.st36{clip-path:url(#SVGID_38_);}
	.st37{fill:url(#SVGID_39_);}
	.st38{clip-path:url(#SVGID_41_);}
	.st39{fill:url(#SVGID_42_);}
	.st40{clip-path:url(#SVGID_44_);}
	.st41{fill:url(#SVGID_45_);}
	.st42{clip-path:url(#SVGID_47_);}
	.st43{fill:url(#SVGID_48_);}
	.st44{clip-path:url(#SVGID_50_);}
	.st45{fill:url(#SVGID_51_);}
	.st46{clip-path:url(#SVGID_53_);}
	.st47{fill:url(#SVGID_54_);}
	.st48{clip-path:url(#SVGID_56_);}
	.st49{fill:url(#SVGID_57_);}
	.st50{clip-path:url(#SVGID_59_);}
	.st51{fill:url(#SVGID_60_);}
	.st52{fill:url(#SVGID_61_);}
	.st53{clip-path:url(#SVGID_63_);}
	.st54{fill:url(#SVGID_64_);}
	.st55{clip-path:url(#SVGID_66_);}
	.st56{fill:url(#SVGID_67_);}
	.st57{fill:url(#SVGID_68_);}
	.st58{clip-path:url(#SVGID_70_);}
	.st59{fill:url(#SVGID_71_);}
	.st60{fill:url(#SVGID_72_);}
	.st61{fill:url(#SVGID_73_);}
	.st62{clip-path:url(#SVGID_75_);}
	.st63{fill:url(#SVGID_76_);}
	.st64{clip-path:url(#SVGID_78_);enable-background:new    ;}
	.st65{fill:url(#SVGID_79_);}
	.st66{fill:url(#SVGID_80_);}
	.st67{fill:#945812;}
	.st68{fill:url(#SVGID_81_);}
	.st69{clip-path:url(#SVGID_83_);}
	.st70{fill:url(#SVGID_84_);}
	.st71{clip-path:url(#SVGID_86_);enable-background:new    ;}
	.st72{fill:url(#SVGID_87_);}
	.st73{fill:url(#SVGID_88_);}
	.st74{fill:url(#SVGID_89_);}
	.st75{fill:url(#SVGID_90_);}
	.st76{clip-path:url(#SVGID_92_);enable-background:new    ;}
	.st77{fill:url(#SVGID_93_);}
	.st78{fill:url(#SVGID_94_);}
	.st79{fill:url(#SVGID_95_);}
	.st80{clip-path:url(#SVGID_97_);}
	.st81{fill:url(#SVGID_98_);}
	.st82{clip-path:url(#SVGID_100_);fill:url(#SVGID_101_);}
	.st83{fill:url(#SVGID_102_);}
	.st84{clip-path:url(#SVGID_104_);enable-background:new    ;}
	.st85{fill:#1E5E26;}
	.st86{fill:url(#SVGID_105_);}
	.st87{clip-path:url(#SVGID_107_);}
	.st88{fill:url(#SVGID_108_);}
	.st89{clip-path:url(#SVGID_110_);}
	.st90{fill:url(#SVGID_111_);}
	.st91{clip-path:url(#SVGID_113_);fill:url(#SVGID_114_);}
	.st92{fill:url(#SVGID_115_);}
	.st93{clip-path:url(#SVGID_117_);enable-background:new    ;}
	.st94{fill:url(#SVGID_118_);}
	.st95{clip-path:url(#SVGID_120_);}
	.st96{fill:url(#SVGID_121_);}
	.st97{clip-path:url(#SVGID_123_);}
	.st98{fill:url(#SVGID_124_);}
	.st99{clip-path:url(#SVGID_126_);fill:url(#SVGID_127_);}
	.st100{fill:url(#SVGID_128_);}
	.st101{clip-path:url(#SVGID_130_);enable-background:new    ;}
	.st102{fill:url(#SVGID_131_);}
	.st103{clip-path:url(#SVGID_133_);}
	.st104{fill:url(#SVGID_134_);}
	.st105{clip-path:url(#SVGID_136_);}
	.st106{fill:url(#SVGID_137_);}
	.st107{clip-path:url(#SVGID_139_);fill:url(#SVGID_140_);}
	.st108{fill:url(#SVGID_141_);}
	.st109{clip-path:url(#SVGID_143_);}
	.st110{fill:url(#SVGID_144_);}
	.st111{clip-path:url(#SVGID_146_);}
	.st112{fill:url(#SVGID_147_);}
	.st113{fill:url(#SVGID_148_);}
	.st114{clip-path:url(#SVGID_150_);}
	.st115{fill:url(#SVGID_151_);}
	.st116{clip-path:url(#SVGID_153_);}
	.st117{fill:url(#SVGID_154_);}
	.st118{clip-path:url(#SVGID_156_);}
	.st119{fill:url(#SVGID_157_);}
	.st120{clip-path:url(#SVGID_159_);}
	.st121{fill:url(#SVGID_160_);}
	.st122{clip-path:url(#SVGID_162_);}
	.st123{fill:url(#SVGID_163_);}
	.st124{fill:url(#SVGID_164_);}
	.st125{clip-path:url(#SVGID_166_);}
	.st126{fill:url(#SVGID_167_);}
	.st127{fill:url(#SVGID_168_);}
	.st128{fill:url(#SVGID_169_);}
	.st129{fill:url(#SVGID_170_);}
	.st130{clip-path:url(#SVGID_172_);}
	.st131{fill:url(#SVGID_173_);}
	.st132{fill:url(#SVGID_174_);}
	.st133{clip-path:url(#SVGID_176_);}
	.st134{fill:url(#SVGID_177_);}
	.st135{fill:url(#SVGID_178_);}
	.st136{fill:url(#SVGID_179_);}
	.st137{clip-path:url(#SVGID_181_);}
	.st138{fill:url(#SVGID_182_);}
	.st139{clip-path:url(#SVGID_184_);}
	.st140{fill:url(#SVGID_185_);}
	.st141{fill:url(#SVGID_188_);}
	.st142{fill:#3B322C;}
	.st143{clip-path:url(#SVGID_190_);}
	.st144{fill:url(#SVGID_191_);}
	.st145{fill:url(#SVGID_192_);}
	.st146{fill:url(#SVGID_193_);}
	.st147{fill:url(#SVGID_194_);}
	.st148{clip-path:url(#SVGID_196_);}
	.st149{fill:url(#SVGID_197_);}
	.st150{fill:url(#SVGID_200_);}
	.st151{fill:#004A23;}
	.st152{clip-path:url(#SVGID_202_);}
	.st153{fill:url(#SVGID_203_);}
	.st154{fill:url(#SVGID_204_);}
</style>
<g>
	<g>
		<rect x="-20.23" y="-24.2" class="st0" width="533.8" height="533.8"/>
	</g>
	<g>
		<g>
			<defs>
				<rect id="SVGID_26_" x="133.07" y="109" width="247.74" height="247.98"/>
			</defs>
			<clipPath id="SVGID_1_">
				<use xlink:href="#SVGID_26_"  style="overflow:visible;"/>
			</clipPath>
			<g style="clip-path:url(#SVGID_1_);">
				<g class="st7">
					<g class="st7">
						<defs>
							<path id="SVGID_28_" class="st7" d="M180.21,318.15l18.08-15.01c-0.16,0.13-0.32,0.27-0.48,0.41
								c-0.04,0.04-0.09,0.08-0.14,0.12l-18.08,15.01c0.05-0.04,0.09-0.08,0.14-0.12C179.89,318.42,180.05,318.29,180.21,318.15z"/>
						</defs>
						<clipPath id="SVGID_2_">
							<use xlink:href="#SVGID_28_"  style="overflow:visible;"/>
						</clipPath>
						<g style="clip-path:url(#SVGID_2_);">
							<linearGradient id="SVGID_3_" gradientUnits="userSpaceOnUse" x1="179.5932" y1="310.9113" x2="198.2857" y2="310.9113">
								<stop  offset="0" style="stop-color:#0068FF"/>
								<stop  offset="1" style="stop-color:#00B6FF"/>
							</linearGradient>
							<path class="st4" d="M180.21,318.15l18.08-15.01c-0.16,0.13-0.32,0.27-0.48,0.41c-0.04,0.04-0.09,0.08-0.14,0.12
								l-18.08,15.01c0.05-0.04,0.09-0.08,0.14-0.12C179.89,318.42,180.05,318.29,180.21,318.15"/>
						</g>
					</g>
					<g class="st7">
						<defs>
							<path id="SVGID_31_" class="st7" d="M154.54,287.56l18.08-15.01c0.1-0.08,0.19-0.16,0.3-0.23c0.42-0.3,0.82-0.61,1.21-0.94
								l-18.08,15.01c-0.39,0.33-0.8,0.64-1.21,0.94C154.73,287.41,154.63,287.48,154.54,287.56z"/>
						</defs>
						<clipPath id="SVGID_4_">
							<use xlink:href="#SVGID_31_"  style="overflow:visible;"/>
						</clipPath>
						<g style="clip-path:url(#SVGID_4_);">
							<linearGradient id="SVGID_5_" gradientUnits="userSpaceOnUse" x1="154.5386" y1="279.4745" x2="174.1282" y2="279.4745">
								<stop  offset="0" style="stop-color:#0068FF"/>
								<stop  offset="1" style="stop-color:#00B6FF"/>
							</linearGradient>
							<path class="st6" d="M154.54,287.56l18.08-15.01c0.1-0.08,0.19-0.16,0.3-0.23c0.42-0.3,0.82-0.61,1.21-0.94l-18.08,15.01
								c-0.39,0.33-0.8,0.64-1.21,0.94C154.73,287.41,154.63,287.48,154.54,287.56"/>
						</g>
					</g>
					<g class="st7">
						<defs>
							<path id="SVGID_34_" class="st7" d="M268.27,334.21l18.08-15.01c-4.95,4.11-7.98,10.41-8.09,17.58
								c-0.03,1.82-0.8,3.38-2.02,4.39l-18.08,15.01c1.22-1.01,1.99-2.57,2.02-4.39C260.28,344.62,263.32,338.32,268.27,334.21z"/>
						</defs>
						<clipPath id="SVGID_6_">
							<use xlink:href="#SVGID_34_"  style="overflow:visible;"/>
						</clipPath>
						<g style="clip-path:url(#SVGID_6_);">
							<linearGradient id="SVGID_7_" gradientUnits="userSpaceOnUse" x1="258.1581" y1="337.693" x2="286.3428" y2="337.693">
								<stop  offset="0" style="stop-color:#0068FF"/>
								<stop  offset="1" style="stop-color:#00B6FF"/>
							</linearGradient>
							<path class="st9" d="M268.27,334.21l18.08-15.01c-4.95,4.11-7.98,10.41-8.09,17.58c-0.03,1.82-0.8,3.38-2.02,4.39
								l-18.08,15.01c1.22-1.01,1.99-2.57,2.02-4.39C260.28,344.62,263.32,338.32,268.27,334.21"/>
						</g>
					</g>
					<g class="st7">
						<defs>
							<path id="SVGID_37_" class="st7" d="M135.9,202.84l18.08-15.01c1.19-0.99,2.84-1.43,4.76-1.09
								c8.16,1.44,15.64-0.37,20.87-4.72l-18.08,15.01c-5.24,4.35-12.71,6.16-20.87,4.72C138.74,201.41,137.09,201.85,135.9,202.84z
								"/>
						</defs>
						<clipPath id="SVGID_8_">
							<use xlink:href="#SVGID_37_"  style="overflow:visible;"/>
						</clipPath>
						<g style="clip-path:url(#SVGID_8_);">
							<linearGradient id="SVGID_9_" gradientUnits="userSpaceOnUse" x1="242.5295" y1="104.0025" x2="149.5295" y2="201.0025">
								<stop  offset="0" style="stop-color:#0068FF"/>
								<stop  offset="1" style="stop-color:#00B6FF"/>
							</linearGradient>
							<path class="st11" d="M135.9,202.84l18.08-15.01c1.19-0.99,2.84-1.43,4.76-1.09c8.16,1.44,15.64-0.37,20.87-4.72
								l-18.08,15.01c-5.24,4.35-12.71,6.16-20.87,4.72C138.74,201.41,137.09,201.85,135.9,202.84"/>
						</g>
					</g>
					<g class="st7">
						<defs>
							<path id="SVGID_40_" class="st7" d="M221.35,208.56l18.08-15.01c-6.97,5.79-11.53,14.52-12.05,24.9
								c-1.07,21.34,15.25,41.72,36.39,45.45l-18.08,15.01c-21.14-3.73-37.46-24.11-36.39-45.45
								C209.82,223.07,214.38,214.35,221.35,208.56z"/>
						</defs>
						<clipPath id="SVGID_10_">
							<use xlink:href="#SVGID_40_"  style="overflow:visible;"/>
						</clipPath>
						<g style="clip-path:url(#SVGID_10_);">
							<linearGradient id="SVGID_12_" gradientUnits="userSpaceOnUse" x1="251.6964" y1="244.9688" x2="188.6964" y2="200.9688">
								<stop  offset="0" style="stop-color:#0068FF"/>
								<stop  offset="1" style="stop-color:#00B6FF"/>
							</linearGradient>
							<path style="fill:url(#SVGID_12_);" d="M221.35,208.56l18.08-15.01c-6.97,5.79-11.53,14.52-12.05,24.9
								c-1.07,21.34,15.25,41.72,36.39,45.45l-18.08,15.01c-21.14-3.73-37.46-24.11-36.39-45.45
								C209.82,223.07,214.38,214.35,221.35,208.56"/>
						</g>
					</g>
					<g class="st7">
						<defs>
							<path id="SVGID_43_" class="st7" d="M292.01,256.87l-18.08,15.01c-7.35,6.1-17.39,8.94-28.24,7.03l18.08-15.01
								C274.62,265.81,284.66,262.97,292.01,256.87z"/>
						</defs>
						<clipPath id="SVGID_14_">
							<use xlink:href="#SVGID_43_"  style="overflow:visible;"/>
						</clipPath>
						<g style="clip-path:url(#SVGID_14_);">
							<linearGradient id="SVGID_15_" gradientUnits="userSpaceOnUse" x1="251.4466" y1="269.2252" x2="332.9466" y2="265.2252">
								<stop  offset="0" style="stop-color:#0068FF"/>
								<stop  offset="1" style="stop-color:#00B6FF"/>
							</linearGradient>
							<path class="st16" d="M245.69,278.91l18.08-15.01c10.85,1.91,20.89-0.93,28.24-7.03l-18.08,15.01
								C266.58,277.98,256.54,280.82,245.69,278.91"/>
						</g>
					</g>
					<g class="st7">
						<defs>
							<path id="SVGID_46_" class="st7" d="M333.65,282.54l18.08-15.01c-2.22,1.84-4.08,4.14-5.43,6.82
								c-4.66,9.25-2.65,21.35,4.98,30.07c2.39,2.73,2.5,6.65,0.24,8.94c-2.25,2.29-4.62,4.46-7.09,6.51l-18.08,15.01
								c2.47-2.05,4.84-4.22,7.09-6.51c2.25-2.29,2.15-6.21-0.24-8.94c-7.64-8.72-9.64-20.81-4.98-30.07
								C329.57,286.68,331.43,284.39,333.65,282.54z"/>
						</defs>
						<clipPath id="SVGID_16_">
							<use xlink:href="#SVGID_46_"  style="overflow:visible;"/>
						</clipPath>
						<g style="clip-path:url(#SVGID_16_);">
							<linearGradient id="SVGID_17_" gradientUnits="userSpaceOnUse" x1="358.3968" y1="298.4938" x2="282.3968" y2="309.1605">
								<stop  offset="0" style="stop-color:#0068FF"/>
								<stop  offset="1" style="stop-color:#00B6FF"/>
							</linearGradient>
							<path class="st19" d="M333.65,282.54l18.08-15.01c-2.22,1.84-4.08,4.14-5.43,6.82c-4.66,9.25-2.65,21.35,4.98,30.07
								c2.39,2.73,2.5,6.65,0.24,8.94c-2.25,2.29-4.62,4.46-7.09,6.51l-18.08,15.01c2.47-2.05,4.84-4.22,7.09-6.51
								c2.25-2.29,2.15-6.21-0.24-8.94c-7.64-8.72-9.64-20.81-4.98-30.07C329.57,286.68,331.43,284.39,333.65,282.54"/>
						</g>
					</g>
					<g class="st7">
						<defs>
							<path id="SVGID_49_" class="st7" d="M168.57,145L186.65,130c3.9-3.24,8.06-6.17,12.44-8.76c1.21-0.71,2.63-0.92,4.01-0.67
								c1.74,0.31,3.43,1.32,4.62,2.94c4.51,6.13,11.74,10.41,18.97,11.68c3.13,0.55,6.26,0.54,9.16-0.13
								c3.37-0.78,6.38-2.3,8.9-4.39l-18.08,15.01c-2.52,2.09-5.52,3.61-8.9,4.39c-2.9,0.67-6.03,0.68-9.16,0.13
								c-7.22-1.27-14.46-5.55-18.97-11.68c-1.19-1.62-2.88-2.63-4.62-2.94c-1.39-0.24-2.8-0.04-4.01,0.67
								C176.63,138.83,172.47,141.77,168.57,145z"/>
						</defs>
						<clipPath id="SVGID_18_">
							<use xlink:href="#SVGID_49_"  style="overflow:visible;"/>
						</clipPath>
						<g style="clip-path:url(#SVGID_18_);">
							<linearGradient id="SVGID_19_" gradientUnits="userSpaceOnUse" x1="240.7375" y1="102.2844" x2="147.7375" y2="199.2844">
								<stop  offset="0" style="stop-color:#0068FF"/>
								<stop  offset="1" style="stop-color:#00B6FF"/>
							</linearGradient>
							<path class="st21" d="M168.57,145L186.65,130c3.9-3.24,8.06-6.17,12.44-8.76c1.21-0.71,2.63-0.92,4.01-0.67
								c1.74,0.31,3.43,1.32,4.62,2.94c4.51,6.13,11.74,10.41,18.97,11.68c3.13,0.55,6.26,0.54,9.16-0.13
								c3.37-0.78,6.38-2.3,8.9-4.39l-18.08,15.01c-2.52,2.09-5.52,3.61-8.9,4.39c-2.9,0.67-6.03,0.68-9.16,0.13
								c-7.22-1.27-14.46-5.55-18.97-11.68c-1.19-1.62-2.88-2.63-4.62-2.94c-1.39-0.24-2.8-0.04-4.01,0.67
								C176.63,138.83,172.47,141.77,168.57,145"/>
						</g>
					</g>
					<g class="st7">
						<defs>
							<path id="SVGID_52_" class="st7" d="M377.09,261.99l-18.08,15.01c0.99-0.82,1.71-2.01,1.95-3.43
								c1.45-8.54,1.91-17.41,1.38-26.37l18.08-15.01c0.53,8.96,0.08,17.83-1.38,26.37C378.79,259.98,378.08,261.16,377.09,261.99z"
								/>
						</defs>
						<clipPath id="SVGID_20_">
							<use xlink:href="#SVGID_52_"  style="overflow:visible;"/>
						</clipPath>
						<g style="clip-path:url(#SVGID_20_);">
							<linearGradient id="SVGID_21_" gradientUnits="userSpaceOnUse" x1="397.9966" y1="244.84" x2="310.9966" y2="274.84">
								<stop  offset="0" style="stop-color:#0068FF"/>
								<stop  offset="1" style="stop-color:#00B6FF"/>
							</linearGradient>
							<path class="st23" d="M362.33,247.2l18.08-15.01c0.53,8.96,0.08,17.83-1.38,26.37c-0.24,1.42-0.96,2.6-1.95,3.43
								l-18.08,15.01c0.99-0.82,1.71-2.01,1.95-3.43C362.41,265.03,362.86,256.16,362.33,247.2"/>
						</g>
					</g>
					<g class="st7">
						<defs>
							<path id="SVGID_55_" class="st7" d="M338.89,193.48l18.08-15.01c-7.31,6.07-9.99,16.56-6.67,26.62
								c3.44,10.35,12.47,18.24,23,20.1c3.26,0.57,6.9,3.69,7.1,7.01l-18.08,15.01c-0.21-3.32-3.84-6.44-7.1-7.01
								c-10.53-1.86-19.56-9.75-23-20.1C328.9,210.04,331.59,199.54,338.89,193.48z"/>
						</defs>
						<clipPath id="SVGID_22_">
							<use xlink:href="#SVGID_55_"  style="overflow:visible;"/>
						</clipPath>
						<g style="clip-path:url(#SVGID_22_);">
							<linearGradient id="SVGID_23_" gradientUnits="userSpaceOnUse" x1="346.631" y1="214.6628" x2="270.631" y2="225.3295">
								<stop  offset="0" style="stop-color:#0068FF"/>
								<stop  offset="1" style="stop-color:#00B6FF"/>
							</linearGradient>
							<path class="st26" d="M338.89,193.48l18.08-15.01c-7.31,6.07-9.99,16.56-6.67,26.62c3.44,10.35,12.47,18.24,23,20.1
								c3.26,0.57,6.9,3.69,7.1,7.01l-18.08,15.01c-0.21-3.32-3.84-6.44-7.1-7.01c-10.53-1.86-19.56-9.75-23-20.1
								C328.9,210.04,331.59,199.54,338.89,193.48"/>
						</g>
					</g>
					<g class="st7">
						<defs>
							<path id="SVGID_58_" class="st7" d="M236.78,123.71l18.08-15.01c1.05-0.88,2.45-1.35,4-1.25c4.23,0.27,8.46,0.78,12.67,1.52
								c4.42,0.78,8.82,1.82,13.19,3.11c3.35,0.99,5.67,4.4,5.3,7.77c-1.16,10.76,4.58,21.97,14.26,27.92
								c2.85,1.74,5.99,2.88,9.19,3.45c7.02,1.24,14.3-0.31,19.31-4.47l-18.08,15.01c-5.01,4.16-12.29,5.71-19.31,4.47
								c-3.2-0.56-6.34-1.71-9.19-3.45c-9.69-5.95-15.42-17.16-14.26-27.92c0.37-3.37-1.95-6.78-5.3-7.77
								c-4.37-1.29-8.77-2.33-13.19-3.11c-4.21-0.74-8.44-1.25-12.67-1.52C239.22,122.36,237.83,122.83,236.78,123.71z"/>
						</defs>
						<clipPath id="SVGID_24_">
							<use xlink:href="#SVGID_58_"  style="overflow:visible;"/>
						</clipPath>
						<g style="clip-path:url(#SVGID_24_);">
							<linearGradient id="SVGID_25_" gradientUnits="userSpaceOnUse" x1="280.1387" y1="140.0609" x2="187.1387" y2="237.0609">
								<stop  offset="0" style="stop-color:#0068FF"/>
								<stop  offset="1" style="stop-color:#00B6FF"/>
							</linearGradient>
							<path class="st28" d="M236.78,123.71l18.08-15.01c1.05-0.88,2.45-1.35,4-1.25c4.23,0.27,8.46,0.78,12.67,1.52
								c4.42,0.78,8.82,1.82,13.19,3.11c3.35,0.99,5.67,4.4,5.3,7.77c-1.16,10.76,4.58,21.97,14.26,27.92
								c2.85,1.74,5.99,2.88,9.19,3.45c7.02,1.24,14.3-0.31,19.31-4.47l-18.08,15.01c-5.01,4.16-12.29,5.71-19.31,4.47
								c-3.2-0.56-6.34-1.71-9.19-3.45c-9.69-5.95-15.42-17.16-14.26-27.92c0.37-3.37-1.95-6.78-5.3-7.77
								c-4.37-1.29-8.77-2.33-13.19-3.11c-4.21-0.74-8.44-1.25-12.67-1.52C239.22,122.36,237.83,122.83,236.78,123.71"/>
						</g>
					</g>
					<g>
						<linearGradient id="SVGID_27_" gradientUnits="userSpaceOnUse" x1="132.3848" y1="239.9411" x2="362.5474" y2="239.9411">
							<stop  offset="0" style="stop-color:#0068FF"/>
							<stop  offset="1" style="stop-color:#00B6FF"/>
						</linearGradient>
						<path style="fill:url(#SVGID_27_);" d="M362.33,247.2c0.53,8.96,0.08,17.83-1.38,26.37c-0.55,3.17-3.43,5.16-6.54,4.61
							l-1.9-0.4c-10.16-1.79-19.92,2.87-24.3,11.58c-4.66,9.25-2.65,21.35,4.98,30.07c2.39,2.73,2.5,6.65,0.24,8.94
							c-5.81,5.9-12.37,11.04-19.53,15.27c-1.22,0.71-2.64,0.91-4.02,0.67c-1.73-0.31-3.42-1.32-4.61-2.93
							c-4.51-6.13-11.72-10.42-18.95-11.69c-3.13-0.55-6.27-0.54-9.19,0.14c-9.98,2.32-16.81,11.15-16.96,21.96
							c-0.06,3.39-2.67,5.86-6.02,5.64c-4.23-0.27-8.45-0.77-12.66-1.51c-4.42-0.78-8.84-1.82-13.2-3.11
							c-3.34-0.98-5.67-4.4-5.3-7.77c1.16-10.76-4.57-21.98-14.29-27.92c-2.84-1.74-5.98-2.89-9.18-3.45
							c-7.23-1.28-14.76,0.42-19.8,4.91c-1.33,1.18-3.11,1.6-4.85,1.29c-1.41-0.25-2.8-0.97-3.93-2.13
							c-6.44-6.64-12.25-13.97-17.24-21.78c-1.95-3.01-1.44-6.76,1.13-8.61c8.23-5.89,11.39-16.95,7.87-27.55
							c-3.46-10.4-12.46-18.24-22.26-19.96c-3.88-0.68-7.64-3.79-7.84-7.13c-0.53-8.95-0.07-17.83,1.38-26.36
							c0.56-3.2,3.17-5.2,6.68-4.58c11.48,2.03,21.59-2.38,26.05-11.22c4.66-9.27,2.66-21.35-4.97-30.07
							c-2.38-2.73-2.5-6.64-0.24-8.93c5.79-5.89,12.37-11.04,19.53-15.28c1.21-0.71,2.63-0.92,4.01-0.67
							c1.74,0.31,3.43,1.32,4.62,2.94c4.51,6.13,11.74,10.41,18.97,11.68c3.13,0.55,6.26,0.54,9.16-0.13
							c10-2.32,16.82-11.15,16.99-21.97c0.05-3.39,2.67-5.85,6.02-5.64c4.23,0.27,8.46,0.78,12.67,1.52
							c4.42,0.78,8.82,1.82,13.19,3.11c3.35,0.99,5.67,4.4,5.3,7.77c-1.16,10.76,4.58,21.97,14.26,27.92
							c2.85,1.74,5.99,2.88,9.19,3.45c7.25,1.28,14.78-0.41,19.79-4.89c1.33-1.18,3.11-1.59,4.86-1.29c1.41,0.25,2.8,0.96,3.91,2.11
							c6.42,6.59,12.23,13.91,17.28,21.77c1.94,3.01,1.44,6.78-1.14,8.62c-8.21,5.88-11.37,16.95-7.87,27.54
							c3.44,10.35,12.47,18.24,23,20.1C358.49,240.76,362.13,243.88,362.33,247.2z M245.69,278.91
							c21.14,3.73,39.21-10.59,40.28-31.93c1.07-21.33-15.25-41.72-36.4-45.45c-21.14-3.73-39.2,10.6-40.28,31.93
							C208.23,254.8,224.55,275.18,245.69,278.91"/>
					</g>
					<g class="st7">
						<defs>
							<path id="SVGID_62_" class="st7" d="M315.33,161.21l18.08-15.01c1.31-1.09,3.03-1.46,4.72-1.16c1.41,0.25,2.8,0.96,3.91,2.11
								c6.42,6.59,12.23,13.91,17.28,21.77c1.85,2.88,1.48,6.46-0.82,8.38l-18.08,15.01c2.31-1.91,2.68-5.49,0.82-8.38
								c-5.05-7.86-10.86-15.18-17.28-21.77c-1.12-1.15-2.51-1.86-3.91-2.11C318.36,159.75,316.64,160.12,315.33,161.21z"/>
						</defs>
						<clipPath id="SVGID_29_">
							<use xlink:href="#SVGID_62_"  style="overflow:visible;"/>
						</clipPath>
						<g class="st30">
							<linearGradient id="SVGID_30_" gradientUnits="userSpaceOnUse" x1="375.3871" y1="138.2616" x2="289.7205" y2="207.2616">
								<stop  offset="0" style="stop-color:#0068FF"/>
								<stop  offset="1" style="stop-color:#00B6FF"/>
							</linearGradient>
							<path class="st31" d="M315.33,161.21l18.08-15.01c1.31-1.09,3.03-1.46,4.72-1.16c1.41,0.25,2.8,0.96,3.91,2.11
								c6.42,6.59,12.23,13.91,17.28,21.77c1.85,2.88,1.48,6.46-0.82,8.38l-18.08,15.01c2.31-1.91,2.68-5.49,0.82-8.38
								c-5.05-7.86-10.86-15.18-17.28-21.77c-1.12-1.15-2.51-1.86-3.91-2.11C318.36,159.75,316.64,160.12,315.33,161.21"/>
						</g>
					</g>
				</g>
			</g>
		</g>
	</g>
	<g>
		<g class="st7">
			<g class="st7">
				<defs>
					<path id="SVGID_65_" class="st7" d="M101.41,363.14l18.08-15.01c2.32-1.93,5.49-2.82,8.93-2.21l-18.08,15.01
						C106.91,360.32,103.73,361.22,101.41,363.14z"/>
				</defs>
				<clipPath id="SVGID_32_">
					<use xlink:href="#SVGID_65_"  style="overflow:visible;"/>
				</clipPath>
				<g class="st32">
					<linearGradient id="SVGID_33_" gradientUnits="userSpaceOnUse" x1="97.6776" y1="352.6628" x2="150.3443" y2="358.3295">
						<stop  offset="0" style="stop-color:#0068FF"/>
						<stop  offset="1" style="stop-color:#00B6FF"/>
					</linearGradient>
					<path class="st33" d="M101.41,363.14l18.08-15.01c2.32-1.93,5.49-2.82,8.93-2.21l-18.08,15.01
						C106.91,360.32,103.73,361.22,101.41,363.14"/>
				</g>
			</g>
			<g>
				<linearGradient id="SVGID_35_" gradientUnits="userSpaceOnUse" x1="365.1708" y1="395.9901" x2="162.1708" y2="361.6568">
					<stop  offset="0" style="stop-color:#0068FF"/>
					<stop  offset="1" style="stop-color:#00B6FF"/>
				</linearGradient>
				<polygon style="fill:url(#SVGID_35_);" points="110.34,360.93 128.42,345.92 404.77,394.65 386.69,409.66 				"/>
			</g>
			<g class="st7">
				<defs>
					<path id="SVGID_69_" class="st7" d="M412.46,416.86l-18.08,15.01c2.2-1.83,3.63-4.58,3.8-7.87c0.34-6.75-4.8-13.17-11.49-14.35
						l18.08-15.01c6.69,1.18,11.83,7.6,11.49,14.35C416.09,412.28,414.66,415.04,412.46,416.86z"/>
				</defs>
				<clipPath id="SVGID_36_">
					<use xlink:href="#SVGID_69_"  style="overflow:visible;"/>
				</clipPath>
				<g style="clip-path:url(#SVGID_36_);">
					<linearGradient id="SVGID_38_" gradientUnits="userSpaceOnUse" x1="402.2401" y1="413.8139" x2="252.5735" y2="382.4806">
						<stop  offset="0" style="stop-color:#0068FF"/>
						<stop  offset="1" style="stop-color:#00B6FF"/>
					</linearGradient>
					<path style="fill:url(#SVGID_38_);" d="M386.69,409.66l18.08-15.01c6.69,1.18,11.83,7.6,11.49,14.35
						c-0.17,3.29-1.6,6.04-3.8,7.87l-18.08,15.01c2.2-1.83,3.63-4.58,3.8-7.87C398.52,417.25,393.38,410.84,386.69,409.66"/>
				</g>
			</g>
			<g>
				<linearGradient id="SVGID_39_" gradientUnits="userSpaceOnUse" x1="97.6005" y1="397.5043" x2="398.1947" y2="397.5043">
					<stop  offset="0" style="stop-color:#0068FF"/>
					<stop  offset="1" style="stop-color:#00B6FF"/>
				</linearGradient>
				<path class="st37" d="M386.69,409.66c6.69,1.18,11.83,7.6,11.49,14.35c-0.34,6.75-6.03,11.26-12.71,10.08l-276.35-48.73
					c-6.69-1.18-11.84-7.6-11.5-14.35c0.34-6.75,6.04-11.26,12.72-10.08L386.69,409.66z"/>
			</g>
		</g>
	</g>
	
		<linearGradient id="SVGID_41_" gradientUnits="userSpaceOnUse" x1="69.9434" y1="358.2394" x2="507.7578" y2="405.346" gradientTransform="matrix(1.0264 0.1826 -0.1752 0.9845 62.4764 -14.0779)">
		<stop  offset="0.1499" style="stop-color:#FF9800"/>
		<stop  offset="1" style="stop-color:#FFC107"/>
	</linearGradient>
	<path style="fill:url(#SVGID_41_);" d="M315.99,416.82l-202.37-36.01c-3.35-0.6-5.59-3.8-4.99-7.15l0,0
		c0.6-3.35,3.8-5.59,7.15-4.99l202.37,36.01c3.35,0.6,5.59,3.8,4.99,7.15l0,0C322.55,415.19,319.35,417.42,315.99,416.82z"/>
</g>
</svg>
