<?xml version="1.0" encoding="utf-8"?>
<!-- Generator: Adobe Illustrator 23.0.6, SVG Export Plug-In . SVG Version: 6.00 Build 0)  -->
<svg version="1.1" id="Layer_1" xmlns="http://www.w3.org/2000/svg" xmlns:xlink="http://www.w3.org/1999/xlink" x="0px" y="0px"
	 viewBox="0 0 500 500" style="enable-background:new 0 0 500 500;" xml:space="preserve">
<style type="text/css">
	.st0{fill:#0B3475;}
	.st1{fill:url(#SVGID_1_);}
	.st2{fill:none;}
	.st3{fill:url(#SVGID_2_);}
	.st4{fill:url(#SVGID_3_);}
	.st5{fill:url(#SVGID_4_);}
	.st6{fill:url(#SVGID_5_);}
	.st7{enable-background:new    ;}
	.st8{fill:url(#SVGID_6_);}
	.st9{fill:url(#SVGID_7_);}
	.st10{fill:url(#SVGID_8_);}
	.st11{fill:url(#SVGID_9_);}
	.st12{fill:url(#SVGID_10_);}
	.st13{clip-path:url(#SVGID_12_);enable-background:new    ;}
	.st14{fill:#1896FF;}
	.st15{clip-path:url(#SVGID_14_);enable-background:new    ;}
	.st16{fill:url(#SVGID_15_);}
	.st17{fill:url(#SVGID_16_);}
	.st18{fill:none;stroke:#FFFFFF;stroke-miterlimit:10;}
	.st19{fill:url(#SVGID_17_);}
	.st20{fill:url(#SVGID_18_);}
	.st21{fill:url(#SVGID_19_);}
	.st22{fill:url(#SVGID_20_);}
	.st23{fill:url(#SVGID_21_);}
	.st24{fill:#8BD5E8;}
	.st25{fill:url(#SVGID_22_);}
	.st26{fill:url(#SVGID_23_);}
	.st27{fill:url(#SVGID_24_);}
	.st28{fill:url(#SVGID_25_);}
	.st29{clip-path:url(#SVGID_27_);}
	.st30{clip-path:url(#SVGID_29_);}
	.st31{fill:url(#SVGID_30_);}
	.st32{clip-path:url(#SVGID_32_);}
	.st33{fill:url(#SVGID_33_);}
	.st34{clip-path:url(#SVGID_35_);}
	.st35{fill:url(#SVGID_36_);}
	.st36{clip-path:url(#SVGID_38_);}
	.st37{fill:url(#SVGID_39_);}
	.st38{clip-path:url(#SVGID_41_);}
	.st39{fill:url(#SVGID_42_);}
	.st40{clip-path:url(#SVGID_44_);}
	.st41{fill:url(#SVGID_45_);}
	.st42{clip-path:url(#SVGID_47_);}
	.st43{fill:url(#SVGID_48_);}
	.st44{clip-path:url(#SVGID_50_);}
	.st45{fill:url(#SVGID_51_);}
	.st46{clip-path:url(#SVGID_53_);}
	.st47{fill:url(#SVGID_54_);}
	.st48{clip-path:url(#SVGID_56_);}
	.st49{fill:url(#SVGID_57_);}
	.st50{clip-path:url(#SVGID_59_);}
	.st51{fill:url(#SVGID_60_);}
	.st52{fill:url(#SVGID_61_);}
	.st53{clip-path:url(#SVGID_63_);}
	.st54{fill:url(#SVGID_64_);}
	.st55{clip-path:url(#SVGID_66_);}
	.st56{fill:url(#SVGID_67_);}
	.st57{fill:url(#SVGID_68_);}
	.st58{clip-path:url(#SVGID_70_);}
	.st59{fill:url(#SVGID_71_);}
	.st60{fill:url(#SVGID_72_);}
	.st61{fill:url(#SVGID_73_);}
	.st62{clip-path:url(#SVGID_75_);}
	.st63{fill:url(#SVGID_76_);}
	.st64{clip-path:url(#SVGID_78_);enable-background:new    ;}
	.st65{fill:url(#SVGID_79_);}
	.st66{fill:url(#SVGID_80_);}
	.st67{fill:#945812;}
	.st68{fill:url(#SVGID_81_);}
	.st69{clip-path:url(#SVGID_83_);}
	.st70{fill:url(#SVGID_84_);}
	.st71{clip-path:url(#SVGID_86_);enable-background:new    ;}
	.st72{fill:url(#SVGID_87_);}
	.st73{fill:url(#SVGID_88_);}
	.st74{fill:url(#SVGID_89_);}
	.st75{fill:url(#SVGID_90_);}
	.st76{clip-path:url(#SVGID_92_);enable-background:new    ;}
	.st77{fill:url(#SVGID_93_);}
	.st78{fill:url(#SVGID_94_);}
	.st79{fill:url(#SVGID_95_);}
	.st80{clip-path:url(#SVGID_97_);}
	.st81{fill:url(#SVGID_98_);}
	.st82{clip-path:url(#SVGID_100_);fill:url(#SVGID_101_);}
	.st83{fill:url(#SVGID_102_);}
	.st84{clip-path:url(#SVGID_104_);enable-background:new    ;}
	.st85{fill:#1E5E26;}
	.st86{fill:url(#SVGID_105_);}
	.st87{clip-path:url(#SVGID_107_);}
	.st88{fill:url(#SVGID_108_);}
	.st89{clip-path:url(#SVGID_110_);}
	.st90{fill:url(#SVGID_111_);}
	.st91{clip-path:url(#SVGID_113_);fill:url(#SVGID_114_);}
	.st92{fill:url(#SVGID_115_);}
	.st93{clip-path:url(#SVGID_117_);enable-background:new    ;}
	.st94{fill:url(#SVGID_118_);}
	.st95{clip-path:url(#SVGID_120_);}
	.st96{fill:url(#SVGID_121_);}
	.st97{clip-path:url(#SVGID_123_);}
	.st98{fill:url(#SVGID_124_);}
	.st99{clip-path:url(#SVGID_126_);fill:url(#SVGID_127_);}
	.st100{fill:url(#SVGID_128_);}
	.st101{clip-path:url(#SVGID_130_);enable-background:new    ;}
	.st102{fill:url(#SVGID_131_);}
	.st103{clip-path:url(#SVGID_133_);}
	.st104{fill:url(#SVGID_134_);}
	.st105{clip-path:url(#SVGID_136_);}
	.st106{fill:url(#SVGID_137_);}
	.st107{clip-path:url(#SVGID_139_);fill:url(#SVGID_140_);}
	.st108{fill:url(#SVGID_141_);}
	.st109{clip-path:url(#SVGID_143_);}
	.st110{fill:url(#SVGID_144_);}
	.st111{clip-path:url(#SVGID_146_);}
	.st112{fill:url(#SVGID_147_);}
	.st113{fill:url(#SVGID_148_);}
	.st114{clip-path:url(#SVGID_150_);}
	.st115{fill:url(#SVGID_151_);}
	.st116{clip-path:url(#SVGID_153_);}
	.st117{fill:url(#SVGID_154_);}
	.st118{clip-path:url(#SVGID_156_);}
	.st119{fill:url(#SVGID_157_);}
	.st120{clip-path:url(#SVGID_159_);}
	.st121{fill:url(#SVGID_160_);}
	.st122{clip-path:url(#SVGID_162_);}
	.st123{fill:url(#SVGID_163_);}
	.st124{fill:url(#SVGID_164_);}
	.st125{clip-path:url(#SVGID_166_);}
	.st126{fill:url(#SVGID_167_);}
	.st127{fill:url(#SVGID_168_);}
	.st128{fill:url(#SVGID_169_);}
	.st129{fill:url(#SVGID_170_);}
	.st130{clip-path:url(#SVGID_172_);}
	.st131{fill:url(#SVGID_173_);}
	.st132{fill:url(#SVGID_174_);}
	.st133{clip-path:url(#SVGID_176_);}
	.st134{fill:url(#SVGID_177_);}
	.st135{fill:url(#SVGID_178_);}
	.st136{fill:url(#SVGID_179_);}
	.st137{clip-path:url(#SVGID_181_);}
	.st138{fill:url(#SVGID_182_);}
	.st139{clip-path:url(#SVGID_184_);}
	.st140{fill:url(#SVGID_185_);}
	.st141{fill:url(#SVGID_188_);}
	.st142{fill:#3B322C;}
	.st143{clip-path:url(#SVGID_190_);}
	.st144{fill:url(#SVGID_191_);}
	.st145{fill:url(#SVGID_192_);}
	.st146{fill:url(#SVGID_193_);}
	.st147{fill:url(#SVGID_194_);}
	.st148{clip-path:url(#SVGID_196_);}
	.st149{fill:url(#SVGID_197_);}
	.st150{fill:url(#SVGID_200_);}
	.st151{fill:#004A23;}
	.st152{clip-path:url(#SVGID_202_);}
	.st153{fill:url(#SVGID_203_);}
	.st154{fill:url(#SVGID_204_);}
</style>
<g>
	<rect x="-20" y="-21" class="st0" width="545" height="546"/>
	<g>
		<g class="st7">
			<g class="st7">
				<defs>
					<path id="SVGID_175_" class="st7" d="M135.83,116.17l10.84-7.31c2.13-1.44,4.97-1.82,8.04-0.82l-10.84,7.31
						C140.8,114.35,137.96,114.74,135.83,116.17z"/>
				</defs>
				<clipPath id="SVGID_1_">
					<use xlink:href="#SVGID_175_"  style="overflow:visible;"/>
				</clipPath>
				<g style="clip-path:url(#SVGID_1_);">
					<linearGradient id="SVGID_2_" gradientUnits="userSpaceOnUse" x1="145.3094" y1="112.1648" x2="130.7199" y2="92.0806">
						<stop  offset="0" style="stop-color:#0068FF"/>
						<stop  offset="1" style="stop-color:#00B6FF"/>
					</linearGradient>
					<path class="st3" d="M135.83,116.17l10.84-7.31c2.13-1.44,4.97-1.82,8.04-0.82l-10.84,7.31
						C140.8,114.35,137.96,114.74,135.83,116.17"/>
				</g>
			</g>
			<g>
				<linearGradient id="SVGID_3_" gradientUnits="userSpaceOnUse" x1="164.0596" y1="107.7305" x2="102.1018" y2="57.5199">
					<stop  offset="0" style="stop-color:#0068FF"/>
					<stop  offset="1" style="stop-color:#00B6FF"/>
				</linearGradient>
				<polygon class="st4" points="143.87,115.35 154.71,108.04 220.35,129.37 209.52,136.68 				"/>
			</g>
			<g>
				<linearGradient id="SVGID_4_" gradientUnits="userSpaceOnUse" x1="217.9468" y1="133.2661" x2="227.7994" y2="147.9188">
					<stop  offset="0" style="stop-color:#0068FF"/>
					<stop  offset="1" style="stop-color:#00B6FF"/>
				</linearGradient>
				<polygon class="st5" points="219.11,145.86 229.94,138.55 232.01,143.32 221.18,150.63 				"/>
			</g>
			<g class="st7">
				<defs>
					<path id="SVGID_180_" class="st7" d="M209.52,136.68l10.84-7.31c4.04,1.31,7.69,4.81,9.59,9.18l-10.84,7.31
						C217.21,141.49,213.56,137.99,209.52,136.68z"/>
				</defs>
				<clipPath id="SVGID_5_">
					<use xlink:href="#SVGID_180_"  style="overflow:visible;"/>
				</clipPath>
				<g style="clip-path:url(#SVGID_5_);">
					<linearGradient id="SVGID_6_" gradientUnits="userSpaceOnUse" x1="217.2832" y1="133.7123" x2="227.1358" y2="148.365">
						<stop  offset="0" style="stop-color:#0068FF"/>
						<stop  offset="1" style="stop-color:#00B6FF"/>
					</linearGradient>
					<path class="st8" d="M209.52,136.68l10.84-7.31c4.04,1.31,7.69,4.81,9.59,9.18l-10.84,7.31
						C217.21,141.49,213.56,137.99,209.52,136.68"/>
				</g>
			</g>
			<g class="st7">
				<defs>
					<path id="SVGID_183_" class="st7" d="M221.18,150.63l10.84-7.31c1.9,4.37,5.55,7.86,9.6,9.18l-10.84,7.31
						C226.72,158.49,223.07,155,221.18,150.63z"/>
				</defs>
				<clipPath id="SVGID_7_">
					<use xlink:href="#SVGID_183_"  style="overflow:visible;"/>
				</clipPath>
				<g style="clip-path:url(#SVGID_7_);">
					<linearGradient id="SVGID_8_" gradientUnits="userSpaceOnUse" x1="218.6116" y1="132.8191" x2="228.4643" y2="147.4717">
						<stop  offset="0" style="stop-color:#0068FF"/>
						<stop  offset="1" style="stop-color:#00B6FF"/>
					</linearGradient>
					<path class="st10" d="M221.18,150.63l10.84-7.31c1.9,4.37,5.55,7.86,9.6,9.18l-10.84,7.31
						C226.72,158.49,223.07,155,221.18,150.63"/>
				</g>
			</g>
			<g class="st7">
				<defs>
					<path id="SVGID_186_" class="st7" d="M387.22,366.71l-10.84,7.31c2.22-1.5,3.67-4.14,3.8-7.53l10.84-7.31
						C390.89,362.58,389.44,365.21,387.22,366.71z"/>
				</defs>
				<clipPath id="SVGID_9_">
					<use xlink:href="#SVGID_186_"  style="overflow:visible;"/>
				</clipPath>
			</g>
			<g>
				<linearGradient id="SVGID_10_" gradientUnits="userSpaceOnUse" x1="346.6144" y1="195.053" x2="236.4671" y2="150.5898">
					<stop  offset="0" style="stop-color:#0068FF"/>
					<stop  offset="1" style="stop-color:#00B6FF"/>
				</linearGradient>
				<polygon class="st12" points="230.77,159.81 241.61,152.5 385.77,199.34 374.93,206.65 				"/>
			</g>
			<g>
				<path class="st142" d="M380.48,358.81l0.68-17.25c-0.01,0.66-0.01,1.33-0.01,2.03C381.15,349.92,380.97,354.92,380.48,358.81z"
					/>
				<path class="st142" d="M391,359.18c0.07-1.61,0.14-3.26,0.21-4.93l-0.19,4.93l-0.02,0.01V359.18z"/>
			</g>
			<g class="st7">
				<defs>
					<path id="SVGID_189_" class="st7" d="M374.93,206.65l10.84-7.31c6.29,2.04,11.17,9.1,10.91,15.76l-10.84,7.31
						C386.1,215.75,381.22,208.69,374.93,206.65z"/>
				</defs>
				<clipPath id="SVGID_12_">
					<use xlink:href="#SVGID_189_"  style="overflow:visible;"/>
				</clipPath>
				<g style="clip-path:url(#SVGID_12_);">
					<linearGradient id="SVGID_14_" gradientUnits="userSpaceOnUse" x1="390.7638" y1="214.0301" x2="207.3532" y2="83.1669">
						<stop  offset="0" style="stop-color:#0068FF"/>
						<stop  offset="1" style="stop-color:#00B6FF"/>
					</linearGradient>
					<path style="fill:url(#SVGID_14_);" d="M374.93,206.65l10.84-7.31c6.29,2.04,11.17,9.1,10.91,15.76l-10.84,7.31
						C386.1,215.75,381.22,208.69,374.93,206.65"/>
				</g>
			</g>
			<g>
				<linearGradient id="SVGID_15_" gradientUnits="userSpaceOnUse" x1="79.7402" y1="195.8557" x2="317.3402" y2="268.6136">
					<stop  offset="0" style="stop-color:#0068FF"/>
					<stop  offset="1" style="stop-color:#00B6FF"/>
				</linearGradient>
				<path class="st16" d="M385.84,222.41l-4.14,105.51l-0.54,13.64l-0.68,17.25c-1.11,8.98-2.42,26.66-8.24,26.66
					c-6.35,0-8.21-25.11-8.12-29.38c0.01-0.83,0.05-1.42,0.06-1.65c0.01-0.07,0.01-0.11,0.01-0.11l4.58-116.9l-10.84,7.31
					l-4.91,125.14l-216.38-70.31c-6.28-2.04-11.16-9.1-10.9-15.75l4.91-125.14l0.42-10.69l0.95-24.27
					c0.27-6.66,5.57-10.41,11.85-8.37l65.65,21.33c4.04,1.32,7.69,4.81,9.59,9.18l2.07,4.77c1.89,4.38,5.54,7.87,9.59,9.18
					l144.16,46.84C381.22,208.69,386.1,215.75,385.84,222.41z"/>
			</g>
		</g>
		<linearGradient id="SVGID_16_" gradientUnits="userSpaceOnUse" x1="86.0095" y1="247.9056" x2="378.5569" y2="247.9056">
			<stop  offset="0.1499" style="stop-color:#FF9800"/>
			<stop  offset="1" style="stop-color:#FFC107"/>
		</linearGradient>
		<polygon class="st17" points="373,372.01 86.01,282.96 93.34,123.8 378.56,218.79 		"/>
	</g>
	<g>
		<g class="st7">
			<g>
				<linearGradient id="SVGID_17_" gradientUnits="userSpaceOnUse" x1="53.2671" y1="238.2994" x2="497.7724" y2="322.4257">
					<stop  offset="0" style="stop-color:#0068FF"/>
					<stop  offset="1" style="stop-color:#00B6FF"/>
				</linearGradient>
				<path class="st19" d="M357.93,244.74l-2.62,125l2.46,7.96c-0.26,6.67,13.26,11.49,11.56,16.86l-260.17-83.34
					c-6.28-2.04-11.17-9.09-10.9-15.75l5.23-133.4c0.26-6.66,5.57-10.4,11.85-8.36l15.3,4.97l216.38,70.31
					C353.32,231.03,358.2,238.08,357.93,244.74z"/>
			</g>
			<g class="st7">
				<defs>
					<path id="SVGID_195_" class="st7" d="M107.3,154.53l10.84-7.31c2.13-1.44,4.97-1.82,8.05-0.82l-10.84,7.31
						C112.27,152.71,109.43,153.09,107.3,154.53z"/>
				</defs>
				<clipPath id="SVGID_18_">
					<use xlink:href="#SVGID_195_"  style="overflow:visible;"/>
				</clipPath>
				<g style="clip-path:url(#SVGID_18_);">
					<linearGradient id="SVGID_19_" gradientUnits="userSpaceOnUse" x1="120.7577" y1="155.6815" x2="118.2314" y2="152.3973">
						<stop  offset="0" style="stop-color:#0068FF"/>
						<stop  offset="1" style="stop-color:#00B6FF"/>
					</linearGradient>
					<path class="st21" d="M107.3,154.53l10.84-7.31c2.13-1.44,4.97-1.82,8.05-0.82l-10.84,7.31
						C112.27,152.71,109.43,153.09,107.3,154.53"/>
				</g>
			</g>
			<g class="st7">
				<defs>
					<path id="SVGID_198_" class="st7" d="M359.74,378.37l-10.84,7.31c2.22-1.5,3.67-4.14,3.8-7.54l10.84-7.31
						C363.4,374.23,361.96,376.87,359.74,378.37z"/>
				</defs>
				<clipPath id="SVGID_20_">
					<use xlink:href="#SVGID_198_"  style="overflow:visible;"/>
				</clipPath>
			</g>
			<g>
				<linearGradient id="SVGID_21_" gradientUnits="userSpaceOnUse" x1="327.6833" y1="222.1919" x2="146.2938" y2="153.4761">
					<stop  offset="0" style="stop-color:#0068FF"/>
					<stop  offset="1" style="stop-color:#00B6FF"/>
				</linearGradient>
				<polygon class="st23" points="115.35,153.71 126.19,146.4 357.87,221.68 347.03,228.98 				"/>
			</g>
			<g>
				<path class="st151" d="M364.18,354.44l-0.06,1.65C364.13,355.26,364.17,354.67,364.18,354.44z"/>
			</g>
			<g class="st7">
				<defs>
					<path id="SVGID_201_" class="st7" d="M347.03,228.98l10.84-7.31c6.29,2.04,11.16,9.09,10.9,15.75l-10.84,7.31
						C358.2,238.08,353.32,231.03,347.03,228.98z"/>
				</defs>
				<clipPath id="SVGID_22_">
					<use xlink:href="#SVGID_201_"  style="overflow:visible;"/>
				</clipPath>
				<g style="clip-path:url(#SVGID_22_);">
					<linearGradient id="SVGID_23_" gradientUnits="userSpaceOnUse" x1="359.8802" y1="234.169" x2="242.4065" y2="126.9269">
						<stop  offset="0" style="stop-color:#0068FF"/>
						<stop  offset="1" style="stop-color:#00B6FF"/>
					</linearGradient>
					<path class="st26" d="M347.03,228.98l10.84-7.31c6.29,2.04,11.16,9.09,10.9,15.75l-10.84,7.31
						C358.2,238.08,353.32,231.03,347.03,228.98"/>
				</g>
			</g>
		</g>
	</g>
	<linearGradient id="SVGID_24_" gradientUnits="userSpaceOnUse" x1="388.2172" y1="305.2533" x2="502.912" y2="312.8323">
		<stop  offset="0" style="stop-color:#0068FF"/>
		<stop  offset="1" style="stop-color:#00B6FF"/>
	</linearGradient>
	<path class="st27" d="M396.73,215.08c-0.03,1-3.35,105.42-4.6,130.68c-1.14,23.07-2.6,39.91-11.05,46.47
		c-2.33,1.81-5.06,2.73-8.01,2.73c-1,0-2.02-0.1-3.06-0.31c-9.01-1.84-14.47-11.9-16.24-29.9c-1.14-11.55-0.45-22.55-0.38-23.57
		l4.58-96.43l10.73-7.33l-4.33,104.47c-1.31,18.83,1.59,40.7,7.83,41.98c1.25,0.25,1.76-0.04,2.13-0.33
		c5.12-3.97,6.18-25.48,6.82-38.32c1.24-25.19,4.65-121.84,4.69-122.84L396.73,215.08z"/>
</g>
</svg>
