<?xml version="1.0" encoding="utf-8"?>
<!-- Generator: Adobe Illustrator 23.0.3, SVG Export Plug-In . SVG Version: 6.00 Build 0)  -->
<svg version="1.1" id="Layer_1" xmlns="http://www.w3.org/2000/svg" xmlns:xlink="http://www.w3.org/1999/xlink" x="0px" y="0px"
	 viewBox="0 0 500 500" style="enable-background:new 0 0 500 500;" xml:space="preserve">
<style type="text/css">
	.st0{fill:#0B3475;}
	.st1{fill:url(#SVGID_1_);}
	.st2{fill:none;stroke:#FFFFFF;stroke-miterlimit:10;}
	.st3{fill:url(#SVGID_2_);}
	.st4{fill:url(#SVGID_3_);}
	.st5{fill:url(#SVGID_4_);}
	.st6{fill:url(#SVGID_5_);}
</style>
<rect class="st0" width="500" height="500"/>
<linearGradient id="SVGID_1_" gradientUnits="userSpaceOnUse" x1="199.5017" y1="-110.1727" x2="342.8077" y2="-262.1602" gradientTransform="matrix(1.2124 -0.1045 0.1045 -1.2124 53.3896 150.8547)">
	<stop  offset="0" style="stop-color:#082651"/>
	<stop  offset="1" style="stop-color:#0B3475"/>
</linearGradient>
<polygon class="st1" points="500,288 500,500 332,502 229,412.4 217,276 344.7,193.3 "/>
<path class="st2" d="M699.2,174.6"/>
<g>
	<linearGradient id="SVGID_2_" gradientUnits="userSpaceOnUse" x1="164.4928" y1="271.0428" x2="380.1559" y2="271.0428">
		<stop  offset="0" style="stop-color:#0068FF"/>
		<stop  offset="1" style="stop-color:#00B6FF"/>
	</linearGradient>
	<path class="st3" d="M231.7,410.8l-0.4,0.2l-1.4,0.8l-0.5,0.3l-0.5,0.3c0,0-143.1-222.7-98-272.3c2.9-3.1,5.8-5.5,8.8-7.2l5-2.1
		c39.1-12,85.3,80.9,85.3,80.9l0,0l7.9-4.6l0.1,0c16.2-8.1,53.8-20.1,83.5,21.1C382.9,313.1,252.3,398.1,231.7,410.8z"/>
	<linearGradient id="SVGID_3_" gradientUnits="userSpaceOnUse" x1="236.2012" y1="197.083" x2="311.8974" y2="342.3143">
		<stop  offset="0" style="stop-color:#0068FF"/>
		<stop  offset="1" style="stop-color:#00B6FF"/>
	</linearGradient>
	<path class="st4" d="M361.8,333l-130.1,77.7c20.6-12.7,151.2-97.7,90-182.6c-29.6-41.2-67.3-29.2-83.5-21.1l41.6-24l20.8-12
		c0,0,49.5,3.3,70.4,66C390.4,295.2,361.8,333,361.8,333z"/>
	<linearGradient id="SVGID_4_" gradientUnits="userSpaceOnUse" x1="156.0621" y1="82.644" x2="231.1694" y2="173.4714">
		<stop  offset="0" style="stop-color:#0068FF"/>
		<stop  offset="1" style="stop-color:#00B6FF"/>
	</linearGradient>
	<path class="st5" d="M274.7,186l-36.4,21l-0.1,0c-4.5,2.6-7.5,4.3-7.9,4.6l0,0c0,0-46.2-92.9-85.3-80.9l62.4-26.8
		C207.2,104,261.9,122.2,274.7,186z"/>
	<linearGradient id="SVGID_5_" gradientUnits="userSpaceOnUse" x1="171.8601" y1="283.3787" x2="276.566" y2="283.3787">
		<stop  offset="0.1499" style="stop-color:#FF9800"/>
		<stop  offset="1" style="stop-color:#FFC107"/>
	</linearGradient>
	<polygon class="st6" points="276.6,296.9 243.3,276.2 243.3,242.9 205.2,219.2 205.2,252.5 171.9,231.8 171.9,269.8 205.2,290.6 
		205.2,323.9 243.3,347.6 243.3,314.3 276.6,335 	"/>
</g>
</svg>
