<?xml version="1.0" encoding="utf-8"?>
<!-- Generator: Adobe Illustrator 23.0.6, SVG Export Plug-In . SVG Version: 6.00 Build 0)  -->
<svg version="1.1" id="Layer_1" xmlns="http://www.w3.org/2000/svg" xmlns:xlink="http://www.w3.org/1999/xlink" x="0px" y="0px"
	 viewBox="0 0 500 500" style="enable-background:new 0 0 500 500;" xml:space="preserve">
<style type="text/css">
	.st0{fill:#0B3475;}
	.st1{fill:url(#SVGID_1_);}
	.st2{fill:none;}
	.st3{fill:url(#SVGID_2_);}
	.st4{fill:url(#SVGID_3_);}
	.st5{fill:url(#SVGID_4_);}
	.st6{fill:url(#SVGID_5_);}
	.st7{enable-background:new    ;}
	.st8{fill:url(#SVGID_6_);}
	.st9{fill:url(#SVGID_7_);}
	.st10{fill:url(#SVGID_8_);}
	.st11{fill:url(#SVGID_9_);}
	.st12{fill:url(#SVGID_10_);}
	.st13{clip-path:url(#SVGID_12_);enable-background:new    ;}
	.st14{fill:#1896FF;}
	.st15{clip-path:url(#SVGID_14_);enable-background:new    ;}
	.st16{fill:url(#SVGID_15_);}
	.st17{fill:url(#SVGID_16_);}
	.st18{fill:none;stroke:#FFFFFF;stroke-miterlimit:10;}
	.st19{fill:url(#SVGID_17_);}
	.st20{fill:url(#SVGID_18_);}
	.st21{fill:url(#SVGID_19_);}
	.st22{fill:url(#SVGID_20_);}
	.st23{fill:url(#SVGID_21_);}
	.st24{fill:#8BD5E8;}
	.st25{fill:url(#SVGID_22_);}
	.st26{fill:url(#SVGID_23_);}
	.st27{fill:url(#SVGID_24_);}
	.st28{fill:url(#SVGID_25_);}
	.st29{clip-path:url(#SVGID_27_);}
	.st30{clip-path:url(#SVGID_29_);}
	.st31{fill:url(#SVGID_30_);}
	.st32{clip-path:url(#SVGID_32_);}
	.st33{fill:url(#SVGID_33_);}
	.st34{clip-path:url(#SVGID_35_);}
	.st35{fill:url(#SVGID_36_);}
	.st36{clip-path:url(#SVGID_38_);}
	.st37{fill:url(#SVGID_39_);}
	.st38{clip-path:url(#SVGID_41_);}
	.st39{fill:url(#SVGID_42_);}
	.st40{clip-path:url(#SVGID_44_);}
	.st41{fill:url(#SVGID_45_);}
	.st42{clip-path:url(#SVGID_47_);}
	.st43{fill:url(#SVGID_48_);}
	.st44{clip-path:url(#SVGID_50_);}
	.st45{fill:url(#SVGID_51_);}
	.st46{clip-path:url(#SVGID_53_);}
	.st47{fill:url(#SVGID_54_);}
	.st48{clip-path:url(#SVGID_56_);}
	.st49{fill:url(#SVGID_57_);}
	.st50{clip-path:url(#SVGID_59_);}
	.st51{fill:url(#SVGID_60_);}
	.st52{fill:url(#SVGID_61_);}
	.st53{clip-path:url(#SVGID_63_);}
	.st54{fill:url(#SVGID_64_);}
	.st55{clip-path:url(#SVGID_66_);}
	.st56{fill:url(#SVGID_67_);}
	.st57{fill:url(#SVGID_68_);}
	.st58{clip-path:url(#SVGID_70_);}
	.st59{fill:url(#SVGID_71_);}
	.st60{fill:url(#SVGID_72_);}
	.st61{fill:url(#SVGID_73_);}
	.st62{clip-path:url(#SVGID_75_);}
	.st63{fill:url(#SVGID_76_);}
	.st64{clip-path:url(#SVGID_78_);enable-background:new    ;}
	.st65{fill:url(#SVGID_79_);}
	.st66{fill:url(#SVGID_80_);}
	.st67{fill:#945812;}
	.st68{fill:url(#SVGID_81_);}
	.st69{clip-path:url(#SVGID_83_);}
	.st70{fill:url(#SVGID_84_);}
	.st71{clip-path:url(#SVGID_86_);enable-background:new    ;}
	.st72{fill:url(#SVGID_87_);}
	.st73{fill:url(#SVGID_88_);}
	.st74{fill:url(#SVGID_89_);}
	.st75{fill:url(#SVGID_90_);}
	.st76{clip-path:url(#SVGID_92_);enable-background:new    ;}
	.st77{fill:url(#SVGID_93_);}
	.st78{fill:url(#SVGID_94_);}
	.st79{fill:url(#SVGID_95_);}
	.st80{clip-path:url(#SVGID_97_);}
	.st81{fill:url(#SVGID_98_);}
	.st82{clip-path:url(#SVGID_100_);fill:url(#SVGID_101_);}
	.st83{fill:url(#SVGID_102_);}
	.st84{clip-path:url(#SVGID_104_);enable-background:new    ;}
	.st85{fill:#1E5E26;}
	.st86{fill:url(#SVGID_105_);}
	.st87{clip-path:url(#SVGID_107_);}
	.st88{fill:url(#SVGID_108_);}
	.st89{clip-path:url(#SVGID_110_);}
	.st90{fill:url(#SVGID_111_);}
	.st91{clip-path:url(#SVGID_113_);fill:url(#SVGID_114_);}
	.st92{fill:url(#SVGID_115_);}
	.st93{clip-path:url(#SVGID_117_);enable-background:new    ;}
	.st94{fill:url(#SVGID_118_);}
	.st95{clip-path:url(#SVGID_120_);}
	.st96{fill:url(#SVGID_121_);}
	.st97{clip-path:url(#SVGID_123_);}
	.st98{fill:url(#SVGID_124_);}
	.st99{clip-path:url(#SVGID_126_);fill:url(#SVGID_127_);}
	.st100{fill:url(#SVGID_128_);}
	.st101{clip-path:url(#SVGID_130_);enable-background:new    ;}
	.st102{fill:url(#SVGID_131_);}
	.st103{clip-path:url(#SVGID_133_);}
	.st104{fill:url(#SVGID_134_);}
	.st105{clip-path:url(#SVGID_136_);}
	.st106{fill:url(#SVGID_137_);}
	.st107{clip-path:url(#SVGID_139_);fill:url(#SVGID_140_);}
	.st108{fill:url(#SVGID_141_);}
	.st109{clip-path:url(#SVGID_143_);}
	.st110{fill:url(#SVGID_144_);}
	.st111{clip-path:url(#SVGID_146_);}
	.st112{fill:url(#SVGID_147_);}
	.st113{fill:url(#SVGID_148_);}
	.st114{clip-path:url(#SVGID_150_);}
	.st115{fill:url(#SVGID_151_);}
	.st116{clip-path:url(#SVGID_153_);}
	.st117{fill:url(#SVGID_154_);}
	.st118{clip-path:url(#SVGID_156_);}
	.st119{fill:url(#SVGID_157_);}
	.st120{clip-path:url(#SVGID_159_);}
	.st121{fill:url(#SVGID_160_);}
	.st122{clip-path:url(#SVGID_162_);}
	.st123{fill:url(#SVGID_163_);}
	.st124{fill:url(#SVGID_164_);}
	.st125{clip-path:url(#SVGID_166_);}
	.st126{fill:url(#SVGID_167_);}
	.st127{fill:url(#SVGID_168_);}
	.st128{fill:url(#SVGID_169_);}
	.st129{fill:url(#SVGID_170_);}
	.st130{clip-path:url(#SVGID_172_);}
	.st131{fill:url(#SVGID_173_);}
	.st132{fill:url(#SVGID_174_);}
	.st133{clip-path:url(#SVGID_176_);}
	.st134{fill:url(#SVGID_177_);}
	.st135{fill:url(#SVGID_178_);}
	.st136{fill:url(#SVGID_179_);}
	.st137{clip-path:url(#SVGID_181_);}
	.st138{fill:url(#SVGID_182_);}
	.st139{clip-path:url(#SVGID_184_);}
	.st140{fill:url(#SVGID_185_);}
	.st141{fill:url(#SVGID_188_);}
	.st142{fill:#3B322C;}
	.st143{clip-path:url(#SVGID_190_);}
	.st144{fill:url(#SVGID_191_);}
	.st145{fill:url(#SVGID_192_);}
	.st146{fill:url(#SVGID_193_);}
	.st147{fill:url(#SVGID_194_);}
	.st148{clip-path:url(#SVGID_196_);}
	.st149{fill:url(#SVGID_197_);}
	.st150{fill:url(#SVGID_200_);}
	.st151{fill:#004A23;}
	.st152{clip-path:url(#SVGID_202_);}
	.st153{fill:url(#SVGID_203_);}
	.st154{fill:url(#SVGID_204_);}
</style>
<g>
	<rect x="-14.26" y="-24.2" class="st0" width="533.8" height="533.8"/>
	<g>
		<g>
			<g class="st7">
				<g class="st7">
					<defs>
						<path id="SVGID_74_" class="st7" d="M315.96,127.16l15.68-8.51c0.94-0.51,2.08-0.6,3.26-0.26l-15.68,8.51
							C318.05,126.57,316.9,126.65,315.96,127.16z"/>
					</defs>
					<clipPath id="SVGID_1_">
						<use xlink:href="#SVGID_74_"  style="overflow:visible;"/>
					</clipPath>
					<g style="clip-path:url(#SVGID_1_);">
						<linearGradient id="SVGID_2_" gradientUnits="userSpaceOnUse" x1="315.9624" y1="122.6789" x2="334.9048" y2="122.6789">
							<stop  offset="0.1499" style="stop-color:#FF9800"/>
							<stop  offset="1" style="stop-color:#FFC107"/>
						</linearGradient>
						<path class="st3" d="M315.96,127.16l15.68-8.51c0.94-0.51,2.08-0.6,3.26-0.26l-15.68,8.51
							C318.05,126.57,316.9,126.65,315.96,127.16"/>
					</g>
				</g>
				<g class="st7">
					<defs>
						<path id="SVGID_77_" class="st7" d="M392.85,252.31l-15.68,8.51c1.42-0.77,2.32-2.46,2.25-4.73
							c-0.02-0.94-0.06-1.87-0.11-2.82c-2.14-44.69-23.78-91.68-56.94-124.43c-1-0.99-2.09-1.63-3.14-1.93l15.68-8.51
							c1.06,0.3,2.14,0.95,3.14,1.93c33.16,32.75,54.8,79.74,56.94,124.43c0.05,0.95,0.08,1.88,0.11,2.82
							C395.17,249.84,394.27,251.53,392.85,252.31z"/>
					</defs>
					<clipPath id="SVGID_3_">
						<use xlink:href="#SVGID_77_"  style="overflow:visible;"/>
					</clipPath>
					<g style="clip-path:url(#SVGID_3_);enable-background:new    ;">
						<linearGradient id="SVGID_4_" gradientUnits="userSpaceOnUse" x1="319.2263" y1="188.3801" x2="395.1018" y2="188.3801">
							<stop  offset="0.1499" style="stop-color:#FF9800"/>
							<stop  offset="1" style="stop-color:#FFC107"/>
						</linearGradient>
						<path class="st5" d="M319.23,126.9l15.68-8.51c1.06,0.3,2.14,0.95,3.14,1.93c33.16,32.75,54.8,79.74,56.94,124.43
							c0.05,0.95,0.08,1.88,0.11,2.82c0.03,0.85-0.08,1.61-0.3,2.28l-15.68,8.51c0.22-0.67,0.33-1.43,0.3-2.28
							c-0.02-0.94-0.06-1.87-0.11-2.82c-2.14-44.69-23.78-91.68-56.94-124.43C321.37,127.85,320.28,127.21,319.23,126.9"/>
						<linearGradient id="SVGID_5_" gradientUnits="userSpaceOnUse" x1="377.591" y1="255.2008" x2="394.794" y2="255.2008">
							<stop  offset="0.1499" style="stop-color:#FF9800"/>
							<stop  offset="1" style="stop-color:#FFC107"/>
						</linearGradient>
						<path class="st6" d="M379.12,258.36c-0.11,0.34-0.26,0.66-0.43,0.95c-0.15,0.25-0.32,0.48-0.5,0.69
							c-0.18,0.2-0.38,0.38-0.59,0.54l15.68-8.51c0.21-0.16,0.41-0.34,0.59-0.54c0.19-0.21,0.35-0.44,0.5-0.69
							c0.17-0.29,0.31-0.61,0.43-0.95L379.12,258.36z"/>
						<path class="st67" d="M377.59,260.55l15.68-8.51c-0.13,0.1-0.28,0.19-0.42,0.27l-15.68,8.51
							C377.32,260.73,377.46,260.64,377.59,260.55"/>
					</g>
				</g>
				<g>
					<linearGradient id="SVGID_6_" gradientUnits="userSpaceOnUse" x1="313.7039" y1="193.9886" x2="379.4234" y2="193.9886">
						<stop  offset="0.1499" style="stop-color:#FF9800"/>
						<stop  offset="1" style="stop-color:#FFC107"/>
					</linearGradient>
					<path class="st8" d="M319.23,126.9c1.06,0.3,2.14,0.95,3.14,1.93c33.16,32.75,54.8,79.74,56.94,124.43
						c0.05,0.95,0.08,1.88,0.11,2.82c0.11,3.71-2.37,5.88-5.5,4.99c-0.15-0.04-0.31-0.09-0.46-0.15c-3.11-1.17-5.61-4.93-5.72-8.56
						c-0.02-0.81-0.06-1.62-0.1-2.44c-1.92-39.96-21.26-81.97-50.91-111.25c-2.72-2.68-3.79-6.93-2.45-9.69
						C315.24,127.01,317.17,126.32,319.23,126.9z"/>
				</g>
			</g>
		</g>
		<g>
			<g class="st7">
				<g class="st7">
					<defs>
						<path id="SVGID_82_" class="st7" d="M191.37,345.78l15.68-8.51c0.94-0.51,2.07-0.6,3.25-0.26c0.94,0.27,1.91,0.81,2.82,1.63
							c14.81,13.32,31.18,22.77,47.69,27.51c18.81,5.39,36.59,4.41,51.75-2.81c0.94-0.44,2-0.48,3.08-0.17l-15.68,8.51
							c-1.07-0.31-2.14-0.27-3.08,0.17c-15.16,7.22-32.94,8.2-51.75,2.81c-16.51-4.73-32.88-14.19-47.69-27.51
							c-0.91-0.82-1.88-1.36-2.82-1.63C193.45,345.18,192.31,345.27,191.37,345.78z"/>
					</defs>
					<clipPath id="SVGID_7_">
						<use xlink:href="#SVGID_82_"  style="overflow:visible;"/>
					</clipPath>
					<g style="clip-path:url(#SVGID_7_);">
						<linearGradient id="SVGID_8_" gradientUnits="userSpaceOnUse" x1="191.3713" y1="357.4482" x2="315.6364" y2="357.4482">
							<stop  offset="0.1499" style="stop-color:#FF9800"/>
							<stop  offset="1" style="stop-color:#FFC107"/>
						</linearGradient>
						<path class="st10" d="M191.37,345.78l15.68-8.51c0.94-0.51,2.07-0.6,3.25-0.26c0.94,0.27,1.91,0.81,2.82,1.63
							c14.81,13.32,31.18,22.77,47.69,27.51c18.81,5.39,36.59,4.41,51.75-2.81c0.94-0.44,2-0.48,3.08-0.17l-15.68,8.51
							c-1.07-0.31-2.14-0.27-3.08,0.17c-15.16,7.22-32.94,8.2-51.75,2.81c-16.51-4.73-32.88-14.19-47.69-27.51
							c-0.91-0.82-1.88-1.36-2.82-1.63C193.45,345.18,192.31,345.27,191.37,345.78"/>
					</g>
				</g>
				<g class="st7">
					<defs>
						<path id="SVGID_85_" class="st7" d="M319.55,376.61l-15.68,8.51c2.57-1.39,3.02-5.55,0.96-9.22c-1.22-2.19-3.05-3.7-4.88-4.22
							l15.68-8.51c1.82,0.52,3.65,2.03,4.88,4.22C322.57,371.06,322.12,375.22,319.55,376.61z"/>
					</defs>
					<clipPath id="SVGID_9_">
						<use xlink:href="#SVGID_85_"  style="overflow:visible;"/>
					</clipPath>
					<g style="clip-path:url(#SVGID_9_);enable-background:new    ;">
						<g>
							<linearGradient id="SVGID_10_" gradientUnits="userSpaceOnUse" x1="299.958" y1="372.9191" x2="321.8069" y2="372.9191">
								<stop  offset="0.1499" style="stop-color:#FF9800"/>
								<stop  offset="1" style="stop-color:#FFC107"/>
							</linearGradient>
							<path class="st12" d="M320.51,367.39c-1.22-2.19-3.05-3.7-4.88-4.22l-15.68,8.51c1.82,0.52,3.65,2.03,4.88,4.22
								c1.31,2.34,1.6,4.88,0.98,6.77l15.68-8.51C322.12,372.27,321.82,369.73,320.51,367.39z"/>
							<linearGradient id="SVGID_12_" gradientUnits="userSpaceOnUse" x1="304.293" y1="379.5074" x2="321.4914" y2="379.5074">
								<stop  offset="0.1499" style="stop-color:#FF9800"/>
								<stop  offset="1" style="stop-color:#FFC107"/>
							</linearGradient>
							<path style="fill:url(#SVGID_12_);" d="M305.38,383.63c-0.15,0.25-0.31,0.48-0.5,0.69c-0.18,0.2-0.37,0.38-0.59,0.53
								l15.68-8.51c0.21-0.16,0.41-0.34,0.59-0.53c0.19-0.21,0.35-0.44,0.5-0.69c0.17-0.3,0.32-0.62,0.43-0.97l-15.68,8.51
								C305.7,383.01,305.55,383.34,305.38,383.63z"/>
						</g>
						<linearGradient id="SVGID_14_" gradientUnits="userSpaceOnUse" x1="303.8731" y1="380.7328" x2="319.9714" y2="380.7328">
							<stop  offset="0.1499" style="stop-color:#FF9800"/>
							<stop  offset="1" style="stop-color:#FFC107"/>
						</linearGradient>
						<path style="fill:url(#SVGID_14_);" d="M304.29,384.85l15.68-8.51c-0.13,0.1-0.27,0.19-0.42,0.27l-15.68,8.51
							C304.02,385.04,304.16,384.95,304.29,384.85"/>
					</g>
				</g>
				<g>
					<linearGradient id="SVGID_15_" gradientUnits="userSpaceOnUse" x1="189.1065" y1="368.7587" x2="306.1285" y2="368.7587">
						<stop  offset="0.1499" style="stop-color:#FF9800"/>
						<stop  offset="1" style="stop-color:#FFC107"/>
					</linearGradient>
					<path class="st16" d="M299.96,371.68c1.82,0.52,3.65,2.03,4.88,4.22c2.11,3.76,1.59,8.02-1.14,9.31
						c-16.97,8.08-36.86,9.18-57.9,3.15c-18.46-5.29-36.77-15.87-53.34-30.76c-3.04-2.73-4.24-7.42-2.63-10.26
						c1-1.77,2.84-2.38,4.8-1.82c0.94,0.27,1.91,0.81,2.82,1.63c14.81,13.32,31.18,22.77,47.69,27.51
						c18.81,5.39,36.59,4.41,51.75-2.81C297.82,371.41,298.89,371.37,299.96,371.68z"/>
				</g>
			</g>
		</g>
		<g>
			<g class="st7">
				<g class="st7">
					<defs>
						<path id="SVGID_91_" class="st7" d="M164.81,154.57l15.68-8.51c-23.95,13-38.38,41.38-38.39,76.68c0,2.15-0.88,3.77-2.26,4.51
							l-15.68,8.51c1.38-0.75,2.26-2.36,2.26-4.51C126.44,195.95,140.87,167.56,164.81,154.57z"/>
					</defs>
					<clipPath id="SVGID_16_">
						<use xlink:href="#SVGID_91_"  style="overflow:visible;"/>
					</clipPath>
					<g style="clip-path:url(#SVGID_16_);enable-background:new    ;">
						<linearGradient id="SVGID_17_" gradientUnits="userSpaceOnUse" x1="131.7531" y1="171.2267" x2="180.4924" y2="171.2267">
							<stop  offset="0.1499" style="stop-color:#FF9800"/>
							<stop  offset="1" style="stop-color:#FFC107"/>
						</linearGradient>
						<path class="st19" d="M164.81,154.57c-2.45,1.33-4.8,2.82-7.04,4.46c-3.62,2.65-6.97,5.7-10.03,9.1
							c-3.19,3.56-6.07,7.51-8.59,11.8c-2.96,5.03-5.44,10.55-7.4,16.47l15.68-8.51c1.96-5.92,4.44-11.43,7.4-16.47
							c2.52-4.3,5.4-8.25,8.59-11.8c3.06-3.4,6.41-6.45,10.03-9.1c2.24-1.64,4.59-3.13,7.04-4.46L164.81,154.57z"/>
						<linearGradient id="SVGID_18_" gradientUnits="userSpaceOnUse" x1="126.1149" y1="210.5983" x2="147.4314" y2="210.5983">
							<stop  offset="0.1499" style="stop-color:#FF9800"/>
							<stop  offset="1" style="stop-color:#FFC107"/>
						</linearGradient>
						<path class="st20" d="M131.75,196.39l15.68-8.51c-3.47,10.47-5.32,22.22-5.33,34.86c0,0.76-0.11,1.45-0.31,2.06l-15.68,8.51
							c0.2-0.61,0.31-1.3,0.31-2.06C126.43,218.62,128.28,206.87,131.75,196.39"/>
						<linearGradient id="SVGID_19_" gradientUnits="userSpaceOnUse" x1="124.1682" y1="230.2824" x2="141.7933" y2="230.2824">
							<stop  offset="0.1499" style="stop-color:#FF9800"/>
							<stop  offset="1" style="stop-color:#FFC107"/>
						</linearGradient>
						<path class="st21" d="M126.11,233.31c-0.11,0.35-0.26,0.67-0.43,0.96c-0.15,0.25-0.32,0.48-0.5,0.69
							c-0.18,0.2-0.38,0.38-0.59,0.54c-0.13,0.1-0.27,0.19-0.42,0.27l15.68-8.51c0.15-0.08,0.29-0.17,0.42-0.27
							c0.21-0.16,0.41-0.34,0.59-0.54c0.19-0.21,0.36-0.44,0.5-0.69c0.17-0.29,0.31-0.61,0.43-0.96L126.11,233.31z"/>
					</g>
				</g>
				<g class="st7">
					<defs>
						<path id="SVGID_96_" class="st7" d="M157.5,141.44l15.68-8.51c2.94-1.6,6-2.98,9.17-4.15c0.86-0.32,1.81-0.31,2.76-0.04
							l-15.68,8.51c-0.95-0.27-1.9-0.28-2.76,0.04C163.5,138.46,160.44,139.85,157.5,141.44z"/>
					</defs>
					<clipPath id="SVGID_20_">
						<use xlink:href="#SVGID_96_"  style="overflow:visible;"/>
					</clipPath>
					<g style="clip-path:url(#SVGID_20_);">
						<linearGradient id="SVGID_21_" gradientUnits="userSpaceOnUse" x1="157.5038" y1="134.9929" x2="185.1112" y2="134.9929">
							<stop  offset="0.1499" style="stop-color:#FF9800"/>
							<stop  offset="1" style="stop-color:#FFC107"/>
						</linearGradient>
						<path class="st23" d="M157.5,141.44l15.68-8.51c2.94-1.6,6-2.98,9.17-4.15c0.86-0.32,1.81-0.31,2.76-0.04l-15.68,8.51
							c-0.95-0.27-1.9-0.28-2.76,0.04C163.5,138.46,160.44,139.85,157.5,141.44"/>
					</g>
				</g>
				<g class="st7">
					<defs>
						<path id="SVGID_99_" class="st7" d="M189.05,142.18l-15.68,8.51c2.24-1.22,2.92-4.61,1.53-8.02
							c-1.12-2.76-3.29-4.79-5.46-5.42l15.68-8.51c2.17,0.62,4.34,2.65,5.46,5.42C191.97,137.58,191.29,140.97,189.05,142.18z"/>
					</defs>
					<clipPath id="SVGID_22_">
						<use xlink:href="#SVGID_99_"  style="overflow:visible;"/>
					</clipPath>
					<linearGradient id="SVGID_23_" gradientUnits="userSpaceOnUse" x1="169.4328" y1="139.7172" x2="191.2973" y2="139.7172">
						<stop  offset="0.1499" style="stop-color:#FF9800"/>
						<stop  offset="1" style="stop-color:#FFC107"/>
					</linearGradient>
					<path style="clip-path:url(#SVGID_22_);fill:url(#SVGID_23_);" d="M190.58,134.16c-1.12-2.76-3.29-4.79-5.46-5.42l-15.68,8.51
						c2.17,0.62,4.34,2.65,5.46,5.42c0.82,2.02,0.92,4.03,0.4,5.58c-0.11,0.34-0.26,0.66-0.43,0.96c-0.15,0.25-0.31,0.48-0.5,0.69
						c-0.18,0.2-0.37,0.38-0.59,0.53c-0.13,0.1-0.27,0.18-0.41,0.26l15.68-8.51c0.14-0.08,0.28-0.17,0.41-0.26
						c0.21-0.16,0.41-0.33,0.59-0.53c0.19-0.21,0.35-0.44,0.5-0.69c0.17-0.29,0.32-0.62,0.43-0.96
						C191.5,138.19,191.4,136.18,190.58,134.16z"/>
				</g>
				<g>
					<linearGradient id="SVGID_24_" gradientUnits="userSpaceOnUse" x1="114.7436" y1="186.6367" x2="175.6189" y2="186.6367">
						<stop  offset="0.1499" style="stop-color:#FF9800"/>
						<stop  offset="1" style="stop-color:#FFC107"/>
					</linearGradient>
					<path class="st27" d="M169.43,137.25c2.17,0.62,4.34,2.65,5.46,5.42c1.49,3.65,0.61,7.28-2.01,8.24
						c-28.74,10.61-46.45,41.23-46.46,80.34c0,3.57-2.42,5.65-5.51,4.77c-3.34-0.96-6.18-5.01-6.18-8.87
						c-0.03-22.02,4.86-41.86,14.27-57.71c9.11-15.37,22.06-26.39,37.66-32.14C167.54,136.98,168.49,136.98,169.43,137.25z"/>
				</g>
			</g>
		</g>
		<g>
			<g class="st7">
				<g class="st7">
					<defs>
						<path id="SVGID_103_" class="st7" d="M220.84,157.65l15.68-8.51c1.03-0.56,2.1-1.06,3.21-1.49l-15.68,8.51
							C222.95,156.59,221.88,157.09,220.84,157.65z"/>
					</defs>
					<clipPath id="SVGID_25_">
						<use xlink:href="#SVGID_103_"  style="overflow:visible;"/>
					</clipPath>
					<g style="clip-path:url(#SVGID_25_);enable-background:new    ;">
						<path class="st85" d="M220.84,157.65l15.68-8.51c1.03-0.56,2.1-1.06,3.21-1.49l-15.68,8.51
							C222.95,156.59,221.88,157.09,220.84,157.65"/>
					</g>
				</g>
				<g>
					<linearGradient id="SVGID_27_" gradientUnits="userSpaceOnUse" x1="402.2702" y1="169.2708" x2="248.2702" y2="252.7708">
						<stop  offset="0" style="stop-color:#0068FF"/>
						<stop  offset="1" style="stop-color:#00B6FF"/>
					</linearGradient>
					<polygon style="fill:url(#SVGID_27_);" points="292.16,220.42 307.84,211.91 308.64,228.59 292.96,237.1 					"/>
				</g>
				<g class="st7">
					<defs>
						<path id="SVGID_106_" class="st7" d="M267.71,168.68l15.68-8.51c13.87,12.81,23.52,32.29,24.45,51.74l-15.68,8.51
							C291.23,200.97,281.59,181.49,267.71,168.68z"/>
					</defs>
					<clipPath id="SVGID_29_">
						<use xlink:href="#SVGID_106_"  style="overflow:visible;"/>
					</clipPath>
					<g class="st30">
						<linearGradient id="SVGID_30_" gradientUnits="userSpaceOnUse" x1="385.0672" y1="137.5432" x2="231.0672" y2="221.0432">
							<stop  offset="0" style="stop-color:#0068FF"/>
							<stop  offset="1" style="stop-color:#00B6FF"/>
						</linearGradient>
						<path class="st31" d="M267.71,168.68l15.68-8.51c13.87,12.81,23.52,32.29,24.45,51.74l-15.68,8.51
							C291.23,200.97,281.59,181.49,267.71,168.68"/>
					</g>
				</g>
				<g class="st7">
					<defs>
						<path id="SVGID_109_" class="st7" d="M220.56,81.17l15.68-8.51c5.98-3.25,13.38-4.03,21.51-1.7l-15.68,8.51
							C233.95,77.14,226.55,77.93,220.56,81.17z"/>
					</defs>
					<clipPath id="SVGID_32_">
						<use xlink:href="#SVGID_109_"  style="overflow:visible;"/>
					</clipPath>
					<g class="st32">
						<linearGradient id="SVGID_33_" gradientUnits="userSpaceOnUse" x1="220.5622" y1="75.3976" x2="257.7554" y2="75.3976">
							<stop  offset="0" style="stop-color:#0068FF"/>
							<stop  offset="1" style="stop-color:#00B6FF"/>
						</linearGradient>
						<path class="st33" d="M220.56,81.17l15.68-8.51c5.98-3.25,13.38-4.03,21.51-1.7l-15.68,8.51
							C233.95,77.14,226.55,77.93,220.56,81.17"/>
					</g>
				</g>
				<g class="st7">
					<defs>
						<path id="SVGID_112_" class="st7" d="M242.08,79.48l15.68-8.51c21.38,6.13,39.62,31.43,40.82,56.54
							c0.75,15.59-5.4,27.39-15.19,32.66l-15.68,8.51c9.79-5.27,15.93-17.07,15.19-32.66C281.69,110.9,263.45,85.61,242.08,79.48z"
							/>
					</defs>
					<clipPath id="SVGID_35_">
						<use xlink:href="#SVGID_112_"  style="overflow:visible;"/>
					</clipPath>
					<linearGradient id="SVGID_36_" gradientUnits="userSpaceOnUse" x1="349.8488" y1="72.5894" x2="195.8488" y2="156.0894">
						<stop  offset="0" style="stop-color:#0068FF"/>
						<stop  offset="1" style="stop-color:#00B6FF"/>
					</linearGradient>
					<path style="clip-path:url(#SVGID_35_);fill:url(#SVGID_36_);" d="M298.58,127.51c-1.2-25.12-19.45-50.42-40.82-56.54
						l-15.68,8.51c21.38,6.13,39.62,31.43,40.82,56.54c0.29,5.99-0.44,11.42-2.01,16.14c-0.77,2.31-1.73,4.45-2.88,6.4
						c-1,1.7-2.13,3.26-3.39,4.66c-1.22,1.36-2.56,2.58-4.01,3.63c-0.93,0.68-1.9,1.29-2.91,1.83l15.68-8.51
						c1.01-0.54,1.98-1.16,2.91-1.83c1.44-1.05,2.78-2.27,4.01-3.63c1.26-1.4,2.39-2.96,3.39-4.66c1.14-1.95,2.11-4.09,2.88-6.4
						C298.13,138.94,298.86,133.5,298.58,127.51z"/>
				</g>
				<g>
					<linearGradient id="SVGID_38_" gradientUnits="userSpaceOnUse" x1="203.4364" y1="157.6143" x2="292.9638" y2="157.6143">
						<stop  offset="0" style="stop-color:#0068FF"/>
						<stop  offset="1" style="stop-color:#00B6FF"/>
					</linearGradient>
					<path style="fill:url(#SVGID_38_);" d="M242.08,79.48c21.38,6.13,39.62,31.43,40.82,56.54c0.75,15.59-5.4,27.39-15.19,32.66
						c13.87,12.81,23.52,32.29,24.45,51.74l0.8,16.68l-88.66-25.42l-0.8-16.68c-0.93-19.45,7.53-33.74,20.54-38.83
						c-10.58-11.11-17.72-26.72-18.47-42.31C204.38,88.73,220.7,73.35,242.08,79.48z"/>
				</g>
			</g>
		</g>
		<g>
			<g class="st7">
				<g class="st7">
					<defs>
						<path id="SVGID_116_" class="st7" d="M94.94,353.85l15.68-8.51c1.04-0.57,2.12-1.07,3.23-1.5l-15.68,8.51
							C97.06,352.78,95.98,353.29,94.94,353.85z"/>
					</defs>
					<clipPath id="SVGID_39_">
						<use xlink:href="#SVGID_116_"  style="overflow:visible;"/>
					</clipPath>
					<g style="clip-path:url(#SVGID_39_);enable-background:new    ;">
						<path class="st85" d="M94.94,353.85l15.68-8.51c1.04-0.57,2.12-1.07,3.23-1.5l-15.68,8.51
							C97.06,352.78,95.98,353.29,94.94,353.85"/>
					</g>
				</g>
				<g>
					<linearGradient id="SVGID_41_" gradientUnits="userSpaceOnUse" x1="189.8507" y1="412.2909" x2="135.8507" y2="441.2909">
						<stop  offset="0" style="stop-color:#0068FF"/>
						<stop  offset="1" style="stop-color:#00B6FF"/>
					</linearGradient>
					<polygon style="fill:url(#SVGID_41_);" points="166.17,416.57 181.85,408.07 182.64,424.6 166.96,433.11 					"/>
				</g>
				<g class="st7">
					<defs>
						<path id="SVGID_119_" class="st7" d="M141.83,364.87l15.68-8.51c13.87,12.81,23.4,32.26,24.33,51.7l-15.68,8.51
							C165.24,397.13,155.71,377.68,141.83,364.87z"/>
					</defs>
					<clipPath id="SVGID_42_">
						<use xlink:href="#SVGID_119_"  style="overflow:visible;"/>
					</clipPath>
					<g style="clip-path:url(#SVGID_42_);">
						<linearGradient id="SVGID_44_" gradientUnits="userSpaceOnUse" x1="172.8173" y1="380.5735" x2="118.8173" y2="409.5735">
							<stop  offset="0" style="stop-color:#0068FF"/>
							<stop  offset="1" style="stop-color:#00B6FF"/>
						</linearGradient>
						<path style="fill:url(#SVGID_44_);" d="M141.83,364.87l15.68-8.51c13.87,12.81,23.4,32.26,24.33,51.7l-15.68,8.51
							C165.24,397.13,155.71,377.68,141.83,364.87"/>
					</g>
				</g>
				<g class="st7">
					<defs>
						<path id="SVGID_122_" class="st7" d="M94.78,277.39l15.68-8.51c5.98-3.24,13.37-4.03,21.5-1.7l-15.68,8.51
							C108.16,273.36,100.76,274.14,94.78,277.39z"/>
					</defs>
					<clipPath id="SVGID_45_">
						<use xlink:href="#SVGID_122_"  style="overflow:visible;"/>
					</clipPath>
					<g style="clip-path:url(#SVGID_45_);">
						<linearGradient id="SVGID_47_" gradientUnits="userSpaceOnUse" x1="124.9205" y1="265.8314" x2="56.9205" y2="303.8314">
							<stop  offset="0" style="stop-color:#0068FF"/>
							<stop  offset="1" style="stop-color:#00B6FF"/>
						</linearGradient>
						<path style="fill:url(#SVGID_47_);" d="M94.78,277.39l15.68-8.51c5.98-3.24,13.37-4.03,21.5-1.7l-15.68,8.51
							C108.16,273.36,100.76,274.14,94.78,277.39"/>
					</g>
				</g>
				<g class="st7">
					<defs>
						<path id="SVGID_125_" class="st7" d="M116.28,275.69l15.68-8.51c21.38,6.13,39.59,31.43,40.79,56.54
							c0.75,15.59-5.46,27.37-15.24,32.64l-15.68,8.51c9.78-5.27,15.99-17.06,15.24-32.64
							C155.87,307.12,137.66,281.82,116.28,275.69z"/>
					</defs>
					<clipPath id="SVGID_48_">
						<use xlink:href="#SVGID_125_"  style="overflow:visible;"/>
					</clipPath>
					<linearGradient id="SVGID_50_" gradientUnits="userSpaceOnUse" x1="137.8724" y1="315.5038" x2="83.8724" y2="344.5038">
						<stop  offset="0" style="stop-color:#0068FF"/>
						<stop  offset="1" style="stop-color:#00B6FF"/>
					</linearGradient>
					<path style="clip-path:url(#SVGID_48_);fill:url(#SVGID_50_);" d="M172.76,323.72c-1.2-25.11-19.42-50.41-40.79-56.54
						l-15.68,8.51c21.38,6.13,39.59,31.43,40.79,56.54c0.29,5.96-0.44,11.36-2,16.05c-0.77,2.31-1.74,4.46-2.88,6.41
						c-1,1.71-2.15,3.27-3.41,4.68c-1.23,1.37-2.58,2.6-4.03,3.66c-0.93,0.68-1.9,1.3-2.92,1.84l15.68-8.51
						c1.01-0.54,1.99-1.16,2.92-1.84c1.45-1.06,2.8-2.28,4.03-3.66c1.26-1.41,2.4-2.97,3.41-4.68c1.15-1.95,2.12-4.09,2.88-6.41
						C172.31,335.08,173.04,329.68,172.76,323.72z"/>
				</g>
				<g>
					<linearGradient id="SVGID_51_" gradientUnits="userSpaceOnUse" x1="77.4408" y1="353.7268" x2="166.9602" y2="353.7268">
						<stop  offset="0" style="stop-color:#0068FF"/>
						<stop  offset="1" style="stop-color:#00B6FF"/>
					</linearGradient>
					<path class="st45" d="M116.28,275.69c21.38,6.13,39.59,31.43,40.79,56.54c0.75,15.59-5.46,27.37-15.24,32.64
						c13.87,12.81,23.4,32.26,24.33,51.7l0.79,16.53L78.3,407.69l-0.79-16.53c-0.93-19.44,7.64-33.7,20.66-38.8
						c-10.58-11.11-17.62-26.69-18.37-42.28C78.6,284.96,94.91,269.56,116.28,275.69z"/>
				</g>
			</g>
		</g>
		<g>
			<g class="st7">
				<g class="st7">
					<defs>
						<path id="SVGID_129_" class="st7" d="M344.89,353.83l15.68-8.51c1.04-0.56,2.11-1.06,3.22-1.5l-15.68,8.51
							C347,352.76,345.93,353.26,344.89,353.83z"/>
					</defs>
					<clipPath id="SVGID_53_">
						<use xlink:href="#SVGID_129_"  style="overflow:visible;"/>
					</clipPath>
					<g style="clip-path:url(#SVGID_53_);enable-background:new    ;">
						<path class="st85" d="M344.89,353.83l15.68-8.51c1.04-0.56,2.11-1.06,3.22-1.5l-15.68,8.51
							C347,352.76,345.93,353.26,344.89,353.83"/>
					</g>
				</g>
				<g>
					<linearGradient id="SVGID_54_" gradientUnits="userSpaceOnUse" x1="512.6057" y1="372.7638" x2="358.6057" y2="456.2638">
						<stop  offset="0" style="stop-color:#0068FF"/>
						<stop  offset="1" style="stop-color:#00B6FF"/>
					</linearGradient>
					<polygon class="st47" points="416.17,416.57 431.85,408.07 432.64,424.6 416.96,433.11 					"/>
				</g>
				<g class="st7">
					<defs>
						<path id="SVGID_132_" class="st7" d="M391.77,364.85l15.68-8.51c13.87,12.81,23.46,32.28,24.4,51.72l-15.68,8.51
							C415.24,397.13,405.65,377.66,391.77,364.85z"/>
					</defs>
					<clipPath id="SVGID_56_">
						<use xlink:href="#SVGID_132_"  style="overflow:visible;"/>
					</clipPath>
					<g class="st48">
						<linearGradient id="SVGID_57_" gradientUnits="userSpaceOnUse" x1="495.4443" y1="341.1128" x2="341.4443" y2="424.6128">
							<stop  offset="0" style="stop-color:#0068FF"/>
							<stop  offset="1" style="stop-color:#00B6FF"/>
						</linearGradient>
						<path class="st49" d="M391.77,364.85l15.68-8.51c13.87,12.81,23.46,32.28,24.4,51.72l-15.68,8.51
							C415.24,397.13,405.65,377.66,391.77,364.85"/>
					</g>
				</g>
				<g class="st7">
					<defs>
						<path id="SVGID_135_" class="st7" d="M344.67,277.35l15.68-8.51c5.98-3.24,13.37-4.03,21.5-1.7l-15.68,8.51
							C358.05,273.33,350.65,274.11,344.67,277.35z"/>
					</defs>
					<clipPath id="SVGID_59_">
						<use xlink:href="#SVGID_135_"  style="overflow:visible;"/>
					</clipPath>
					<g class="st50">
						<linearGradient id="SVGID_60_" gradientUnits="userSpaceOnUse" x1="344.672" y1="271.5804" x2="381.8519" y2="271.5804">
							<stop  offset="0" style="stop-color:#0068FF"/>
							<stop  offset="1" style="stop-color:#00B6FF"/>
						</linearGradient>
						<path class="st51" d="M344.67,277.35l15.68-8.51c5.98-3.24,13.37-4.03,21.5-1.7l-15.68,8.51
							C358.05,273.33,350.65,274.11,344.67,277.35"/>
					</g>
				</g>
				<g class="st7">
					<defs>
						<path id="SVGID_138_" class="st7" d="M366.17,275.66l15.68-8.51c21.38,6.13,39.61,31.43,40.81,56.54
							c0.75,15.59-5.43,27.38-15.22,32.65l-15.68,8.51c9.78-5.27,15.96-17.06,15.22-32.65
							C405.78,307.09,387.56,281.79,366.17,275.66z"/>
					</defs>
					<clipPath id="SVGID_61_">
						<use xlink:href="#SVGID_138_"  style="overflow:visible;"/>
					</clipPath>
					<linearGradient id="SVGID_63_" gradientUnits="userSpaceOnUse" x1="460.2417" y1="276.1882" x2="306.2417" y2="359.6882">
						<stop  offset="0" style="stop-color:#0068FF"/>
						<stop  offset="1" style="stop-color:#00B6FF"/>
					</linearGradient>
					<path style="clip-path:url(#SVGID_61_);fill:url(#SVGID_63_);" d="M422.67,323.69c-1.2-25.11-19.43-50.41-40.81-56.54
						l-15.68,8.51c21.38,6.13,39.61,31.43,40.81,56.54c0.29,5.97-0.44,11.39-2,16.09c-0.77,2.31-1.73,4.45-2.88,6.4
						c-1,1.71-2.14,3.27-3.4,4.67c-1.23,1.37-2.57,2.59-4.02,3.65c-0.93,0.68-1.9,1.29-2.91,1.84l15.68-8.51
						c1.01-0.54,1.98-1.16,2.91-1.84c1.45-1.06,2.79-2.28,4.02-3.65c1.26-1.4,2.4-2.96,3.4-4.67c1.15-1.95,2.11-4.09,2.88-6.4
						C422.22,335.08,422.95,329.67,422.67,323.69z"/>
				</g>
				<g>
					<linearGradient id="SVGID_64_" gradientUnits="userSpaceOnUse" x1="327.4424" y1="353.7107" x2="416.9622" y2="353.7107">
						<stop  offset="0" style="stop-color:#0068FF"/>
						<stop  offset="1" style="stop-color:#00B6FF"/>
					</linearGradient>
					<path class="st54" d="M366.17,275.66c21.38,6.13,39.61,31.43,40.81,56.54c0.75,15.59-5.43,27.38-15.22,32.65
						c13.87,12.81,23.46,32.28,24.4,51.72l0.79,16.53l-88.66-25.42l-0.79-16.53c-0.93-19.44,7.58-33.72,20.59-38.82
						c-10.57-11.11-17.67-26.71-18.42-42.3C328.49,284.93,344.8,269.53,366.17,275.66z"/>
				</g>
			</g>
		</g>
	</g>
</g>
</svg>
