<?xml version="1.0" encoding="utf-8"?>
<!-- Generator: Adobe Illustrator 23.0.3, SVG Export Plug-In . SVG Version: 6.00 Build 0)  -->
<svg version="1.1" id="Layer_1" xmlns="http://www.w3.org/2000/svg" xmlns:xlink="http://www.w3.org/1999/xlink" x="0px" y="0px"
	 viewBox="0 0 500 500" style="enable-background:new 0 0 500 500;" xml:space="preserve">
<style type="text/css">
	.st0{fill:#0B3475;}
	.st1{fill:url(#SVGID_1_);}
	.st2{fill:url(#SVGID_2_);}
	.st3{fill:url(#SVGID_3_);}
	.st4{fill:url(#SVGID_4_);}
	.st5{fill:url(#SVGID_5_);}
	.st6{fill:#E8ECF3;}
	.st7{fill:url(#SVGID_6_);}
	.st8{fill:url(#SVGID_7_);}
	.st9{fill:url(#SVGID_8_);}
	.st10{fill:url(#SVGID_9_);}
</style>
<rect class="st0" width="500" height="500"/>
<linearGradient id="SVGID_1_" gradientUnits="userSpaceOnUse" x1="187.3407" y1="567.8221" x2="363.8999" y2="755.0772" gradientTransform="matrix(1.2124 -0.1045 -0.1045 1.2124 64.3107 -458.7448)">
	<stop  offset="0" style="stop-color:#082651"/>
	<stop  offset="1" style="stop-color:#0B3475"/>
</linearGradient>
<polygon class="st1" points="500,288 500,500 332,502 213,399 217,276 289,93 "/>
<g>
	<linearGradient id="SVGID_2_" gradientUnits="userSpaceOnUse" x1="252.3928" y1="262.3113" x2="280.0781" y2="262.3113">
		<stop  offset="0" style="stop-color:#0068FF"/>
		<stop  offset="4.184998e-03" style="stop-color:#007BFF"/>
		<stop  offset="0.0106" style="stop-color:#0091FF"/>
		<stop  offset="0.0181" style="stop-color:#00A2FF"/>
		<stop  offset="0.0275" style="stop-color:#00ADFF"/>
		<stop  offset="0.0406" style="stop-color:#00B4FF"/>
		<stop  offset="0.0769" style="stop-color:#00B6FF"/>
		<stop  offset="1" style="stop-color:#00A0FF"/>
	</linearGradient>
	<rect x="224.41" y="246.24" class="st2" width="27.69" height="32.15"/>
	<linearGradient id="SVGID_3_" gradientUnits="userSpaceOnUse" x1="211.5139" y1="286.1267" x2="230.715" y2="286.1267">
		<stop  offset="0" style="stop-color:#0068FF"/>
		<stop  offset="1" style="stop-color:#00B6FF"/>
	</linearGradient>
	<polygon class="st3" points="211.51,277.79 230.72,269.01 230.72,303.24 	"/>
	<linearGradient id="SVGID_4_" gradientUnits="userSpaceOnUse" x1="219.4831" y1="300.0792" x2="240.8214" y2="336.6949">
		<stop  offset="0" style="stop-color:#0068FF"/>
		<stop  offset="4.184998e-03" style="stop-color:#007BFF"/>
		<stop  offset="0.0106" style="stop-color:#0091FF"/>
		<stop  offset="0.0181" style="stop-color:#00A2FF"/>
		<stop  offset="0.0275" style="stop-color:#00ADFF"/>
		<stop  offset="0.0406" style="stop-color:#00B4FF"/>
		<stop  offset="0.0769" style="stop-color:#00B6FF"/>
		<stop  offset="1" style="stop-color:#00A0FF"/>
	</linearGradient>
	<path class="st4" d="M258.98,396.63l-9.06,2.64l-27.58-3.22c-2.38-0.62-4.05-2.77-4.05-5.24V278.66c0-2.99,2.42-5.41,5.41-5.41
		h31.95c2.99,0,5.41,2.42,5.41,5.41v113.7C261.07,394.03,260.29,395.6,258.98,396.63z"/>
	<linearGradient id="SVGID_5_" gradientUnits="userSpaceOnUse" x1="250.812" y1="166.0808" x2="363.1953" y2="166.0808">
		<stop  offset="0" style="stop-color:#0068FF"/>
		<stop  offset="1" style="stop-color:#00B6FF"/>
	</linearGradient>
	<path class="st5" d="M243.37,238.2c0,0,58.35-16.67,58.35-70.26s-67.53-81.59-85.39-84.57l16.39-2.5
		c25.41-3.88,51.33,4.19,69.65,22.23c14.11,13.9,26.35,33.94,26.35,61.66c0,68.17-76.69,87.47-76.69,87.47L243.37,238.2z"/>
	<rect x="217.47" y="246.24" class="st6" width="27.69" height="32.15"/>
	<linearGradient id="SVGID_6_" gradientUnits="userSpaceOnUse" x1="195.7363" y1="338.5659" x2="243.6646" y2="338.5659">
		<stop  offset="0" style="stop-color:#0068FF"/>
		<stop  offset="1" style="stop-color:#00B6FF"/>
	</linearGradient>
	<path class="st7" d="M248.39,399.44h-34.15c-3.8,0-6.89-3.08-6.89-6.89V284.57c0-3.8,3.08-6.89,6.89-6.89h34.15
		c3.8,0,6.89,3.08,6.89,6.89v107.98C255.27,396.36,252.19,399.44,248.39,399.44z"/>
	<linearGradient id="SVGID_7_" gradientUnits="userSpaceOnUse" x1="144.8475" y1="168.4351" x2="317.5087" y2="168.4351">
		<stop  offset="0" style="stop-color:#0068FF"/>
		<stop  offset="1" style="stop-color:#00B6FF"/>
	</linearGradient>
	<circle class="st8" cx="231.18" cy="168.44" r="86.33"/>
	<linearGradient id="SVGID_8_" gradientUnits="userSpaceOnUse" x1="313.2" y1="168.4351" x2="171.4376" y2="168.4351">
		<stop  offset="0" style="stop-color:#00B6FF"/>
		<stop  offset="1" style="stop-color:#FFFFFF"/>
	</linearGradient>
	<circle class="st9" cx="231.18" cy="168.44" r="61.31"/>
	<g>
		<linearGradient id="SVGID_9_" gradientUnits="userSpaceOnUse" x1="180.6475" y1="191.1999" x2="236.1778" y2="191.1999">
			<stop  offset="0.1499" style="stop-color:#FF9800"/>
			<stop  offset="1" style="stop-color:#FFC107"/>
		</linearGradient>
		<path class="st10" d="M231.18,218.96c-27.86,0-50.53-22.67-50.53-50.53c0-2.76,2.24-5,5-5s5,2.24,5,5
			c0,22.35,18.18,40.53,40.53,40.53c2.76,0,5,2.24,5,5S233.94,218.96,231.18,218.96z"/>
	</g>
</g>
</svg>
