<?xml version="1.0" encoding="utf-8"?>
<!-- Generator: Adobe Illustrator 23.0.3, SVG Export Plug-In . SVG Version: 6.00 Build 0)  -->
<svg version="1.1" id="Layer_1" xmlns="http://www.w3.org/2000/svg" xmlns:xlink="http://www.w3.org/1999/xlink" x="0px" y="0px"
	 viewBox="0 0 500 500" style="enable-background:new 0 0 500 500;" xml:space="preserve">
<style type="text/css">
	.st0{fill:#0B3475;}
	.st1{fill:url(#SVGID_1_);}
	.st2{fill:url(#SVGID_2_);}
	.st3{fill:url(#SVGID_3_);}
	.st4{fill:url(#SVGID_4_);}
	.st5{fill:url(#SVGID_5_);}
	.st6{fill:url(#SVGID_6_);}
	.st7{fill:url(#SVGID_7_);}
	.st8{fill:url(#SVGID_8_);}
	.st9{fill:url(#SVGID_9_);}
	.st10{fill:url(#SVGID_10_);}
	.st11{fill:url(#SVGID_11_);}
	.st12{fill:url(#SVGID_12_);}
	.st13{fill:url(#SVGID_13_);}
	.st14{fill:url(#SVGID_14_);}
	.st15{fill:url(#SVGID_15_);}
	.st16{fill:url(#SVGID_16_);}
	.st17{fill:url(#SVGID_17_);}
</style>
<rect class="st0" width="500" height="500"/>
<linearGradient id="SVGID_1_" gradientUnits="userSpaceOnUse" x1="354.8227" y1="382.6458" x2="589.9667" y2="618.8301" gradientTransform="matrix(1.1062 -0.1037 -0.1037 1.1062 -86.5147 -141.4737)">
	<stop  offset="0" style="stop-color:#082651"/>
	<stop  offset="1" style="stop-color:#0B3475"/>
</linearGradient>
<polygon class="st1" points="500,290 500,500 331,500 186,338 319,140 "/>
<g id="technology_ind">
	<g>
		<linearGradient id="SVGID_2_" gradientUnits="userSpaceOnUse" x1="423.3596" y1="242.061" x2="192.8524" y2="242.061">
			<stop  offset="0" style="stop-color:#0068FF"/>
			<stop  offset="1" style="stop-color:#00B6FF"/>
		</linearGradient>
		<path class="st2" d="M285.55,147.59l-89.59-52.27c-4.23-2.47-9.01-2.17-12.72-0.04L183,95.42c-3.58,2.16-6.12,6.06-6.12,10.86
			v216.23c0,6.4,3.4,12.3,8.92,15.53l85.94,50.14c5.97,3.49,12.73,2.91,17.86-0.3l0.2-0.13c4.61-2.99,7.83-8.15,7.83-14.44V168.65
			C297.64,159.98,293.03,151.96,285.55,147.59z M214.11,115.8l46.31,27.03v10.51l-46.31-27.02V115.8z M237.27,360.24
			c-3.92-2.29-7.09-8.29-7.09-13.41c0-5.13,3.17-7.42,7.09-5.14c3.92,2.28,7.09,8.29,7.09,13.41
			C244.36,360.23,241.18,362.53,237.27,360.24z M283.94,360.65l-93.34-54.46V122.94l93.34,54.46V360.65z"/>
		<linearGradient id="SVGID_3_" gradientUnits="userSpaceOnUse" x1="258.197" y1="210.1998" x2="209.5229" y2="153.8474">
			<stop  offset="0" style="stop-color:#0068FF"/>
			<stop  offset="0.3414" style="stop-color:#00B6FF"/>
		</linearGradient>
		<path class="st3" d="M322.76,153.08v204.66c0,5.64-2.6,10.39-6.47,13.47l-26.48,16.54c4.61-2.99,7.83-8.15,7.83-14.44V168.65
			c0-8.68-4.61-16.69-12.1-21.06l-89.59-52.27c-4.23-2.47-9.01-2.17-12.72-0.04l24.86-15.41c3.76-2.28,8.65-2.64,12.99-0.12
			l89.57,52.27C318.17,136.39,322.76,144.4,322.76,153.08z"/>
		<linearGradient id="SVGID_4_" gradientUnits="userSpaceOnUse" x1="208.1011" y1="79.8697" x2="208.1011" y2="79.8697">
			<stop  offset="0" style="stop-color:#0068FF"/>
			<stop  offset="1" style="stop-color:#00B6FF"/>
		</linearGradient>
		<path class="st4" d="M208.1,79.87"/>
		<linearGradient id="SVGID_5_" gradientUnits="userSpaceOnUse" x1="206.6683" y1="80.8799" x2="206.6683" y2="80.8799">
			<stop  offset="0" style="stop-color:#0068FF"/>
			<stop  offset="1" style="stop-color:#00B6FF"/>
		</linearGradient>
		<path class="st5" d="M206.67,80.88"/>
		<linearGradient id="SVGID_6_" gradientUnits="userSpaceOnUse" x1="257.1138" y1="241.7967" x2="163.7734" y2="241.7967">
			<stop  offset="0" style="stop-color:#00B6FF"/>
			<stop  offset="1" style="stop-color:#FFFFFF"/>
		</linearGradient>
		<polygon class="st6" points="283.94,177.4 283.94,360.65 190.6,306.19 190.6,122.94 		"/>
		<linearGradient id="SVGID_7_" gradientUnits="userSpaceOnUse" x1="214.1102" y1="134.5686" x2="260.4242" y2="134.5686">
			<stop  offset="0.1499" style="stop-color:#FF9800"/>
			<stop  offset="1" style="stop-color:#FFC107"/>
		</linearGradient>
		<polygon class="st7" points="260.42,142.83 260.42,153.34 214.11,126.32 214.11,115.8 		"/>
		<linearGradient id="SVGID_8_" gradientUnits="userSpaceOnUse" x1="230.1779" y1="350.9671" x2="244.3568" y2="350.9671">
			<stop  offset="0.1499" style="stop-color:#FF9800"/>
			<stop  offset="1" style="stop-color:#FFC107"/>
		</linearGradient>
		<path class="st8" d="M244.36,355.11c0,5.13-3.17,7.42-7.09,5.14c-3.92-2.29-7.09-8.29-7.09-13.41c0-5.13,3.17-7.42,7.09-5.14
			C241.18,343.97,244.36,349.98,244.36,355.11z"/>
		<linearGradient id="SVGID_9_" gradientUnits="userSpaceOnUse" x1="208.1011" y1="79.8697" x2="208.1011" y2="79.8697">
			<stop  offset="0" style="stop-color:#0068FF"/>
			<stop  offset="1" style="stop-color:#00B6FF"/>
		</linearGradient>
		<path class="st9" d="M208.1,79.87"/>
		<linearGradient id="SVGID_10_" gradientUnits="userSpaceOnUse" x1="181.9134" y1="96.1602" x2="181.9134" y2="96.1602">
			<stop  offset="0" style="stop-color:#0068FF"/>
			<stop  offset="1" style="stop-color:#00B6FF"/>
		</linearGradient>
		<path class="st10" d="M181.91,96.16"/>
	</g>
	<g>
		<linearGradient id="SVGID_11_" gradientUnits="userSpaceOnUse" x1="242.5009" y1="236.8094" x2="264.5838" y2="236.8094">
			<stop  offset="0.1499" style="stop-color:#FF9800"/>
			<stop  offset="1" style="stop-color:#FFC107"/>
		</linearGradient>
		<path class="st11" d="M250.48,244.64c3.91,2.22,7.15,1.26,7.84-2.05l6.26,3.56v-3.67l-6.44-3.66c-0.96-3.88-4.02-8.06-7.66-10.13
			c-4.41-2.51-7.98-0.97-7.98,3.44C242.5,236.52,246.07,242.13,250.48,244.64z"/>
		<linearGradient id="SVGID_12_" gradientUnits="userSpaceOnUse" x1="210.4894" y1="240.9159" x2="269.4091" y2="240.9159">
			<stop  offset="0.1499" style="stop-color:#FF9800"/>
			<stop  offset="1" style="stop-color:#FFC107"/>
		</linearGradient>
		<path class="st12" d="M261.43,255.41c-3.71-2.11-6.81-1.35-7.71,1.57l-6.27-3.57l-13.96-28.36l-7.29-4.15
			c-0.86-3.96-3.99-8.32-7.73-10.45c-4.41-2.51-7.98-0.97-7.98,3.44c0,4.41,3.57,10.01,7.98,12.52c3.81,2.17,6.99,1.31,7.78-1.81
			l5.3,3.02l13.96,28.36l8.11,4.61c0.76,4.05,3.97,8.59,7.81,10.77c4.41,2.51,7.98,0.97,7.98-3.44
			C269.41,263.53,265.84,257.92,261.43,255.41z"/>
		<linearGradient id="SVGID_13_" gradientUnits="userSpaceOnUse" x1="275.4673" y1="251.5475" x2="279.1403" y2="251.5475">
			<stop  offset="0.1499" style="stop-color:#FF9800"/>
			<stop  offset="1" style="stop-color:#FFC107"/>
		</linearGradient>
		<polygon class="st13" points="275.47,248.67 275.47,252.34 279.14,254.43 279.14,250.76 		"/>
		<linearGradient id="SVGID_14_" gradientUnits="userSpaceOnUse" x1="268.1216" y1="247.3676" x2="271.7946" y2="247.3676">
			<stop  offset="0.1499" style="stop-color:#FF9800"/>
			<stop  offset="1" style="stop-color:#FFC107"/>
		</linearGradient>
		<polygon class="st14" points="268.12,248.16 271.79,250.25 271.79,246.58 268.12,244.49 		"/>
		<linearGradient id="SVGID_15_" gradientUnits="userSpaceOnUse" x1="199.0767" y1="232.8843" x2="221.1601" y2="232.8843">
			<stop  offset="0.1499" style="stop-color:#FF9800"/>
			<stop  offset="1" style="stop-color:#FFC107"/>
		</linearGradient>
		<path class="st15" d="M207.06,224.75c-4.41-2.51-7.98-0.97-7.98,3.44c0,4.41,3.57,10.01,7.98,12.52c3.91,2.22,7.15,1.26,7.84-2.05
			l6.26,3.56v-3.67l-6.44-3.66C213.76,231.01,210.7,226.82,207.06,224.75z"/>
		<linearGradient id="SVGID_16_" gradientUnits="userSpaceOnUse" x1="232.0428" y1="247.6221" x2="235.7156" y2="247.6221">
			<stop  offset="0.1499" style="stop-color:#FF9800"/>
			<stop  offset="1" style="stop-color:#FFC107"/>
		</linearGradient>
		<polygon class="st16" points="232.04,248.41 235.72,250.5 235.72,246.83 232.04,244.74 		"/>
		<linearGradient id="SVGID_17_" gradientUnits="userSpaceOnUse" x1="224.6971" y1="243.4423" x2="228.3701" y2="243.4423">
			<stop  offset="0.1499" style="stop-color:#FF9800"/>
			<stop  offset="1" style="stop-color:#FFC107"/>
		</linearGradient>
		<polygon class="st17" points="224.7,244.23 228.37,246.32 228.37,242.65 224.7,240.56 		"/>
	</g>
</g>
</svg>
