<?xml version="1.0" encoding="utf-8"?>
<!-- Generator: Adobe Illustrator 23.0.3, SVG Export Plug-In . SVG Version: 6.00 Build 0)  -->
<svg version="1.1" id="Layer_1" xmlns="http://www.w3.org/2000/svg" xmlns:xlink="http://www.w3.org/1999/xlink" x="0px" y="0px"
	 viewBox="0 0 500 500" style="enable-background:new 0 0 500 500;" xml:space="preserve">
<style type="text/css">
	.st0{fill:#0B3475;}
	.st1{fill:url(#SVGID_1_);}
	.st2{fill:url(#SVGID_2_);}
	.st3{fill:url(#SVGID_3_);}
	.st4{fill:url(#SVGID_4_);}
	.st5{fill:#999999;}
	.st6{fill:url(#SVGID_5_);}
	.st7{fill:url(#SVGID_6_);}
	.st8{fill:url(#SVGID_7_);}
	.st9{fill:url(#SVGID_8_);}
</style>
<rect class="st0" width="500" height="500"/>
<linearGradient id="SVGID_1_" gradientUnits="userSpaceOnUse" x1="260.6996" y1="640.4498" x2="386.1284" y2="773.4771" gradientTransform="matrix(1.2124 -0.1045 -0.1045 1.2124 64.3107 -458.7448)">
	<stop  offset="0" style="stop-color:#082651"/>
	<stop  offset="1" style="stop-color:#0B3475"/>
</linearGradient>
<polygon class="st1" points="500,288 500,500 332,502 191.29,362.01 263.73,332.77 417.83,205.06 "/>
<linearGradient id="SVGID_2_" gradientUnits="userSpaceOnUse" x1="286.1108" y1="399.8711" x2="320.3067" y2="348.8532">
	<stop  offset="0" style="stop-color:#0068FF"/>
	<stop  offset="1" style="stop-color:#00B6FF"/>
</linearGradient>
<polygon class="st2" points="331.76,356.53 280.38,396.03 280.38,383.65 321.17,352.29 "/>
<linearGradient id="SVGID_3_" gradientUnits="userSpaceOnUse" x1="194.6267" y1="356.2582" x2="274.5922" y2="388.4169">
	<stop  offset="0" style="stop-color:#0068FF"/>
	<stop  offset="1" style="stop-color:#00B6FF"/>
</linearGradient>
<polygon class="st3" points="280.38,383.65 280.38,396.03 191.29,362.01 191.29,349.63 202.05,353.74 "/>
<linearGradient id="SVGID_4_" gradientUnits="userSpaceOnUse" x1="261.3351" y1="347.4151" x2="253.4719" y2="368.9418">
	<stop  offset="0" style="stop-color:#0068FF"/>
	<stop  offset="1" style="stop-color:#00B6FF"/>
</linearGradient>
<polygon class="st4" points="331.76,344.15 321.17,352.29 280.38,383.65 202.05,353.74 191.29,349.63 244.11,309.03 "/>
<polygon class="st5" points="409.24,210.75 409.24,377.75 122.67,266.74 122.67,99.74 "/>
<linearGradient id="SVGID_5_" gradientUnits="userSpaceOnUse" x1="102.2915" y1="247.931" x2="409.2415" y2="247.931">
	<stop  offset="0" style="stop-color:#0068FF"/>
	<stop  offset="1" style="stop-color:#00B6FF"/>
</linearGradient>
<polygon class="st6" points="409.24,210.75 409.24,404.01 102.29,285.11 102.29,91.85 122.67,99.74 "/>
<linearGradient id="SVGID_6_" gradientUnits="userSpaceOnUse" x1="414.7494" y1="280.1705" x2="65.703" y2="208.7357">
	<stop  offset="0.1499" style="stop-color:#FF9800"/>
	<stop  offset="0.5534" style="stop-color:#00BAFF"/>
	<stop  offset="1" style="stop-color:#FFFFFF"/>
</linearGradient>
<polygon class="st7" points="397.62,217.95 397.62,387.21 113.66,277.57 112.65,107.8 "/>
<linearGradient id="SVGID_7_" gradientUnits="userSpaceOnUse" x1="413.5537" y1="241.9296" x2="413.5537" y2="407.5759">
	<stop  offset="0" style="stop-color:#0068FF"/>
	<stop  offset="1" style="stop-color:#00B6FF"/>
</linearGradient>
<polygon class="st8" points="417.83,205.06 417.87,396.23 409.24,404.01 409.24,210.75 "/>
<linearGradient id="SVGID_8_" gradientUnits="userSpaceOnUse" x1="18.2704" y1="148.5432" x2="333.8104" y2="148.5432">
	<stop  offset="0" style="stop-color:#0068FF"/>
	<stop  offset="1" style="stop-color:#00B6FF"/>
</linearGradient>
<polygon class="st9" points="417.83,205.06 409.24,210.75 102.29,91.85 115.23,86.34 "/>
</svg>
