<?xml version="1.0" encoding="utf-8"?>
<!-- Generator: Adobe Illustrator 23.0.3, SVG Export Plug-In . SVG Version: 6.00 Build 0)  -->
<svg version="1.1" id="Layer_1" xmlns="http://www.w3.org/2000/svg" xmlns:xlink="http://www.w3.org/1999/xlink" x="0px" y="0px"
	 viewBox="0 0 500 500" style="enable-background:new 0 0 500 500;" xml:space="preserve">
<style type="text/css">
	.st0{fill:#0B3475;}
	.st1{fill:url(#SVGID_1_);}
	.st2{fill:url(#SVGID_2_);}
	.st3{fill:url(#SVGID_3_);}
	.st4{fill:url(#SVGID_4_);}
	.st5{fill:url(#SVGID_5_);}
</style>
<rect class="st0" width="500" height="500"/>
<g id="our_expertise">
	<linearGradient id="SVGID_1_" gradientUnits="userSpaceOnUse" x1="196.1749" y1="260.0935" x2="299.5123" y2="260.0935">
		<stop  offset="0.1499" style="stop-color:#FF9800"/>
		<stop  offset="1" style="stop-color:#FFC107"/>
	</linearGradient>
	<polygon class="st1" points="281.3,176.59 299.51,308.46 196.17,343.6 216.91,194.71 	"/>
	<g>
		<linearGradient id="SVGID_2_" gradientUnits="userSpaceOnUse" x1="-31.553" y1="285.187" x2="270.5391" y2="168.8256">
			<stop  offset="0" style="stop-color:#0068FF"/>
			<stop  offset="1" style="stop-color:#8BD5E8"/>
		</linearGradient>
		<path class="st2" d="M282.33,184.1l-3.39-24.64c-0.91-6.56-6.51-11.52-13.14-11.52h-31c-6.62,0-12.23,4.96-13.14,11.52l-9.3,67.36
			L282.33,184.1z"/>
		<linearGradient id="SVGID_3_" gradientUnits="userSpaceOnUse" x1="-5.5971" y1="352.5723" x2="296.4949" y2="236.211">
			<stop  offset="0" style="stop-color:#0068FF"/>
			<stop  offset="1" style="stop-color:#8BD5E8"/>
		</linearGradient>
		<polygon class="st3" points="286.52,214.37 207.42,262.7 202.54,298.09 290.64,244.25 		"/>
		<linearGradient id="SVGID_4_" gradientUnits="userSpaceOnUse" x1="27.0843" y1="437.4183" x2="329.1764" y2="321.0569">
			<stop  offset="0" style="stop-color:#0068FF"/>
			<stop  offset="1" style="stop-color:#8BD5E8"/>
		</linearGradient>
		<path class="st4" d="M294.82,274.51l-97.24,59.43l-5.3,38.35c-0.77,5.59,2.08,11.06,7.11,13.63l44.88,22.9
			c3.79,1.93,8.27,1.93,12.05,0l44.88-22.9c5.03-2.57,7.88-8.03,7.11-13.63L294.82,274.51z"/>
	</g>
	<linearGradient id="SVGID_5_" gradientUnits="userSpaceOnUse" x1="174.3951" y1="191.0748" x2="261.8412" y2="103.6286">
		<stop  offset="0" style="stop-color:#0068FF"/>
		<stop  offset="1" style="stop-color:#8BD5E8"/>
	</linearGradient>
	<path class="st5" d="M279.19,91.79h-58.36c-7.3,0-12.6,6.93-10.7,13.97l9.33,34.51c1.31,4.83,5.69,8.19,10.7,8.19h39.71
		c5.01,0,9.39-3.36,10.7-8.19l9.33-34.51C291.79,98.72,286.49,91.79,279.19,91.79z"/>
</g>
</svg>
