<?xml version="1.0" encoding="utf-8"?>
<!-- Generator: Adobe Illustrator 23.0.6, SVG Export Plug-In . SVG Version: 6.00 Build 0)  -->
<svg version="1.1" id="Layer_1" xmlns="http://www.w3.org/2000/svg" xmlns:xlink="http://www.w3.org/1999/xlink" x="0px" y="0px"
	 viewBox="0 0 533.8 533.8" style="enable-background:new 0 0 533.8 533.8;" xml:space="preserve">
<style type="text/css">
	.st0{fill:#0B3475;}
	.st1{fill:url(#SVGID_1_);}
	.st2{fill:none;}
	.st3{fill:url(#SVGID_2_);}
	.st4{fill:url(#SVGID_3_);}
	.st5{fill:url(#SVGID_4_);}
	.st6{fill:url(#SVGID_5_);}
	.st7{enable-background:new    ;}
	.st8{fill:url(#SVGID_6_);}
	.st9{fill:url(#SVGID_7_);}
	.st10{fill:url(#SVGID_8_);}
	.st11{fill:url(#SVGID_9_);}
	.st12{fill:url(#SVGID_10_);}
	.st13{clip-path:url(#SVGID_12_);enable-background:new    ;}
	.st14{fill:#1896FF;}
	.st15{clip-path:url(#SVGID_14_);enable-background:new    ;}
	.st16{fill:url(#SVGID_15_);}
	.st17{fill:url(#SVGID_16_);}
	.st18{fill:none;stroke:#FFFFFF;stroke-miterlimit:10;}
	.st19{fill:url(#SVGID_17_);}
	.st20{fill:url(#SVGID_18_);}
	.st21{fill:url(#SVGID_19_);}
	.st22{fill:url(#SVGID_20_);}
	.st23{fill:url(#SVGID_21_);}
	.st24{fill:#8BD5E8;}
	.st25{fill:url(#SVGID_22_);}
	.st26{fill:url(#SVGID_23_);}
	.st27{fill:url(#SVGID_24_);}
	.st28{fill:url(#SVGID_25_);}
	.st29{clip-path:url(#SVGID_27_);}
	.st30{clip-path:url(#SVGID_29_);}
	.st31{fill:url(#SVGID_30_);}
	.st32{clip-path:url(#SVGID_32_);}
	.st33{fill:url(#SVGID_33_);}
	.st34{clip-path:url(#SVGID_35_);}
	.st35{fill:url(#SVGID_36_);}
	.st36{clip-path:url(#SVGID_38_);}
	.st37{fill:url(#SVGID_39_);}
	.st38{clip-path:url(#SVGID_41_);}
	.st39{fill:url(#SVGID_42_);}
	.st40{clip-path:url(#SVGID_44_);}
	.st41{fill:url(#SVGID_45_);}
	.st42{clip-path:url(#SVGID_47_);}
	.st43{fill:url(#SVGID_48_);}
	.st44{clip-path:url(#SVGID_50_);}
	.st45{fill:url(#SVGID_51_);}
	.st46{clip-path:url(#SVGID_53_);}
	.st47{fill:url(#SVGID_54_);}
	.st48{clip-path:url(#SVGID_56_);}
	.st49{fill:url(#SVGID_57_);}
	.st50{clip-path:url(#SVGID_59_);}
	.st51{fill:url(#SVGID_60_);}
	.st52{fill:url(#SVGID_61_);}
	.st53{clip-path:url(#SVGID_63_);}
	.st54{fill:url(#SVGID_64_);}
	.st55{clip-path:url(#SVGID_66_);}
	.st56{fill:url(#SVGID_67_);}
	.st57{fill:url(#SVGID_68_);}
	.st58{clip-path:url(#SVGID_70_);}
	.st59{fill:url(#SVGID_71_);}
	.st60{fill:url(#SVGID_72_);}
	.st61{fill:url(#SVGID_73_);}
	.st62{clip-path:url(#SVGID_75_);}
	.st63{fill:url(#SVGID_76_);}
	.st64{clip-path:url(#SVGID_78_);enable-background:new    ;}
	.st65{fill:url(#SVGID_79_);}
	.st66{fill:url(#SVGID_80_);}
	.st67{fill:#945812;}
	.st68{fill:url(#SVGID_81_);}
	.st69{clip-path:url(#SVGID_83_);}
	.st70{fill:url(#SVGID_84_);}
	.st71{clip-path:url(#SVGID_86_);enable-background:new    ;}
	.st72{fill:url(#SVGID_87_);}
	.st73{fill:url(#SVGID_88_);}
	.st74{fill:url(#SVGID_89_);}
	.st75{fill:url(#SVGID_90_);}
	.st76{clip-path:url(#SVGID_92_);enable-background:new    ;}
	.st77{fill:url(#SVGID_93_);}
	.st78{fill:url(#SVGID_94_);}
	.st79{fill:url(#SVGID_95_);}
	.st80{clip-path:url(#SVGID_97_);}
	.st81{fill:url(#SVGID_98_);}
	.st82{clip-path:url(#SVGID_100_);fill:url(#SVGID_101_);}
	.st83{fill:url(#SVGID_102_);}
	.st84{clip-path:url(#SVGID_104_);enable-background:new    ;}
	.st85{fill:#1E5E26;}
	.st86{fill:url(#SVGID_105_);}
	.st87{clip-path:url(#SVGID_107_);}
	.st88{fill:url(#SVGID_108_);}
	.st89{clip-path:url(#SVGID_110_);}
	.st90{fill:url(#SVGID_111_);}
	.st91{clip-path:url(#SVGID_113_);fill:url(#SVGID_114_);}
	.st92{fill:url(#SVGID_115_);}
	.st93{clip-path:url(#SVGID_117_);enable-background:new    ;}
	.st94{fill:url(#SVGID_118_);}
	.st95{clip-path:url(#SVGID_120_);}
	.st96{fill:url(#SVGID_121_);}
	.st97{clip-path:url(#SVGID_123_);}
	.st98{fill:url(#SVGID_124_);}
	.st99{clip-path:url(#SVGID_126_);fill:url(#SVGID_127_);}
	.st100{fill:url(#SVGID_128_);}
	.st101{clip-path:url(#SVGID_130_);enable-background:new    ;}
	.st102{fill:url(#SVGID_131_);}
	.st103{clip-path:url(#SVGID_133_);}
	.st104{fill:url(#SVGID_134_);}
	.st105{clip-path:url(#SVGID_136_);}
	.st106{fill:url(#SVGID_137_);}
	.st107{clip-path:url(#SVGID_139_);fill:url(#SVGID_140_);}
	.st108{fill:url(#SVGID_141_);}
	.st109{clip-path:url(#SVGID_143_);}
	.st110{fill:url(#SVGID_144_);}
	.st111{clip-path:url(#SVGID_146_);}
	.st112{fill:url(#SVGID_147_);}
	.st113{fill:url(#SVGID_148_);}
	.st114{clip-path:url(#SVGID_150_);}
	.st115{fill:url(#SVGID_151_);}
	.st116{clip-path:url(#SVGID_153_);}
	.st117{fill:url(#SVGID_154_);}
	.st118{clip-path:url(#SVGID_156_);}
	.st119{fill:url(#SVGID_157_);}
	.st120{clip-path:url(#SVGID_159_);}
	.st121{fill:url(#SVGID_160_);}
	.st122{clip-path:url(#SVGID_162_);}
	.st123{fill:url(#SVGID_163_);}
	.st124{fill:url(#SVGID_164_);}
	.st125{clip-path:url(#SVGID_166_);}
	.st126{fill:url(#SVGID_167_);}
	.st127{fill:url(#SVGID_168_);}
	.st128{fill:url(#SVGID_169_);}
	.st129{fill:url(#SVGID_170_);}
	.st130{clip-path:url(#SVGID_172_);}
	.st131{fill:url(#SVGID_173_);}
	.st132{fill:url(#SVGID_174_);}
	.st133{clip-path:url(#SVGID_176_);}
	.st134{fill:url(#SVGID_177_);}
	.st135{fill:url(#SVGID_178_);}
	.st136{fill:url(#SVGID_179_);}
	.st137{clip-path:url(#SVGID_181_);}
	.st138{fill:url(#SVGID_182_);}
	.st139{clip-path:url(#SVGID_184_);}
	.st140{fill:url(#SVGID_185_);}
	.st141{fill:url(#SVGID_188_);}
	.st142{fill:#3B322C;}
	.st143{clip-path:url(#SVGID_190_);}
	.st144{fill:url(#SVGID_191_);}
	.st145{fill:url(#SVGID_192_);}
	.st146{fill:url(#SVGID_193_);}
	.st147{fill:url(#SVGID_194_);}
	.st148{clip-path:url(#SVGID_196_);}
	.st149{fill:url(#SVGID_197_);}
	.st150{fill:url(#SVGID_200_);}
	.st151{fill:#004A23;}
	.st152{clip-path:url(#SVGID_202_);}
	.st153{fill:url(#SVGID_203_);}
	.st154{fill:url(#SVGID_204_);}
</style>
<g>
	<rect x="0.46" y="-0.6" class="st0" width="533.8" height="533.8"/>
	<g>
		<g class="st7">
			<g>
				<linearGradient id="SVGID_1_" gradientUnits="userSpaceOnUse" x1="223.7279" y1="383.5598" x2="270.4579" y2="383.5598">
					<stop  offset="0.1499" style="stop-color:#FF9800"/>
					<stop  offset="1" style="stop-color:#FFC107"/>
				</linearGradient>
				<path class="st1" d="M270.46,345.6l-26.32,76.67l-20.41,12.82l35.38-103.06c1.88,0.37,3.78,0.69,5.69,0.95
					c0.41,0.06,0.81,0.11,1.22,0.16L270.46,345.6z"/>
			</g>
			<g>
				<linearGradient id="SVGID_2_" gradientUnits="userSpaceOnUse" x1="306.3479" y1="425.8698" x2="344.4579" y2="425.8698">
					<stop  offset="0.1499" style="stop-color:#FF9800"/>
					<stop  offset="1" style="stop-color:#FFC107"/>
				</linearGradient>
				<polygon class="st3" points="344.46,408.95 326.76,433.54 306.35,446.36 335.84,405.38 				"/>
			</g>
			<g>
				<linearGradient id="SVGID_3_" gradientUnits="userSpaceOnUse" x1="143.9279" y1="356.4948" x2="259.1079" y2="356.4948">
					<stop  offset="0.1499" style="stop-color:#FF9800"/>
					<stop  offset="1" style="stop-color:#FFC107"/>
				</linearGradient>
				<path class="st4" d="M259.11,332.03l-35.38,103.06l-31.58-49.31l-48.22,7l39.44-114.88
					C200.85,305.38,228.27,325.97,259.11,332.03z"/>
			</g>
			<g>
				<linearGradient id="SVGID_4_" gradientUnits="userSpaceOnUse" x1="341.2579" y1="350.6798" x2="405.0879" y2="350.6798">
					<stop  offset="0.1499" style="stop-color:#FF9800"/>
					<stop  offset="1" style="stop-color:#FFC107"/>
				</linearGradient>
				<path class="st5" d="M405.09,412.8l-20.41,12.81L341.26,303.7c6.47-8.05,11.58-17.46,15.01-27.95L405.09,412.8z"/>
			</g>
			<g>
				<linearGradient id="SVGID_5_" gradientUnits="userSpaceOnUse" x1="266.0179" y1="375.0298" x2="384.6779" y2="375.0298">
					<stop  offset="0.1499" style="stop-color:#FF9800"/>
					<stop  offset="1" style="stop-color:#FFC107"/>
				</linearGradient>
				<path class="st6" d="M384.68,425.61l-40.22-16.66l-8.62-3.57l-29.49,40.98L270.46,345.6l-4.44-12.46
					c2.86,0.36,5.69,0.57,8.49,0.66c27.28,0.89,51.03-10.58,66.75-30.1L384.68,425.61z"/>
			</g>
		</g>
	</g>
	<g>
		<g class="st7">
			<g class="st7">
				<defs>
					<path id="SVGID_11_" class="st7" d="M203.41,133.42l20.41-12.81c15.82-9.93,35.3-14.37,56.5-11.48l-20.41,12.81
						C238.71,119.05,219.23,123.49,203.41,133.42z"/>
				</defs>
				<use xlink:href="#SVGID_11_"  style="overflow:visible;fill:#1896FF;"/>
				<clipPath id="SVGID_6_">
					<use xlink:href="#SVGID_11_"  style="overflow:visible;"/>
				</clipPath>
				<g style="clip-path:url(#SVGID_6_);enable-background:new    ;">
					<path class="st14" d="M203.41,133.42l20.41-12.81c3.78-2.37,7.77-4.43,11.94-6.15l-20.41,12.81
						C211.18,128.99,207.19,131.05,203.41,133.42"/>
					<path class="st14" d="M215.35,127.27l20.41-12.81c2.75-1.13,5.58-2.12,8.48-2.95l-20.41,12.81
						C220.93,125.15,218.1,126.14,215.35,127.27"/>
					<path class="st14" d="M223.83,124.32l20.41-12.81c2.3-0.66,4.65-1.22,7.03-1.69l-20.41,12.81
						C228.48,123.09,226.13,123.65,223.83,124.32"/>
					<path class="st14" d="M230.86,122.63l20.41-12.81c2.07-0.4,4.16-0.73,6.29-0.97l-20.41,12.81
						C235.03,121.9,232.93,122.23,230.86,122.63"/>
					<path class="st14" d="M237.15,121.65l20.41-12.81c1.9-0.22,3.82-0.38,5.77-0.48l-20.41,12.81
						C240.98,121.27,239.05,121.43,237.15,121.65"/>
					<path class="st14" d="M242.92,121.18l20.41-12.81c1.8-0.09,3.61-0.12,5.44-0.1l-20.41,12.81
						C246.53,121.06,244.72,121.09,242.92,121.18"/>
					<path class="st14" d="M248.36,121.08l20.41-12.81c1.76,0.02,3.54,0.09,5.33,0.22L253.7,121.3
						C251.9,121.17,250.13,121.1,248.36,121.08"/>
					<path class="st14" d="M253.7,121.3l20.41-12.81c1.72,0.12,3.46,0.29,5.21,0.51l-20.41,12.81
						C257.15,121.59,255.42,121.42,253.7,121.3"/>
					<path class="st14" d="M258.9,121.81l20.41-12.81c0.34,0.04,0.67,0.09,1.01,0.13l-20.41,12.81
						C259.58,121.9,259.24,121.85,258.9,121.81"/>
				</g>
			</g>
			<g class="st7">
				<defs>
					<path id="SVGID_13_" class="st7" d="M341.7,308.69l-20.41,12.81c24.92-15.64,40.76-44.91,39.93-80.56
						c-1.35-58.28-46.7-111.55-101.31-119l20.41-12.81c54.6,7.45,99.96,60.72,101.31,119C382.46,263.78,366.62,293.05,341.7,308.69z
						"/>
				</defs>
				<use xlink:href="#SVGID_13_"  style="overflow:visible;fill:#1896FF;"/>
				<clipPath id="SVGID_7_">
					<use xlink:href="#SVGID_13_"  style="overflow:visible;"/>
				</clipPath>
				<g style="clip-path:url(#SVGID_7_);enable-background:new    ;">
					<path class="st14" d="M259.91,121.94l20.41-12.81c1.37,0.19,2.74,0.4,4.1,0.65l-20.41,12.81
						C262.66,122.35,261.29,122.13,259.91,121.94"/>
					<path class="st14" d="M264.02,122.59l20.41-12.81c1.69,0.3,3.36,0.65,5.03,1.04l-20.41,12.81
						C267.38,123.24,265.71,122.89,264.02,122.59"/>
					<path class="st14" d="M269.05,123.63l20.41-12.81c1.67,0.39,3.32,0.82,4.97,1.29l-20.41,12.81
						C272.37,124.45,270.72,124.02,269.05,123.63"/>
					<path class="st14" d="M274.02,124.92l20.41-12.81c1.67,0.48,3.34,1.01,4.99,1.57l-20.41,12.81
						C277.36,125.93,275.69,125.41,274.02,124.92"/>
					<path class="st14" d="M279.01,126.5l20.41-12.81c1.67,0.57,3.33,1.19,4.98,1.85l-20.41,12.81
						C282.34,127.69,280.68,127.07,279.01,126.5"/>
					<path class="st14" d="M283.98,128.34l20.41-12.81c1.74,0.7,3.46,1.44,5.16,2.22l-20.41,12.81
						C287.44,129.78,285.72,129.04,283.98,128.34"/>
					<path class="st14" d="M289.15,130.57l20.41-12.81c1.79,0.83,3.57,1.71,5.32,2.63l-20.41,12.81
						C292.72,132.27,290.94,131.39,289.15,130.57"/>
					<path class="st14" d="M294.47,133.2l20.41-12.81c1.87,0.99,3.72,2.03,5.54,3.13l-20.41,12.81
						C298.19,135.23,296.34,134.19,294.47,133.2"/>
					<path class="st14" d="M300.01,136.32l20.41-12.81c2.01,1.21,3.99,2.48,5.94,3.82l-20.41,12.81
						C304,138.8,302.02,137.53,300.01,136.32"/>
					<path class="st14" d="M305.95,140.14l20.41-12.81c2.29,1.57,4.52,3.22,6.71,4.95l-20.41,12.81
						C310.47,143.36,308.23,141.71,305.95,140.14"/>
					<path class="st14" d="M312.65,145.09l20.41-12.81c2.89,2.29,5.7,4.72,8.39,7.28l-20.41,12.81
						C318.35,149.81,315.55,147.38,312.65,145.09"/>
					<path class="st14" d="M321.05,152.37l20.41-12.81c11.45,10.86,21.03,23.98,27.96,38.47l-20.41,12.81
						C342.08,176.35,332.5,163.22,321.05,152.37"/>
					<path class="st14" d="M349.01,190.83l20.41-12.81c1.54,3.22,2.95,6.51,4.22,9.85l-20.41,12.81
						C351.96,197.34,350.55,194.05,349.01,190.83"/>
					<path class="st14" d="M353.23,200.69l20.41-12.81c1,2.63,1.91,5.3,2.74,8l-20.41,12.81
						C355.14,205.99,354.23,203.32,353.23,200.69"/>
					<path class="st14" d="M355.97,208.69l20.41-12.81c0.71,2.33,1.35,4.68,1.93,7.05l-20.41,12.81
						C357.32,213.37,356.68,211.02,355.97,208.69"/>
					<path class="st14" d="M357.89,215.74l20.41-12.81c0.51,2.1,0.96,4.21,1.36,6.34l-20.41,12.81
						C358.85,219.95,358.4,217.84,357.89,215.74"/>
					<path class="st14" d="M359.25,222.08l20.41-12.81c0.37,1.98,0.69,3.98,0.96,5.98l-20.41,12.81
						C359.94,226.06,359.62,224.06,359.25,222.08"/>
					<path class="st14" d="M360.21,228.06l20.41-12.81c0.26,1.92,0.47,3.85,0.63,5.79l-20.41,12.81
						C360.67,231.91,360.46,229.98,360.21,228.06"/>
					<path class="st14" d="M360.84,233.85l20.41-12.81c0.16,1.86,0.27,3.72,0.34,5.58l-20.41,12.81
						C361.11,237.57,360.99,235.71,360.84,233.85"/>
					<path class="st14" d="M361.17,239.43l20.41-12.81c0.02,0.5,0.03,1.01,0.04,1.51c0.03,1.33,0.04,2.65,0.02,3.96l-20.41,12.81
						c0.02-1.31,0.01-2.63-0.02-3.96C361.21,240.44,361.19,239.94,361.17,239.43"/>
					<path class="st14" d="M361.24,244.9l20.41-12.81c-0.02,1.79-0.08,3.57-0.19,5.32l-20.41,12.81
						C361.16,248.47,361.22,246.69,361.24,244.9"/>
					<path class="st14" d="M361.05,250.22l20.41-12.81c-0.1,1.76-0.25,3.5-0.44,5.22l-20.41,12.81
						C360.8,253.72,360.95,251.98,361.05,250.22"/>
					<path class="st14" d="M360.62,255.44l20.41-12.81c-0.19,1.75-0.42,3.48-0.69,5.18l-20.41,12.81
						C360.19,258.92,360.43,257.19,360.62,255.44"/>
					<path class="st14" d="M359.92,260.63l20.41-12.81c-0.28,1.73-0.6,3.44-0.95,5.13l-20.41,12.81
						C359.33,264.07,359.64,262.36,359.92,260.63"/>
					<path class="st14" d="M358.97,265.76l20.41-12.81c-0.38,1.79-0.81,3.55-1.28,5.28l-20.41,12.81
						C358.16,269.3,358.59,267.54,358.97,265.76"/>
					<path class="st14" d="M357.69,271.04l20.41-12.81c-0.49,1.82-1.04,3.61-1.63,5.37l-20.41,12.81
						C356.65,274.64,357.19,272.86,357.69,271.04"/>
					<path class="st14" d="M356.06,276.4l20.41-12.81c-0.63,1.87-1.31,3.71-2.05,5.52l-20.41,12.81
						C354.75,280.12,355.43,278.28,356.06,276.4"/>
					<path class="st14" d="M354.02,281.92l20.41-12.81c-0.81,2-1.69,3.95-2.63,5.85l-20.41,12.81
						C352.33,285.87,353.2,283.92,354.02,281.92"/>
					<path class="st14" d="M351.39,287.77l20.41-12.81c-1.1,2.23-2.28,4.39-3.54,6.49l-20.41,12.81
						C349.11,292.16,350.29,290,351.39,287.77"/>
					<path class="st14" d="M347.84,294.26l20.41-12.81c-1.64,2.73-3.42,5.34-5.32,7.82l-20.41,12.81
						C344.43,299.6,346.2,296.99,347.84,294.26"/>
					<path class="st14" d="M342.52,302.08l20.41-12.81c-5.94,7.76-13.1,14.32-21.24,19.42l-20.41,12.81
						C329.42,316.4,336.59,309.84,342.52,302.08"/>
				</g>
			</g>
			<g>
				<linearGradient id="SVGID_8_" gradientUnits="userSpaceOnUse" x1="163.4571" y1="227.4588" x2="361.2488" y2="227.4588">
					<stop  offset="0" style="stop-color:#0068FF"/>
					<stop  offset="1" style="stop-color:#00B6FF"/>
				</linearGradient>
				<path class="st10" d="M356.27,275.75c-3.43,10.49-8.54,19.9-15.01,27.95c-15.72,19.52-39.47,30.99-66.75,30.1
					c-2.8-0.09-5.63-0.3-8.49-0.66c-0.41-0.05-0.81-0.1-1.22-0.16c-1.91-0.26-3.81-0.58-5.69-0.95
					c-30.84-6.06-58.26-26.65-75.74-54.13c-12.03-18.89-19.35-41.02-19.88-63.93c-1.35-58.28,41.82-99.48,96.43-92.03
					c54.6,7.45,99.95,60.73,101.3,119C361.51,253.43,359.75,265.14,356.27,275.75z"/>
			</g>
		</g>
	</g>
	<g>
		<g>
			
				<linearGradient id="SVGID_9_" gradientUnits="userSpaceOnUse" x1="224.2138" y1="237.2315" x2="298.3824" y2="237.2315" gradientTransform="matrix(1 -0.0889 0 1 -5.688706e-05 19.8818)">
				<stop  offset="0.1499" style="stop-color:#FF9800"/>
				<stop  offset="1" style="stop-color:#FFC107"/>
			</linearGradient>
			<path class="st11" d="M298.38,299.73l-74.17-17.82v-28.53l17.65,4.24v-56.07c-3.21,0.06-7.61-0.58-13.19-1.92
				c-1.78-0.43-3.27-0.87-4.46-1.34v-27.46c0.71,0.23,1.46,0.44,2.23,0.62c7.78,1.87,15.01,2.09,21.66,0.66
				c6.77-1.46,11.62-3.95,14.53-7.47l18.63,4.48v97.97l17.12,4.11V299.73z"/>
		</g>
	</g>
</g>
</svg>
