<?xml version="1.0" encoding="utf-8"?>
<!-- Generator: Adobe Illustrator 23.0.3, SVG Export Plug-In . SVG Version: 6.00 Build 0)  -->
<svg version="1.1" id="Layer_1" xmlns="http://www.w3.org/2000/svg" xmlns:xlink="http://www.w3.org/1999/xlink" x="0px" y="0px"
	 viewBox="0 0 500 500" style="enable-background:new 0 0 500 500;" xml:space="preserve">
<style type="text/css">
	.st0{fill:#0B3475;}
	.st1{fill:url(#SVGID_1_);}
	.st2{fill:url(#SVGID_2_);}
	.st3{fill:url(#SVGID_3_);}
	.st4{fill:url(#SVGID_4_);}
	.st5{fill:url(#SVGID_5_);}
	.st6{fill:#FFFFFF;}
</style>
<rect class="st0" width="500" height="500"/>
<linearGradient id="SVGID_1_" gradientUnits="userSpaceOnUse" x1="207.8169" y1="612.356" x2="361.3558" y2="775.1963" gradientTransform="matrix(1.2124 -0.1045 -0.1045 1.2124 64.3107 -458.7448)">
	<stop  offset="0" style="stop-color:#082651"/>
	<stop  offset="1" style="stop-color:#0B3475"/>
</linearGradient>
<polygon class="st1" points="500,288 500,500 332,502 140,386 217,276 346,118 "/>
<g>
	<linearGradient id="SVGID_2_" gradientUnits="userSpaceOnUse" x1="214.7419" y1="252.0061" x2="421.1197" y2="252.0061">
		<stop  offset="0" style="stop-color:#0068FF"/>
		<stop  offset="1" style="stop-color:#00B6FF"/>
	</linearGradient>
	<polygon class="st2" points="346.38,372.39 329.55,386.05 156.84,372.39 140.01,131.63 156.84,117.96 346.38,117.96 	"/>
	<linearGradient id="SVGID_3_" gradientUnits="userSpaceOnUse" x1="76.4" y1="258.837" x2="265.9443" y2="258.837">
		<stop  offset="0" style="stop-color:#0068FF"/>
		<stop  offset="1" style="stop-color:#00B6FF"/>
	</linearGradient>
	<rect x="140.01" y="131.63" class="st3" width="189.54" height="254.42"/>
	<g>
		<g>
			<g>
				
					<image style="overflow:visible;" width="162.82" height="162.82" xlink:href="88785E32.png"  transform="matrix(1 0 0 1 236.6253 248.5775)"/>
			</g>
		</g>
		<linearGradient id="SVGID_4_" gradientUnits="userSpaceOnUse" x1="294.9069" y1="329.9868" x2="341.1623" y2="329.9868">
			<stop  offset="0.1499" style="stop-color:#FF9800"/>
			<stop  offset="1" style="stop-color:#FFC107"/>
		</linearGradient>
		<circle class="st4" cx="318.03" cy="329.99" r="23.13"/>
		<linearGradient id="SVGID_5_" gradientUnits="userSpaceOnUse" x1="305.8833" y1="329.9868" x2="330.1859" y2="329.9868">
			<stop  offset="0" style="stop-color:#0068FF"/>
			<stop  offset="1" style="stop-color:#00B6FF"/>
		</linearGradient>
		<circle class="st5" cx="318.03" cy="329.99" r="12.15"/>
	</g>
	<g>
		<path class="st6" d="M159.25,184.02c1.16,0.65,3.14,1.12,4.78,1.12c2.67,0,3.96-1.38,3.96-3.27c0-2.11-1.29-3.14-3.74-4.74
			c-3.96-2.41-5.47-5.47-5.47-8.09c0-4.65,3.1-8.52,9.17-8.52c1.89,0,3.7,0.52,4.56,1.03l-0.9,4.86c-0.82-0.52-2.07-0.99-3.7-0.99
			c-2.41,0-3.57,1.46-3.57,3.01c0,1.72,0.86,2.63,4,4.52c3.83,2.33,5.25,5.25,5.25,8.31c0,5.29-3.92,8.78-9.6,8.78
			c-2.32,0-4.61-0.6-5.55-1.16L159.25,184.02z"/>
		<path class="st6" d="M193.99,174.77c0,10.93-3.87,15.37-9.38,15.37c-6.59,0-9.17-6.97-9.17-14.94c0-7.92,3.14-14.76,9.56-14.76
			C192.01,160.43,193.99,168.14,193.99,174.77z M181.29,175.28c0,6.59,1.25,9.94,3.53,9.94c2.37,0,3.27-4.3,3.27-10.2
			c0-5.08-0.77-9.68-3.31-9.68C182.54,165.34,181.29,169.04,181.29,175.28z"/>
		<path class="st6" d="M197.56,160.78h12.61v4.91h-6.97v7.45h6.54v4.69h-6.54v11.97h-5.64V160.78z"/>
		<path class="st6" d="M217.58,165.98h-5.12v-5.21h15.93v5.21h-5.17v23.8h-5.64V165.98z"/>
		<path class="st6" d="M235.15,189.79l-4.95-29.01h5.85l1.42,11.54c0.39,3.36,0.65,6.67,0.99,10.2h0.13
			c0.39-3.57,1.03-6.71,1.64-10.2l2.07-11.54h4.56l1.94,11.45c0.52,3.27,1.03,6.5,1.38,10.29h0.09c0.39-3.79,0.73-6.89,1.12-10.25
			l1.42-11.49h5.51l-5.12,29.01h-5.81l-1.72-9.47c-0.47-2.71-0.9-6.03-1.29-9.56h-0.09c-0.52,3.49-0.99,6.72-1.59,9.56l-1.94,9.47
			H235.15z"/>
		<path class="st6" d="M265.28,183.16l-1.29,6.63h-5.47l6.28-29.01h6.76l5.64,29.01h-5.47l-1.25-6.63H265.28z M269.97,178.77
			l-0.95-6.07c-0.3-1.76-0.69-4.65-0.95-6.59h-0.13c-0.3,1.94-0.73,4.95-1.03,6.63l-1.08,6.03H269.97z"/>
		<path class="st6" d="M280.4,161.21c1.76-0.34,4-0.56,6.16-0.56c3.1,0,5.85,0.43,7.75,2.15c1.76,1.59,2.28,3.53,2.28,6.03
			c0,3.1-1.51,5.9-4.48,7.27v0.09c1.98,0.78,2.97,2.63,3.53,5.73c0.56,3.23,1.33,6.8,1.85,7.88h-5.9c-0.34-0.82-0.99-3.75-1.42-6.93
			c-0.52-3.62-1.42-4.65-3.31-4.65h-0.82v11.58h-5.64V161.21z M286.03,173.86h0.99c2.45,0,3.87-1.98,3.87-4.52
			c0-2.45-0.99-4.22-3.53-4.3c-0.47,0-1.03,0.04-1.33,0.17V173.86z"/>
		<path class="st6" d="M312.9,177.05h-6.63v7.83h7.49v4.91h-13.13v-29.01h12.61v4.91h-6.97v6.67h6.63V177.05z"/>
	</g>
</g>
</svg>
