<?xml version="1.0" encoding="utf-8"?>
<!-- Generator: Adobe Illustrator 23.0.3, SVG Export Plug-In . SVG Version: 6.00 Build 0)  -->
<svg version="1.1" id="Layer_1" xmlns="http://www.w3.org/2000/svg" xmlns:xlink="http://www.w3.org/1999/xlink" x="0px" y="0px"
	 viewBox="0 0 500 500" style="enable-background:new 0 0 500 500;" xml:space="preserve">
<style type="text/css">
	.st0{fill:#0B3475;}
	.st1{fill:none;}
	.st2{fill:url(#SVGID_1_);}
	.st3{fill:url(#SVGID_2_);}
	.st4{fill:url(#SVGID_3_);}
	.st5{fill:url(#SVGID_4_);}
	.st6{fill:#E8ECF3;}
	.st7{fill:url(#SVGID_5_);}
	.st8{fill:url(#SVGID_6_);}
	.st9{fill:url(#SVGID_7_);}
	.st10{fill:none;stroke:#00FF00;stroke-miterlimit:10;}
	.st11{fill:url(#SVGID_8_);}
	.st12{fill:url(#SVGID_9_);}
</style>
<rect class="st0" width="500" height="500"/>
<g id="our_customer">
	<g>
		<polygon class="st1" points="393.47,166.08 393.37,166.14 393.37,166.02 		"/>
		<linearGradient id="SVGID_1_" gradientUnits="userSpaceOnUse" x1="193.6544" y1="334.6334" x2="238.0293" y2="334.6334">
			<stop  offset="0.1499" style="stop-color:#FF9800"/>
			<stop  offset="1" style="stop-color:#FFC107"/>
		</linearGradient>
		<polygon class="st2" points="219.47,309.11 218.31,369.02 175.1,348.19 195.86,300.25 204.03,314.7 		"/>
		<linearGradient id="SVGID_2_" gradientUnits="userSpaceOnUse" x1="132.1161" y1="290.7592" x2="195.8625" y2="290.7592">
			<stop  offset="0" style="stop-color:#0068FF"/>
			<stop  offset="1" style="stop-color:#00B6FF"/>
		</linearGradient>
		<path class="st3" d="M195.86,300.25l-20.77,47.94l-42.02-20.25c0,0-0.96-37.34-0.96-63.39c0-25.97,35.83-32.44,49.31-31.06
			c1.59,3.91,3.8,8.06,6.9,11.93c-14.38,18.4-6.07,50.35-6.07,50.35l7.68-6.04L195.86,300.25z"/>
		<linearGradient id="SVGID_3_" gradientUnits="userSpaceOnUse" x1="205.2973" y1="287.3862" x2="270.3999" y2="287.3862">
			<stop  offset="0.1499" style="stop-color:#FF9800"/>
			<stop  offset="1" style="stop-color:#FFC107"/>
		</linearGradient>
		<path class="st4" d="M286.82,266.01c-11.66,23.06-54.95,49.22-54.95,49.22l-2.99-9.52l-7.17-22.84c6.13,0.72,39.64,3.34,52.26-22
			l-0.02-1.34C278.29,261.55,282.61,263.7,286.82,266.01z"/>
		<linearGradient id="SVGID_4_" gradientUnits="userSpaceOnUse" x1="218.3137" y1="336.1213" x2="343.7441" y2="336.1213">
			<stop  offset="0" style="stop-color:#0068FF"/>
			<stop  offset="1" style="stop-color:#00B6FF"/>
		</linearGradient>
		<path class="st5" d="M343.74,370.55l-48.18,35.68l-77.25-37.22l1.16-59.9l9.41-3.4l2.99,9.52c0,0,43.29-26.16,54.95-49.22
			c13.09,7.16,25.3,15.75,35.16,26.03C343.21,314.17,343.74,370.55,343.74,370.55z"/>
		<path class="st6" d="M286.29,214.95c0,18.92-12.5,24.63-12.5,24.63v8.57c-3.96,2.47-8.07,4.46-12.21,6.07
			c-22.8,8.87-46.31,6.06-46.31,6.06c-7.42-1.04-13.38-3.48-18.19-6.72c-3.51-2.36-6.39-5.15-8.76-8.12
			c-3.1-3.87-5.31-8.02-6.9-11.93c-3.6-8.84-3.98-16.41-3.98-16.41v-67.45c38.18-3.93,48.53,19.98,48.53,19.98
			c0.15-0.08,0.29-0.16,0.43-0.24l0.08-0.05c17.7-9.49,27.73,8.45,28.98,10.84c0.08,0.17,0.13,0.26,0.13,0.26v36.64
			C255.6,199.61,286.29,196.04,286.29,214.95z"/>
		<linearGradient id="SVGID_5_" gradientUnits="userSpaceOnUse" x1="204.076" y1="197.0591" x2="311.633" y2="197.0591">
			<stop  offset="0" style="stop-color:#0068FF"/>
			<stop  offset="1" style="stop-color:#8BD5E8"/>
		</linearGradient>
		<path class="st7" d="M273.82,248.13l-0.03-2.72v-5.83c0,0,12.5-5.71,12.5-24.63c0-18.91-30.69-15.34-30.69,2.15v-36.64
			c0,0-0.05-0.09-0.13-0.26l52.29-34.19c0.2,1.54,0.3,3.23,0.3,5.08C308.05,151.07,315.55,224.2,273.82,248.13z"/>
		<linearGradient id="SVGID_6_" gradientUnits="userSpaceOnUse" x1="202.2208" y1="154.9109" x2="283.4836" y2="154.9109">
			<stop  offset="0" style="stop-color:#0068FF"/>
			<stop  offset="1" style="stop-color:#00B6FF"/>
		</linearGradient>
		<path class="st8" d="M307.75,145.99l-52.29,34.19c-1.24-2.39-11.27-20.33-28.98-10.84l64.83-39.68h0.01
			C292.25,129.58,305.57,128.77,307.75,145.99z"/>
		<linearGradient id="SVGID_7_" gradientUnits="userSpaceOnUse" x1="121.413" y1="133.6659" x2="245.6381" y2="133.6659">
			<stop  offset="0" style="stop-color:#0068FF"/>
			<stop  offset="1" style="stop-color:#00B6FF"/>
		</linearGradient>
		<path class="st9" d="M291.32,129.66l-64.83,39.68l-0.08,0.05c-0.14,0.08-0.28,0.15-0.43,0.24c0,0-10.35-23.91-48.53-19.98v16.97
			c-4.31-4.55-10.35-12.26-10.35-19.82c0-11.78,23.2-38.9,54.6-47.12c19.87-5.19,69.59-1.78,69.59,29.99
			C291.28,129.66,291.3,129.66,291.32,129.66z"/>
		<path class="st10" d="M255.47,180.19"/>
		<path class="st6" d="M273.97,260.88c-12.62,25.34-46.13,22.71-52.26,22c-0.63-0.07-0.97-0.12-0.97-0.12
			c-6.14-1.08-10.71-3.31-14.11-6.15c-8.09-6.75-9.51-16.9-9.55-23.05c4.8,3.24,10.76,5.69,18.19,6.72c0,0,23.51,2.82,46.31-6.06
			c4.14-1.61,8.26-3.61,12.21-6.07c0.01-0.01,0.02-0.01,0.03-0.02l0.13,11.41L273.97,260.88z"/>
		<path class="st10" d="M197.09,253.55"/>
		<path class="st10" d="M221.71,282.88"/>
		<linearGradient id="SVGID_8_" gradientUnits="userSpaceOnUse" x1="162.7383" y1="270.6091" x2="189.5063" y2="270.6091">
			<stop  offset="0.1499" style="stop-color:#FF9800"/>
			<stop  offset="1" style="stop-color:#FFC107"/>
		</linearGradient>
		<path class="st11" d="M206.64,276.6l-16.71,13.15l-7.68,6.04c0,0-8.31-31.95,6.07-50.35c2.36,2.97,5.25,5.75,8.76,8.12
			C197.12,259.7,198.55,269.85,206.64,276.6z"/>
		<path class="st10" d="M188.33,245.43"/>
		<path class="st10" d="M206.64,276.6"/>
		<linearGradient id="SVGID_9_" gradientUnits="userSpaceOnUse" x1="189.9296" y1="295.65" x2="228.88" y2="295.65">
			<stop  offset="0.1499" style="stop-color:#FF9800"/>
			<stop  offset="1" style="stop-color:#FFC107"/>
		</linearGradient>
		<path class="st12" d="M228.88,305.71l-9.41,3.4l-15.44,5.58l-8.17-14.45l-5.93-10.5l16.71-13.15c3.4,2.83,7.97,5.07,14.11,6.15
			c0,0,0.34,0.06,0.97,0.12L228.88,305.71z"/>
	</g>
</g>
</svg>
